<svg xmlns="http://www.w3.org/2000/svg" viewBox="0 0 162.45 157.45"><defs><style>.cls-1{fill:#fff;opacity:0.5;}</style></defs><g id="Layer_2" data-name="Layer 2"><g id="Ñëîé_3" data-name="Ñëîé 3"><path class="cls-1" d="M96.23,55.15h0l.08,0Zm8.68-4.74-.43.26a1.25,1.25,0,0,1,.34.76ZM.71,74.43a12.92,12.92,0,0,0-.42,2.11A13.33,13.33,0,0,0,0,78.67a14.23,14.23,0,0,0,.17,2.14A14.42,14.42,0,0,0,.41,83a15.23,15.23,0,0,0,.94,2,17.38,17.38,0,0,0,1,1.87,16.13,16.13,0,0,0,1.11,1.87l0,0a1.05,1.05,0,0,1,.55-.42c1.24-.38,2,1.09,2.23,2a8.29,8.29,0,0,1,.16,1.08c.09.07.18.12.26.19a8.15,8.15,0,0,1,.72.72c.1,0,.22,0,.32.09.47.18.48.34.28.49.08.07.15.16.24.23.57.44,1.15.87,1.75,1.28a11.48,11.48,0,0,0,1.32.75,7.67,7.67,0,0,0,.91.89c.21.17.45.33.68.49A4.74,4.74,0,0,1,14,96.21a19.69,19.69,0,0,1,2.18,0c.59,0,1.59-.47,2.14-.33A3,3,0,0,1,16,98.56l.11.07c.64.42,1.21,1,1.87,1.37s1.45.59,2.12,1l.64.37a1,1,0,0,1,.06-.66c.32-.45,1.09,0,1.31.31s.48.93-.19.94l.25-.29-.1-.14a2.83,2.83,0,0,0-.38.39l.41.23a8.17,8.17,0,0,1,.85.54l0,0c.39-.46,1.07-.27,1.53-.64s.82-.61,1.57-.23c0,.12-.07.15-.21.1l-.12.25a.05.05,0,0,1,0,0c0,.27-.24.38-.33.63l.29-.61c-.62.18-.91.93-1.45,1.29l-.05,0c.68.28,1.41.39,2,.66s1.49.55,2.17.78L29,105a.69.69,0,0,1-.27-.17c-.37-.47-.19-1.41.49-1.42a.75.75,0,0,1,.72.44.57.57,0,0,1,.34.59,1,1,0,0,1-1.05.63,13.69,13.69,0,0,0,1.45.41,3.93,3.93,0,0,0,2.26.09c.54-.3.61-1,.56-1.78a2.87,2.87,0,0,1-.35.64c-.25.26-1,.65-1.26.25s.45-1,.68-1.3a11.14,11.14,0,0,0,.84-1,4.58,4.58,0,0,0-.2-1,21.7,21.7,0,0,0-.81-2c-.3-.65-.58-1.35-.94-2s-.75-1.29-1.14-1.9v0l-.15.45a.22.22,0,0,1,.11,0c0,.08,0,.1-.14.06l0-.07L30,96c-.13.25-.27.49-.4.73a2.82,2.82,0,0,1-.62.83c-.14.12-.48.38-.67.32a1.48,1.48,0,0,1,.51-1.15c.24-.17.51-.3.75-.46A2.13,2.13,0,0,1,30,96c.1-.17.18-.34.26-.51-.39-.63-.81-1.23-1.21-1.78a10.39,10.39,0,0,0-1.2-1.26.87.87,0,0,1-.45.28c-1,.24-1.55-.62-1.63-1.5A1,1,0,0,1,26.58,90c-.08-.28-.17-.56-.25-.84-.18-.7-.29-1.42-.51-2.09a.25.25,0,0,0,0-.09.08.08,0,0,1,0,0,10.06,10.06,0,0,1-.63.83A17.55,17.55,0,0,0,24,89.68c-.38.75-.91,1.36-1.3,2.1-.22-.11-.14-1.45-.07-1.81a11.44,11.44,0,0,0,.48-1.71c0-.24-.18-.37-.17-.61a3.78,3.78,0,0,1,.23-.86,3.49,3.49,0,0,0,.11-1.62c-.11-1.09-.19-2.27-.26-3.32,0-.18-.07-.59-.12-1.07-.35-.45-.74-.87-1.06-1.33-.42-.61-.76-1.26-1.2-1.83s-1-1.09-1.44-1.64-.8-1.25-1.29-1.77-1-1.07-1.54-1.55-1.14-1-1.69-1.4a16.66,16.66,0,0,0-1.91-1.07c-.57-.35-1.09-.75-1.63-1,.09.13.21.26.31.39.29.4.75.64,1,1,.4.56,0,1.18-.25,1.72l0-1.36a4.06,4.06,0,0,1-2.56-1.63,5.32,5.32,0,0,1-.45-.73l-.41-.07a6.74,6.74,0,0,0-2.19,0,6.18,6.18,0,0,0-2,.92c-.1-.51-.34-.94-.81-.84-.29.06-.52.55-.7.77a9.41,9.41,0,0,1-.91.88,3.74,3.74,0,0,0-.8,2.62A13.6,13.6,0,0,0,.71,74.43ZM30.29,99.19c.14-.24.44-.2.7-.06l0-.24.09,0a2,2,0,0,1,0,.23c.34.22.55.63,0,.84L31,99.33a.54.54,0,0,1-.36.41C30.27,99.82,30.1,99.49,30.29,99.19ZM19.88,93.61c.4-.11.91.34,1.07.66a.5.5,0,0,1-.1.66.89.89,0,0,1-.11.3,2.46,2.46,0,0,0-.33-.07h0a.89.89,0,0,1-.26-.09,1.38,1.38,0,0,1-.49-.58C19.5,94.15,19.42,93.74,19.88,93.61ZM19.12,80.2a1.55,1.55,0,0,1,1.37.94c.28.78-.23,1-.92.78l.05-.17a.15.15,0,0,1,0-.07C18.83,82.1,17.37,80,19.12,80.2ZM17.8,78.72a.89.89,0,0,1,1-1.21.77.77,0,0,1,.39.23l.15-.44c.56.13.25,1.08.05,1.38h0a.39.39,0,0,1-.17.21C18.77,79.32,18.05,79.47,17.8,78.72ZM12.65,93.9a.57.57,0,0,1,1-.16,1.2,1.2,0,0,1,.21.56.65.65,0,0,1,0,.22.88.88,0,0,0,.23,0c-.09.34-.69.5-1,.45C12.6,94.88,12.49,94.32,12.65,93.9ZM1.78,76.39a3.81,3.81,0,0,0-.3-.83c-.21-.39-.82-1.24.06-1.31h0a.38.38,0,0,0,.44.14s.06,0,.1,0c.93.41.44,2.15-.34,2a3.29,3.29,0,0,1,.09,1c-.1-.31-.71-.2-.95.16a1,1,0,0,0,.57-.17.91.91,0,0,1-.26.75c-.44.28-.49-.21-.37-.5l.06-.08h0l.25-1.69A.94.94,0,0,0,1.78,76.39ZM104,53.5a1.51,1.51,0,0,0-1.22.21c-.4.6-.83,1.16-1.27,1.74-.16.19-.53.85-.19,1.06s.64-.51.79-.68a9.13,9.13,0,0,1,.86-.64c.4-.32.84-.57,1.23-.89S104.43,53.64,104,53.5Zm-1.24.22h0a2.75,2.75,0,0,0,.19-.28l-.18.22Zm-1.61-37.8a2.16,2.16,0,0,1-.21-.29l-.06.25C101,15.84,101.11,15.83,101.12,15.92Zm19.4-1.31.1-.13c.06-.41.11-.82.17-1.21.12-.74-.07-1.5,0-2.19s.28-1.46.27-2.15a15.51,15.51,0,0,0-.29-2.15,10.56,10.56,0,0,0-.49-2.08,7.28,7.28,0,0,0-1-1.89,5.93,5.93,0,0,0-1.38-1.67,6.65,6.65,0,0,0-2-.71,11.1,11.1,0,0,0-2.31-.4,7.68,7.68,0,0,0-2.36.12,7.53,7.53,0,0,0-2.14,1,10.7,10.7,0,0,0-1.62,1.71,15.49,15.49,0,0,0-1.53,1.77c-.38.56-.89,1.12-1.28,1.79l-.26-.08c-.56-.18-1.31-.46-1.53.34-.16.58.47.93.51,1.49a2.75,2.75,0,0,0,.06,1,.71.71,0,0,0,.07.09c-.21.55-.4,1.12-.64,1.72-.1.25-.2.54-.29.8.58.34.59,1.48.49,2.08a2.69,2.69,0,0,1-1.54,2.23l-.08.13-.22.14-.11,0c.49.59-.2,1.77-.69,1.59-.09.57-.13,1.16-.2,1.76s-.14,1.45-.17,2.19c0,.57-.13,1.13-.19,1.7a5.85,5.85,0,0,0,1.69,1.92c.8.62,1.58,1.25,2.37,1.87s1.82,1.18,2.66,1.86.08.86-.7.81a6,6,0,0,1-3.29-1.1,24.29,24.29,0,0,0-2.39-1.9c0,.48.05,1,.11,1.44,0,.06,0,.11,0,.17a5.83,5.83,0,0,0-.23.58c-.18.56-.36,1.15-.51,1.77a1,1,0,0,1,.5.09c.8.39-.53,1.69-.77,2l.32-1.25a2.43,2.43,0,0,1-.37.91c0,.25-.1.49-.13.75-.08.71.15,1.47.11,2.2S99,37.16,99,37.88s.19,1.47.26,2.18.22,1.47.33,2.15a17.64,17.64,0,0,0,.42,2.14,9.44,9.44,0,0,0,.81,2c.44.81.86,1.38,1.45,1.48a3,3,0,0,0,2-.84A11.23,11.23,0,0,0,106,45.53a21.23,21.23,0,0,0,1.47-1.69c.21-.27.4-.56.59-.86-.7.14-1.76-.41-1.15-1.48.52-.88,1.51-.27,1.8.48h0c.41-.62.77-1.28,1.15-1.93s.77-1.3,1.1-2a4.69,4.69,0,0,1,.35-.58c-.12.09-.29.05-.47-.17a1.85,1.85,0,0,1-.21-1.55.52.52,0,0,1,.83-.23c.43.34.14.91.06,1.34l-.07.26a.72.72,0,0,1,0,.22,8.45,8.45,0,0,0,.77-1.21,22.21,22.21,0,0,0,.76-2.13c.17-.53.33-1,.48-1.56a1.54,1.54,0,0,1-.92-1.8,4,4,0,0,1,2.18-2.55c.48-.31.93-.64,1.39-1,.23-.5.44-1,.68-1.47.35-.68.78-1.29,1.06-1.95s.64-1.39.85-2,.29-1.11.42-1.65.28-.89.07-1.22c0-.07-.24-.07-.27-.15s0-.29.07-.43.3-.71.07-.84a6.78,6.78,0,0,1-1.19,1.37c.19-.5.19-1.12.41-1.59s1-.91,1.33-1.3A10.35,10.35,0,0,0,120.52,14.61ZM101.11,42.53c-1,.24-1.56-.62-1.64-1.5s.59-1.5,1.43-1.06a2,2,0,0,1,.79,1,.9.9,0,0,1,.06.57l.22-.29C101.86,41.77,101.73,42.38,101.11,42.53Zm1.57-21,.21-.79a.25.25,0,0,0-.17,0c0,.06,0,.13,0,.18-.09.28-.37,1.17-.66,1.3a1.72,1.72,0,0,1,.61-1.46.15.15,0,0,1,.09,0c0-.31.08-.67.39-.79,0,.15-.09.29-.13.44l-.09.37C103.18,20.87,103.16,21.58,102.68,21.51Zm5.43-16.84a.79.79,0,0,1,.16.27h0V5c.13.31-.09.53-.47.61a.34.34,0,0,1-.27.15c-.43,0-.21-.88-.14-1.11C107.53,4.21,107.87,4.42,108.11,4.67Zm2.11-.45,0-.31c-.37.4-1,.16-1.33-.26a1,1,0,0,1-.2-.93c.11-.25.57-.32.82-.28a1.86,1.86,0,0,1,.88.47.36.36,0,0,1,.13.11s0,0,0,0v0C110.71,3.48,110.4,3.88,110.22,4.22ZM104.9,38.67c-.62.42-1.39.65-1.43-.32a1.77,1.77,0,0,1,1.61-1.81c.74,0,1.56.08,1.07,1l.55-.63.09-.32C106.86,37.32,105.48,38.27,104.9,38.67Zm5.18-6.24c.13.32-.09.54-.46.62a.34.34,0,0,1-.27.15c-.44-.05-.22-.89-.14-1.11.13-.39.47-.18.7.06a.78.78,0,0,1,.17.28l0,0Zm6.57-9.6a1,1,0,0,1,.17.28v0c.13.32-.09.54-.47.62a.33.33,0,0,1-.27.14c-.43,0-.21-.88-.13-1.11C116.07,22.37,116.41,22.59,116.65,22.83ZM101.11,54a5,5,0,0,1,1.54-2.17,17.47,17.47,0,0,1,1.83-1.2,2.31,2.31,0,0,0-1.13-.55A7,7,0,0,1,100.6,49a3.37,3.37,0,0,0-2.32-1c-.86.12-1,1-1,1.71a25.72,25.72,0,0,1,.12,2.63,4.92,4.92,0,0,0,0,2.5,1.81,1.81,0,0,0,2.09.82A2.28,2.28,0,0,0,101.11,54Zm-20.73-.32c.37-.45.78-1.22-.07-1.39a1,1,0,0,0-.88.19l.1-.16a.8.8,0,0,0-.37-.08c-.23,1.27-1.26,2-1.7,3.23a2.87,2.87,0,0,0-.26,1.84c.28.71.66-.17.76-.49a3.18,3.18,0,0,1,.82-1.53C79.31,54.79,79.89,54.3,80.38,53.72Zm-6.31,4.83a3,3,0,0,0,0-.87c-.17-.27-.37-.55-.66-.44s-.31.77-.18,1S73.9,59.23,74.07,58.55ZM86.37,26c.18-.63.18-1.39.37-2.13s.54-1.32.7-2.05.08-1.44.2-2.16.4-1.39.48-2.11a12.27,12.27,0,0,0,0-1.36A4.59,4.59,0,0,0,87,17c-.29.31-.44.95-.92,1s-.91-.51-1.13.26c.58.19.86.67,1.25,1.09s.37,1-.41.69a2.16,2.16,0,0,1-1-3.19c.29-.39.86-.31,1.27-.5a3.92,3.92,0,0,0,.86-.55c.21-.18.26-.41.43-.61a1.44,1.44,0,0,1,.91-.4c0-.52,0-1,0-1.55A16.12,16.12,0,0,0,88,11.07,11.42,11.42,0,0,0,87.49,9a7.53,7.53,0,0,0-1.22-1.77,5.78,5.78,0,0,0-1.49-1.51,6.47,6.47,0,0,0-2-.81,10,10,0,0,0-2.14-.28,6.59,6.59,0,0,0-2.12.22,6.23,6.23,0,0,0-2,.71A5.42,5.42,0,0,0,75.31,7a.78.78,0,0,1,.32.3l0-.17h0V6.92l0,.17c1.31.35,1.68,2.36,1.13,3.49a1.36,1.36,0,0,1-1.52.7c-.54-.15-.63-.78-1-1.14a2.58,2.58,0,0,1-.59-.6c-.17.47-.32,1-.51,1.45s-.52,1.12-.74,1.71q.33.41.63.81l0,0a1.49,1.49,0,0,1,.75,1.3c-.08.47-.58.4-.91.21a4.83,4.83,0,0,1-.82-.81l0-.05c-.06.34-.12.67-.2,1-.16.7-.27,1.42-.4,2.14s-.26,1.43-.37,2.15a20.66,20.66,0,0,0-.35,2.29,15.46,15.46,0,0,0,.14,1.9c.12.26.25.51.39.76A14.32,14.32,0,0,1,72,25.82a8.66,8.66,0,0,0,.8,1.68c.33.43.59.93.92,1.35a2.67,2.67,0,0,0,1.63.78,10.27,10.27,0,0,1,1.85.49,2.62,2.62,0,0,0,1.56.48,5.06,5.06,0,0,1-5,.34c-.72-.33-1.4-.69-2.14-1,.09.29.19.58.26.87l.18.61c0,.49,0,1-.1,1.49a18.46,18.46,0,0,0-.24,2.17,20.41,20.41,0,0,0,.1,2.19c.06.72.09,1.46.21,2.18s.43,1.42.61,2.12.43,1.42.66,2.08.32,1.45.59,2.06a.9.9,0,0,1,1-.06,1.93,1.93,0,0,1,.8,1,1,1,0,0,1,.06.58l.22-.3a2,2,0,0,1-.47,1.1,1.86,1.86,0,0,0,1.33.76c.6,0,1.14-.49,1.7-1.27a11.55,11.55,0,0,0,1.12-1.94c.3-.65.62-1.34.89-2.06s.47-1.45.69-2.15c.12-.37.23-.73.34-1.08-.52.78-.94,2-1.21,2.3s-1,.65-1.26.25.45-1.05.69-1.3a12.16,12.16,0,0,0,1.52-2,9.17,9.17,0,0,1,.82-1.24v0c.18-.54.35-1,.42-1.3.14-.61.13-1.34.24-2.08a7,7,0,0,0,.47-.78c.27-.58.52-1.18.76-1.77a3.76,3.76,0,0,1-2,.14c-.92-.41,1.25-2.07,1.56-2.42a5.53,5.53,0,0,1,1.53-1.32l.18-.1c.08-.23.17-.47.24-.68s.07-.18.1-.28a1,1,0,0,1-.39.21s0,0,0,0c-.66.43-.45-.78-.33-1s.77-1.07,1-.32a1.36,1.36,0,0,1,0,.42C86.14,26.63,86.29,26.27,86.37,26ZM73.76,35.14c.13.32-.08.54-.46.62a.34.34,0,0,1-.27.15c-.44,0-.22-.88-.14-1.11.13-.39.47-.18.7.07a.84.84,0,0,1,.17.27h0ZM72.44,21.32c-.53,0-.65-.43-.53-.89.08-.29.55-.76.85-.4s-.54.84-.84.91l1.14-.19A.61.61,0,0,1,72.44,21.32Zm4,19.55c.8.39-.53,1.68-.77,2L76,41.61a1.87,1.87,0,0,1-.6,1.13c-.64.47-.46-.82-.39-1.12A1,1,0,0,1,76.44,40.87Zm3.9-7.45a.94.94,0,0,1-1.55.4c-.37-.47-.19-1.41.49-1.42a.75.75,0,0,1,.72.44A.55.55,0,0,1,80.34,33.42ZM71.72,47.48c.08.39.27,1,.77.69a.92.92,0,0,0,.34-.6C73.08,46.65,71.53,46.49,71.72,47.48Zm9.72-1.37a1.77,1.77,0,0,0,.32-.81c0-.22-.19-.52-.44-.39s-.32.48-.41.66-.16.48-.3.7a4.32,4.32,0,0,0-.46.71c-.1.24-.2.48-.28.72-.15.42-.75,1-.57,1.43a4.27,4.27,0,0,1,.49-.71c.24-.27.66-.32.82-.68.07-.16.1-.33.17-.47a2.08,2.08,0,0,1,.24-.34,3,3,0,0,0,.34-.53c.07-.15.1-.27.17-.39Zm-7.8,8.2a6,6,0,0,0,.88,1.8c.4.49,1.06,1,1.68.55s.85-1.51,1-2.23a6.6,6.6,0,0,1,1-2.45c.53-.73,1.12-1.42,1.64-2.15l-.12-.21a5,5,0,0,1-2.48,1.13,7.15,7.15,0,0,1-2.5-.71c-.62-.21-1.49-.44-1.92.22a2.67,2.67,0,0,0,.06,2.21C73.13,53.1,73.41,53.69,73.64,54.31Zm8-8.43a.26.26,0,0,0-.08.13l0-.07ZM74,57.51a.29.29,0,0,1,.08.17,3,3,0,0,0,.24.39Zm59.74,31.64,0,0a.61.61,0,0,1,0,.14Zm-97.6,17.41c.3-.09.89-.23.8-.65s-.49-.62-.62-1c-.2-.53,0-2.15-1.1-1.55a1.77,1.77,0,0,0-.7,1.16,3.21,3.21,0,0,1-.12.33c-.16.1-.17.3-.21.47a.85.85,0,0,1-.21.37,7.85,7.85,0,0,1-.56.73c-.23.22-.4.29-.45.66s0,.29.21.48.13.21.22.25c.4-.25.79-.53,1.21-.75A9.23,9.23,0,0,1,36.15,106.56ZM122.4,64c.13-.16.27-.24.23-.36Zm-4-3.45c-.68.28-1.35.58-1.51,1.36s0,1.51-.13,2.26-.4,1.43-.55,2.16c-.09.43-.44,1.63,0,2,.65.61,2.62-1.62,3-2.1a6.33,6.33,0,0,1,3.43-2.64.44.44,0,0,0-.07-.09c-.2-.17-.62-.08-.84-.08a2.06,2.06,0,0,1-1.49-.6c-.18-.19-.31-.45-.56-.57s-.41-.07-.58-.29A4.12,4.12,0,0,1,118.4,60.53ZM95.46,54.69a2.67,2.67,0,0,0,.35,1.23c.36.37.53-.51.42-.76l-.07,0c-.18-.3,0-.5,0-.8s-.3-.71-.51-.74C95.21,53.53,95.43,54.45,95.46,54.69ZM145.9,28.83c.21-.75.65-1.41.79-2.1a19.6,19.6,0,0,0,.12-2.24,13.9,13.9,0,0,0,.06-2.21,10.14,10.14,0,0,0-.25-2.23,6.44,6.44,0,0,0-1.21-1.85A6,6,0,0,0,144,16.49a7.13,7.13,0,0,0-2.18-.68,5.89,5.89,0,0,0-2.21-.1,7.24,7.24,0,0,0-2.25.35,10.13,10.13,0,0,0-1.9,1.29,15.05,15.05,0,0,0-1.63,1.58,20.44,20.44,0,0,0-1.6,1.62c-.18.23-.34.48-.5.73.6-.27,1.68.18,1.61.92h-.17l-.51.45c-.41,0-1.23.94-1.49,1.26s-.59.89-.93,1.38a2.77,2.77,0,0,1-.92.8c-.08.17-.17.33-.25.49-.31.69-.68,1.35-1,2.06s-.65,1.38-.9,2.12-.52,1.44-.74,2.18-.36,1.5-.54,2.24-.28,1.35-.41,2c.19.59.37,1.18.51,1.78a5.66,5.66,0,0,0,.68,2.14c.49.69,1.32,1.17,1.71,1.94s-.72.47-1.14.24a5.84,5.84,0,0,1-2.11-2c-.12-.2-.26-.35-.39-.53-.22.38-.45.75-.65,1.14-.32.63-.76,1.21-1,1.86s-.35,1.45-.62,2.16-.6,1.36-.82,2.07-.47,1.42-.67,2.14-.39,1.45-.54,2.17-.16,1.51-.27,2.22-.33,1.51-.38,2.19a11.84,11.84,0,0,0,0,2.24,2.6,2.6,0,0,0,.86,2,2.7,2.7,0,0,0,2.28.17,9,9,0,0,0,2-1.19,15.68,15.68,0,0,0,1.92-1.34c.05,0,.1-.1.15-.15-1.4-.94-.07-3.74.16-5a2.71,2.71,0,0,0,0,.75c0,.32.06.64.08,1s-.07.61.21.82.61.07.88,0,.65-.16.92-.21l.58-.8c.46-.6.85-1.27,1.3-1.93s.9-1.26,1.3-2,.82-1.21,1.17-1.87a2.28,2.28,0,0,1-.64-.51c-.38-.43-.69-1.13-.2-1.59s1.37-.43,2-.53a5.63,5.63,0,0,0,1.61-.52c.43-.43.89-.85,1.31-1.34s.8-1.1,1.21-1.66a2,2,0,0,1-.46-1.16c-.08-.82.59-1.5,1.42-1.06a1.55,1.55,0,0,1,.28.24.41.41,0,0,1,.07-.11c.41-.62,1.1-1.07,1.5-1.72s.59-1.39,1-2.07.81-1.27,1.13-2,.62-1.4.89-2.06.62-1.41.86-2.09S145.7,29.52,145.9,28.83ZM128.24,36.3c0,.18-.26.37-.4.41a.73.73,0,0,1-.77-.18l-.35-.12.2,0a1.42,1.42,0,0,1-.33-.82c0-.76.7-.36.93,0a1.82,1.82,0,0,1,.2.61h0C127.89,36.16,128.22,36.07,128.24,36.3Zm.37,2.67-.25-.07a1,1,0,0,1-.8-.1c-.23-.15-.66-.93-.28-1.18s1,.24,1.14.5c.28.43.19.82-.38.7l.32.08a.55.55,0,0,0,.18-.13A.35.35,0,0,0,128.61,39Zm.69,9.18-.05-.67a.51.51,0,0,1-.36.41c-.37.08-.53-.25-.35-.55s.45-.21.7-.06l0-.24.09,0a.93.93,0,0,1,0,.23C129.64,47.53,129.84,47.94,129.3,48.15Zm13.41-12.76a.61.61,0,0,0-.07.14l-.23.13-.11,0c.61.74-.6,2.41-1,1.21a2,2,0,0,1,.23-1.39c.15-.15.74-.45.76-.23-1-1.05-.83-3.86.85-4.21,1.2-.26,1.23,1.4,1.1,2.16A2.67,2.67,0,0,1,142.71,35.39Zm-5.57,51.17a18.9,18.9,0,0,0,2.06-1l.47-.23a1.57,1.57,0,0,1-1.13-1.52c-.07-.82.59-1.5,1.43-1.06a2,2,0,0,1,.79,1,1,1,0,0,1,.06.57l.22-.29a4.16,4.16,0,0,1-.21.71l.39-.21c.74-.49,1.36-1,1.83-1.35s1.1-1.07,1.64-1.57,1.13-1,1.62-1.58c.23-.25.47-.49.7-.73a.55.55,0,0,1-.47.12c-.21-.09-.14-.27-.11-.47,0-.42.42-1.74,1.1-1.35.23.14.28.56.26.81,0,0,0,0,.05-.05a17.91,17.91,0,0,0,1.11-2c.07-.13.14-.24.22-.36l-.2-.18c-.26-.26-.64-.59-.57-1s.71-.71,1.15-.79.74-.23,1.11-.32a1.54,1.54,0,0,1,.37,0l.86-.55c.69-.41,1.27-.82,1.73-1.15.66-.48,1.28-1,1.87-1.45.09-.08.2-.15.3-.23l-.15.08.13-.09a.58.58,0,0,1-.19-.16,2,2,0,0,1-.27-1.31c.15-.82,1.31-.54,1.71,0a.47.47,0,0,1,.12.46l.17-.13s0,0,0,0l.05,0c.58-.58,1.14-1.15,1.63-1.73a20.12,20.12,0,0,0,1.25-2,15.84,15.84,0,0,0,1.27-2,12.28,12.28,0,0,0,.75-2.24,9,9,0,0,0,.17-2.35,7.11,7.11,0,0,0-.3-2.32A6.7,6.7,0,0,0,161,54.42a6.33,6.33,0,0,0-1.72-1.32,5,5,0,0,0-2-.75,5.93,5.93,0,0,0-2.16.17,9.59,9.59,0,0,0-2,.86l-.71.41a3.58,3.58,0,0,1-.29,1h-.05a12,12,0,0,1-.75,1.53c-.17.3-.35.59-.52.88a3.94,3.94,0,0,1-.69.78c-.53-.35.2-1.22-.12-1.73,0-.06-.25-.06-.27-.14a.48.48,0,0,1,0-.35l-.18.16c-.5.48-1,1.06-1.45,1.62s-.92,1.21-1.41,1.87-1,1.2-1.41,1.88-.81,1.32-1.21,2c-.16.25-.29.52-.43.79a6.13,6.13,0,0,0-.47,3,13.07,13.07,0,0,0,1.37,2.62,11,11,0,0,0,.81,1.35,2.86,2.86,0,0,1,.49,1.52,1.8,1.8,0,0,1-2-1,5.41,5.41,0,0,0-1.63-1.67,7.58,7.58,0,0,1-1.11-.91c-.07.19-.16.38-.24.56s-.06.23-.1.34c-.19.2-.38.39-.56.61l-.74.89.11.1c.09.11.19.21.27.32l0,0a.31.31,0,0,1,.18.37,1.11,1.11,0,0,1,.13.7c-.13.78-.91.7-1.55.73l.15-.22a1.37,1.37,0,0,1-.64-.08l-.62.95c-.4.64-.93,1.22-1.32,1.88s-.7,1.38-1.05,2-.5,1.2-.74,1.79l.08.06a1.26,1.26,0,0,1,.2.56.42.42,0,0,1,0,.21.6.6,0,0,0,.23,0c-.08.33-.68.49-1,.44l-.06,0c-.18.41-.35.8-.5,1.18a21,21,0,0,0-.78,2.16,2.72,2.72,0,0,0,.19,2.23,2.3,2.3,0,0,0,2.12.44A9.39,9.39,0,0,0,137.14,86.56Zm-2.52-2.31-.34-.58c-.16.64-.48,1.82-1.3,1.84,0-.25.35-.69.48-.89s.29-.72.51-1,.38-.6.66-.25C134.78,83.52,134.67,84,134.62,84.25Zm4.28-6.8c0,.18-.26.36-.4.41a.74.74,0,0,1-.77-.18l-.35-.12.2,0a1.52,1.52,0,0,1-.33-.82c0-.76.7-.36.93,0a1.82,1.82,0,0,1,.2.61h0C138.55,77.31,138.88,77.22,138.9,77.45Zm8.79-16,0-.68a.52.52,0,0,1-.36.41c-.37.08-.54-.25-.36-.55s.45-.21.7-.06v-.24l.09,0a2,2,0,0,1,0,.23C148,60.86,148.23,61.27,147.69,61.49Zm8.84,4.95c.12-.25.58-.31.82-.28a1.79,1.79,0,0,1,.88.48.21.21,0,0,1,.13.11v0a0,0,0,0,1,0,0c.22.39-.08.8-.27,1.14l0-.31c-.37.4-1,.15-1.32-.27A1,1,0,0,1,156.53,66.44Zm-12.79,9c.3-.38,1.24.11,1.44.4.42.61,0,.81-.46,1.1l.13-.49h-.14C144.34,76.44,143.33,76,143.74,75.43ZM132.3,101.56l.06.06c0-.06,0-.11-.05-.17A.41.41,0,0,0,132.3,101.56Zm-94.55,8.61c-.17.72.3,1.59.17,2.34s-.81,1.42-.88,2.17,0,1.53,0,2.29.15,1.52.2,2.27c0,.09,0,.18,0,.27.4-.83,1-1.62,1.67-.91l.33.56s0,0,.06.09v0h0a9.91,9.91,0,0,1-.91,2.83c-.15.3-.31.61-.45.9a2.25,2.25,0,0,1,.27.67c.15.74-.25,1.61-.06,2.34s.93,1.3,1.18,2,0,1.63.26,2.33.77,1.32,1.12,2,1,1.17,1.38,1.83a10.44,10.44,0,0,1,.54,1.17c.33-.4.71-.83.6-1.29-.17-.76-1.12-.37-1.55-.78s-.15-1.39.19-1.67,1.36-.11,1.83.12c.73.35.94.85.76,1.44a2.48,2.48,0,0,1,.08.49,3.18,3.18,0,0,1-.08,1.34c-.16.6-.45,1.12-.65,1.72a2.23,2.23,0,0,1-.21.44,8.12,8.12,0,0,0,.65,1.06c.47.58,1.54.66,2.06,1.23s.5,1.65,1,2.15,1.14,1.06,1.67,1.53,1.63.42,2.2.85.77,1.59,1.37,2,1.62.25,2.26.54a17.45,17.45,0,0,0,2,.95,18.91,18.91,0,0,0,2.21.38c.73.1,1.45.51,2.2.56s1.48.12,2.24.14,1.48-.41,2.25-.37,1.43.44,2.2.51,1.49-.28,2.26-.17a15.52,15.52,0,0,1,1.81.56l1.72-.6a7.74,7.74,0,0,0,2.42-1.12A7.6,7.6,0,0,0,77.83,145a39.72,39.72,0,0,0,2.3-5.89c-.25.43.07,1.23.1,1.69,0,.63,0,1.22,0,1.83,0,1.33-.67,2.27-1,3.51a14.13,14.13,0,0,1-1.8,3.55c-.14.24-.26.48-.38.72.51.18,1,.35,1.52.58l0,0a2.94,2.94,0,0,1,.73-1.8,9.56,9.56,0,0,0,.91-.89c.18-.21.41-.71.71-.77.7-.14.91.9.83,1.6.05.46.1.93.36,1l-.06.2c0,.13-.09.29-.1.44s.23.71-.17.63l.27-1.07c0-.1,0-.18-.09-.24a11.69,11.69,0,0,0-.69,2.45l1.09.52c.66.31,1.51.2,2.18.5s1.1,1.12,1.78,1.4,1.47.21,2.16.45,1.34.59,2,.78,1.44.2,2.16.33a19.36,19.36,0,0,0,2.12.54c.77.06,1.52.11,2.26.1s1.57.31,2.3.22a1.74,1.74,0,0,0,.76-.37,1.52,1.52,0,0,1-.88-1.75c.3-1.17,1.81-.6,2.37,0l.27.32,0,0a.32.32,0,0,1,.18.38,1.18,1.18,0,0,1,.07.2,4.16,4.16,0,0,0,1.58-.06c.7-.26,1.21-.95,1.89-1.3s1.62-.19,2.26-.6.8-1.44,1.4-1.91,1.41-.63,2-1.16a.1.1,0,0,1,0,0,1,1,0,0,1-.46-.87,5.28,5.28,0,0,1,.84-1.84c.3-.49,1.13-1.12,1-1.77s-1.12-.38-1.55-.78-.14-1.39.2-1.67,1.36-.12,1.82.11c.72.36.94.85.76,1.45a3.43,3.43,0,0,1,.09.49,3.31,3.31,0,0,1-.09,1.33,8.6,8.6,0,0,1-.42,1.14,4,4,0,0,0,.94-.79c.45-.57.7-1.33,1.14-2s.51-1.43.92-2.09,1.27-1,1.64-1.65.13-1.6.48-2.29,1.12-1.11,1.44-1.8c.07-.15.16-.3.24-.44.42,1,1.53-.58.94-1.3l.11,0,.23-.13.07-.14a2.66,2.66,0,0,0,1.54-2.23c.12-.7.1-2.15-.85-2.17a3.79,3.79,0,0,1,.73-1c-.37-.05-.45-.55-.46-.91,0-1,0-2.54.81-3.26a10.9,10.9,0,0,0,.91-.89c.18-.21.41-.71.7-.77a.59.59,0,0,1,.68.43c.24-.52.49-1,.72-1.52a8.2,8.2,0,0,1,.61-1c.24.42.58.83.93.78,0-.2-.2-.22-.23-.41-.05-.34.1-.17.2-.38s.34-.68.51-1a10.09,10.09,0,0,0,.91-2.84h0l0,0a.11.11,0,0,0,0-.09l-.15-.26c.12-.22.24-.44.34-.66.24-.5.5-1,.74-1.43h0a1.22,1.22,0,0,1-1.08-1.15,5.49,5.49,0,0,1,.85-1.84c.29-.5,1.13-1.12,1-1.78s-1.12-.37-1.55-.77a1.53,1.53,0,0,1,.19-1.68c.45-.36,1.36-.11,1.82.12a1.21,1.21,0,0,1,.82,1,3.66,3.66,0,0,0,.3-.88,12.79,12.79,0,0,0,0-2.23c0-.71.09-1.42.09-2.13s.05-1.43.05-2.13a3,3,0,0,0-.18-.81.54.54,0,0,1-.26.18l0-.67a.54.54,0,0,1-.36.41c-.37.08-.54-.25-.36-.55s.45-.21.7-.07v-.23l.05,0a2.7,2.7,0,0,1-.08-.39,20.48,20.48,0,0,0-.19-2.1,16.66,16.66,0,0,0-.47-2c-.2-.68,0-1.52-.29-2.15A9.81,9.81,0,0,0,130,92.87a10.88,10.88,0,0,0-1.54-1.48c-.67-.58-1.53-.8-2-1.28s-1-1.37-1.5-1.88S124,87,123.51,86.35s-.93-1.17-1.44-1.86-1.36-.86-1.87-1.59-.74-1.3-1.09-1.8c-.45-.67-.37-1.57-.76-2a8.81,8.81,0,0,0-1.64-1.39,13.46,13.46,0,0,0-1.82-1.08c-.53-.28-1.13-.65-1.86-1s-1.75-.12-2.27-.37-1.17-.64-2-1c-.51-.25-1.11-.59-2-1-.56-.27-1-1-1.78-1.41s-1.48-.7-2.07-1c-.78-.45-1.44-.78-2-1.16s-1.26-.89-2-1.26a12.69,12.69,0,0,0-2.13-1c-.63-.2-1.47,0-2.35-.21s-1.5-.73-2.12-.83a13,13,0,0,0-2.26-.07c-.86,0-1.49.48-2.24.48s-1.23-.67-2.16-.86c-.69-.15-1.57.15-2.25-.2s-.92-1.26-1.6-1.62a21.77,21.77,0,0,0-2.1-.66,12.6,12.6,0,0,0-2.07-.63,12.34,12.34,0,0,0-2.16-.35,15.41,15.41,0,0,0-2.2-.1c-.67.06-1.35.53-2.11.69a15,15,0,0,0-2.19.39,12.38,12.38,0,0,0-2.13.77,2.19,2.19,0,0,0-.61.64c0,.19.12.33.25.38l-.05.2c0,.14-.09.3-.1.44s.23.71-.18.63l.28-1.07a.21.21,0,0,0-.09-.24,37.65,37.65,0,0,0-1.06,4c-.21.65-.42.37-.5-.18,0-.35-.07-1.34-.37-1.54-.12.33-.53.94-.89,1,0,0,0,0-.08,0a5.51,5.51,0,0,1-.28,1.23,16.22,16.22,0,0,0-.94,2c-.21.69-.54,1.36-.7,2.09s-.49,1.4-.61,2.13-.19,1.45-.3,2.18.16,1.51,0,2.24-.06,1.49-.19,2.2a4.56,4.56,0,0,1-.28.81l.08.13c.56.67,1.36,1.19,2,1.85.33.36.62.76.93,1.14.46.12.88.45.87.9l.1.09c.32.24.63.44.93.69a7.76,7.76,0,0,0,1,.6,9.39,9.39,0,0,0,2,1.35,24,24,0,0,0,2.41,1.11,19.81,19.81,0,0,1,1.95,1,6.73,6.73,0,0,1,1,.48c.28.14.72.27.81.62a22.66,22.66,0,0,1-5.85-1.32,9.21,9.21,0,0,1-2.57-1.37c-.67-.54-1.18-1.22-1.79-1.8a7.14,7.14,0,0,0-1-.76A6,6,0,0,0,62,89.1c-.37.47-.6.9-.94,1.38a3.06,3.06,0,0,1-3.3,1.11c.31-.27.5-.69.81-1A8.56,8.56,0,0,1,60,89.8a3,3,0,0,0,1.34-1.67,3.44,3.44,0,0,1,.47-.91c-.69-.37-1.39-.7-2.08-1a2.68,2.68,0,0,1-.12.65c-.22.71-1,1.22-1.26,1.88a14.65,14.65,0,0,1-1.06,1.9c-.38.62-.32,1.58-.82,2.14l-.28.29a6,6,0,0,1,.79,1.44,41.84,41.84,0,0,0,2.24,4.62c.73,1.48,1.26,3,2,4.52a8.12,8.12,0,0,1,.86,2.18c0,.32,0,.6,0,.92a1.83,1.83,0,0,1-.13,1.3c-1.17-2.15-2.1-4.4-3.27-6.55-1.09-2-2-4.18-3.51-5.89-.3-.33-.64-.64-1-.95a12.27,12.27,0,0,0-1.41.66c-.63.42-1.3.71-1.91,1.06s-1.26.78-1.88,1.11-1.24.84-1.87,1.16-1.1.47-1.62.71h0l.28.32,0-.05A.3.3,0,0,1,46,100a1.11,1.11,0,0,1,.13.7c-.13.78-.91.7-1.55.73l.15-.22a1.46,1.46,0,0,1-1-.28s-.1.11-.16.16c-.58.43-1.46.51-2,1a12,12,0,0,0-1.22,1.84,13.51,13.51,0,0,0-.92,2c-.1.25-.18.51-.27.77a3.63,3.63,0,0,0,.63-.42c.21-.19.25-.41.42-.61.4-.47,1.08-.28,1.54-.65s.82-.6,1.57-.23c0,.12-.07.15-.21.1l-.12.25,0,0c0,.28-.24.39-.33.63l.29-.61c-.62.18-.91.94-1.45,1.3a8.58,8.58,0,0,0-1.63,1c-.3.31-.44,1-.92,1a.93.93,0,0,1-.44-.07,5.6,5.6,0,0,1-.27.55,6.86,6.86,0,0,1,.83.87c.47.5.37,1-.41.69a2.27,2.27,0,0,1-.84-.63A1.66,1.66,0,0,0,37.75,110.17Zm83.48,25.68a.47.47,0,0,1,.06.09s0,0-.07-.05A.08.08,0,0,0,121.23,135.85Zm4.89-22.61c.13-.38.47-.17.7.08a.81.81,0,0,1,.17.27c.13.32-.09.54-.46.62-.09.09-.17.16-.27.15C125.82,114.31,126,113.48,126.12,113.24Zm3.07-16.09a7.91,7.91,0,0,1,1-2c.11-.18.3-.82.57-.46s0,.65,0,.94l.09,0-.12,0a.62.62,0,0,0,0-.1l-.34-.18c.48.63,0,1.51-.52,1.94-.13.1-.5.5-.7.42S129.15,97.31,129.19,97.15Zm-10.71,36c.12-.4.46-.18.7.06a1,1,0,0,1,.17.28c.13.32-.09.54-.46.62-.09.09-.17.16-.28.14C118.18,134.18,118.4,133.34,118.48,133.12Zm-1.81,5.34c.26.15.29.61.27.86a1.14,1.14,0,0,1-.63.9l.06-.22c-.14.14-.49.37-.68.28s-.14-.27-.11-.47C115.63,139.39,116,138.07,116.67,138.46Zm-8.24,11.89a1.09,1.09,0,0,0,0-.17l0,.08Zm-1.75,2c.24-.17.5-.3.75-.46a2.11,2.11,0,0,1,.44-.27c.13-.24.26-.49.37-.75l-.25.73h.1c0,.08,0,.1-.13.07l0-.07-.12,0-.41.73a2.82,2.82,0,0,1-.62.83c-.14.12-.48.39-.67.32A1.51,1.51,0,0,1,106.68,152.39Zm-15-48.16c0,.18-.18.59-.38.64a1.53,1.53,0,0,1-.21-1.24c.11-.27.26-.52.37-.8a3.09,3.09,0,0,1,.22-.46c0-.27,0-.54-.09-.8l.18.71.09-.06c0,.07,0,.11-.07.13l0-.07a.38.38,0,0,0-.09.09l.06.83A2.75,2.75,0,0,1,91.64,104.23Zm3.29,1.85c-.3.32-.44,1-.92,1s-.91-.52-1.13.26c.58.18.85.67,1.25,1.09s.37,1-.41.69a2.15,2.15,0,0,1-1-3.19c.29-.39.86-.31,1.27-.5a4.33,4.33,0,0,0,.86-.55c.2-.19.25-.42.42-.62.4-.46,1.08-.27,1.54-.64s.82-.61,1.57-.23c0,.12-.07.15-.21.1l-.12.24h0c0,.27-.24.38-.33.63l.29-.62c-.63.19-.91.94-1.45,1.3A9.11,9.11,0,0,0,94.93,106.08Zm-10.8,29.71a11.63,11.63,0,0,0,1.52-2,8.65,8.65,0,0,1,.83-1.24c0,.62.62.24.87.06s.77-.71,1.12-.44,0,.84-.22,1.08-.64.66-.93,1l0,0-.14.09a.69.69,0,0,1,.11-.13c-1.15-1.62-2.13,2-2.62,2.53-.25.27-.94.66-1.26.25S83.89,136,84.13,135.79Zm6-28.68c.33-.19.62.12.73.41s0,.61-.25.9a4.91,4.91,0,0,0-.8,1.43c0,.11-.13.52-.29.42a.9.9,0,0,0,0,.16v0a1.8,1.8,0,0,0-.05.19c0-.07,0-.15,0-.23l0-.21s0,0,.08,0a13.38,13.38,0,0,0,.13-1.38C89.72,108.46,89.74,107.37,90.17,107.11Zm1.17-6.32s0,0,0,.08l.14.53A3.22,3.22,0,0,0,91.34,100.79Zm-2.8-1a.51.51,0,0,1,.83-.23c.42.34.14.91.06,1.34l-.07.25c0,.48-.33.55-.61.19A1.85,1.85,0,0,1,88.54,99.82ZM80,95.22c.14-.23.45-.2.7-.06l0-.23.1,0c0,.07,0,.15,0,.22.34.22.54.63,0,.85l-.05-.68a.48.48,0,0,1-.35.41C80,95.85,79.82,95.53,80,95.22ZM78,93.4c.25.15.29.61.26.86a1.16,1.16,0,0,1-.62.9l0-.22c-.14.14-.48.37-.68.28s-.14-.27-.11-.47C77,94.34,77.36,93,78,93.4ZM64,106.67l0-.67a.56.56,0,0,1-.36.41c-.38.08-.54-.25-.36-.55s.45-.21.7-.07l0-.23.09,0a1.85,1.85,0,0,1,0,.23C64.31,106.05,64.51,106.46,64,106.67Zm-.61,3.46a1.17,1.17,0,0,1-.63.9l.06-.22c-.14.14-.49.37-.69.28s-.14-.27-.11-.47c0-.42.42-1.74,1.1-1.35C63.35,109.42,63.38,109.88,63.36,110.13ZM52.19,140.66c.44-.32,1.16.13,1.48.44a1.52,1.52,0,0,1,.35,1.61c-.14.5-.3.95.26,1.26s.83-.1.9-.61a0,0,0,0,1,0,0l-.08-.14c0-.09,0-.12.11-.09s0,.15,0,.23h0s0,0,0,0c-.07.48-.16,1.15-.61,1.3-.65.22-1.44-.74-1.71-1.21s-.34-.95-.58-1.39S51.72,141,52.19,140.66ZM152,54.76h.1a10.16,10.16,0,0,0,.34-1,5.8,5.8,0,0,0-.52.34Zm-22.09,33c-.16.6-.27,1.19-.46,1.79-.12.37-.35,1.11.14,1.34s.9-.39,1.18-.66a1.62,1.62,0,0,1,1.31-.43,2.64,2.64,0,0,0,1.64-.67h0a6.47,6.47,0,0,1-1.42-1,3.6,3.6,0,0,0-1.4-1C130.32,86.94,130.05,87.26,129.91,87.8Zm-7.22-24.27-.1,0,0,0Zm-4.64-4.86-.1-.08v0Zm-2.9,12-.16.26c.31-.17.62-.36.6-.75a.56.56,0,0,0-.33-.43,1,1,0,0,0-1.1.4c-.12.3-.15,1,.33.94A1.33,1.33,0,0,0,115.15,70.65ZM97.53,45.06c-.07.23,0,.81.22.93s.37-.18.43-.42l0,.1.33-.07C98.6,45,97.77,44.26,97.53,45.06Zm20.3,13.42.12.11c.15-.75.73-1.84.35-2.57s-1,.73-1.16,1.06a7.93,7.93,0,0,0-.27,1.17c-.1.34-.51.77-.44,1.12s.57.4.83.24S117.69,58.81,117.83,58.48Zm-3.42-28.41c-.33.84.31,1.41,1.15,1.39a.29.29,0,0,0,.1,0l-.09.22C118.06,31.06,115,28.62,114.41,30.07Zm-89.5,77.19c-.33.84.31,1.41,1.15,1.39,0,0,.06,0,.1,0l-.09.22C28.56,108.25,25.48,105.81,24.91,107.26Zm76.13-43c-.39-.42-.67-.91-1.24-1.09.22-.78.65-.2,1.12-.26s.62-.71.93-1a8.69,8.69,0,0,1,1.62-1c.54-.36.83-1.11,1.46-1.29l.12-.25c.13.05.2,0,.2-.1-.75-.38-1-.23-1.57.23s-1.14.18-1.53.64c-.17.2-.22.43-.43.62a3.66,3.66,0,0,1-.86.54c-.41.2-1,.12-1.27.51a2.16,2.16,0,0,0,1,3.19C101.42,65.3,101.51,64.77,101,64.27Zm14,.23s0,0,0,0,0,0,0,0a.35.35,0,0,0-.13-.11,1.86,1.86,0,0,0-.88-.47c-.24,0-.71,0-.82.27a1.06,1.06,0,0,0,.2.94c.35.41,1,.66,1.33.26l0,.31C114.92,65.3,115.22,64.89,115,64.5Zm10,63.4c-.13.71,0,1.41.82.87.55-.36.62-.94.77-1.54l-.12.46-.93.83c.51-.43,1.38-1.49.44-2S125.14,127.44,125.05,127.9ZM57.12,81.8a1,1,0,0,0,.26.09h0a2.58,2.58,0,0,1,.34.07,1.17,1.17,0,0,0,.1-.3.49.49,0,0,0,.11-.66c-.17-.32-.68-.77-1.07-.66s-.38.54-.23.88A1.38,1.38,0,0,0,57.12,81.8ZM49.75,93.08c-.22-.26-1-.76-1.3-.31-.21.28-.08,1.32.35,1.43s.63-.42.91-.61l.1.14-.25.29C50.24,94,50,93.4,49.75,93.08Zm64.09,57.6c-.08.23-.3,1.07.14,1.11a.34.34,0,0,0,.27-.15c.38-.08.59-.3.46-.61l0,0,0,0a.66.66,0,0,0-.17-.28C114.31,150.5,114,150.29,113.84,150.68ZM34.43,96.17c.67-.48.73-1.06.92-1.81l-.46-.3a2.21,2.21,0,0,0,.53-1.45c-.37-.3-.57.5-.69.71a11.31,11.31,0,0,1-.82,1.26,4.22,4.22,0,0,0-1,2.34C33.34,97.05,34.12,96.39,34.43,96.17ZM73.83,8.69c.5-.28.88-.49.47-1.09-.2-.3-1.14-.79-1.44-.4s.59,1,1,1l.13,0ZM43.2,97.38s0,0,0,0l-.15.08Zm-4.61,1.24c.16.49.94.37,1.27.2.64-.32,2.8-3.4,3.33-1.49.39-.24.82-.4,1.22-.64s.77-.63.57-.94-.89-.06-1.2,0-1,.23-.8-.35a9.23,9.23,0,0,0-1.2.88,11.46,11.46,0,0,1-2.1,1.33C39.37,97.8,38.43,98.13,38.59,98.62Zm-5.08,17.8s0,0,0,0l-.5-.46C33.21,116.08,33.24,116.36,33.51,116.42ZM56.44,86.49a3.32,3.32,0,0,0-1,1.71A2.91,2.91,0,0,1,54.21,90a8,8,0,0,0-1.29.94c-.29.31-.44.74-.73,1a3.07,3.07,0,0,0,3.2-1.38c.29-.51.48-1,.81-1.46.23-.34,1-1.39,1.38-1.38l.46-.49.17,0C58.21,86.44,57,86.09,56.44,86.49ZM118.78,71a.15.15,0,0,0,0,.07l0,.17c.69.24,1.2,0,.92-.78a1.56,1.56,0,0,0-1.37-.94C116.5,69.3,118,71.44,118.78,71ZM29.61,110.7c-.56.65-.08.9.54.6s1.06-.38,1.4-.88c.68.44,0,.68-.07,1.16s.49.8.7,1.18a8.86,8.86,0,0,1,.5,1.85c.19.63.83,1.12.82,1.77l.2.19c-.09.11-.07.19,0,.23.58-.61.51-.88.23-1.57s.16-1.15-.16-1.66c-.14-.22-.35-.33-.46-.59a3.67,3.67,0,0,1-.28-1c-.06-.45.18-1-.11-1.36A2.16,2.16,0,0,0,29.61,110.7Zm102.93,2.71c0,.44.36,1.07.86,1a.48.48,0,0,0,.36-.61l.21.24c.65.09.08-.72-.19-.83C133.35,113,132.6,112.75,132.54,113.41Zm17.88-60c.54-.21.34-.62,0-.84,0-.08,0-.16,0-.23l-.09,0v.24c-.25-.14-.56-.18-.7.06s0,.63.36.55a.54.54,0,0,0,.36-.41ZM96.9,60.87a1.66,1.66,0,0,0,.06-.79.53.53,0,0,0,.3.22c.37.13.39-.33.44-.58a1,1,0,0,1,.6-.81,1.05,1.05,0,0,0,.62-.74c0-.3-.09-.47-.4-.45l.15-.17c-.3-.19-.65-.42-1-.15a3,3,0,0,0-.59.91A2.11,2.11,0,0,0,96.92,60l-.83,3.18a1.83,1.83,0,0,0-1.58-2.55c-1.25-.1-1.08,2-.7,2.68.24.45.78,1,1.35.85a2.52,2.52,0,0,0,1.2-1.29A14.11,14.11,0,0,0,96.9,60.87ZM105,59.56l0,0-.3.61C104.73,59.94,105,59.83,105,59.56Z"/></g></g></svg>