<svg xmlns="http://www.w3.org/2000/svg" xmlns:xlink="http://www.w3.org/1999/xlink" viewBox="0 0 750 500"><defs><style>.cls-1{fill:none;}.cls-2{isolation:isolate;}.cls-3{clip-path:url(#clip-path);}.cls-10,.cls-11,.cls-12,.cls-13,.cls-14,.cls-15,.cls-16,.cls-17,.cls-18,.cls-19,.cls-20,.cls-21,.cls-22,.cls-23,.cls-24,.cls-25,.cls-26,.cls-27,.cls-28,.cls-29,.cls-30,.cls-31,.cls-32,.cls-33,.cls-34,.cls-35,.cls-36,.cls-37,.cls-38,.cls-39,.cls-4,.cls-40,.cls-41,.cls-42,.cls-43,.cls-44,.cls-45,.cls-46,.cls-47,.cls-48,.cls-49,.cls-5,.cls-6,.cls-7,.cls-8,.cls-9{mix-blend-mode:color-dodge;}.cls-4{fill:url(#radial-gradient);}.cls-5{fill:url(#radial-gradient-2);}.cls-6{fill:url(#radial-gradient-3);}.cls-7{fill:url(#radial-gradient-4);}.cls-8{fill:url(#radial-gradient-5);}.cls-9{fill:url(#radial-gradient-6);}.cls-10{fill:url(#radial-gradient-7);}.cls-11{fill:url(#radial-gradient-8);}.cls-12{fill:url(#radial-gradient-9);}.cls-13{fill:url(#radial-gradient-10);}.cls-14{fill:url(#radial-gradient-11);}.cls-15{fill:url(#radial-gradient-12);}.cls-16{fill:url(#radial-gradient-13);}.cls-17{fill:url(#radial-gradient-14);}.cls-18{fill:url(#radial-gradient-15);}.cls-19{fill:url(#radial-gradient-16);}.cls-20{fill:url(#radial-gradient-17);}.cls-21{fill:url(#radial-gradient-18);}.cls-22{fill:url(#radial-gradient-19);}.cls-23{fill:url(#radial-gradient-20);}.cls-24{fill:url(#radial-gradient-21);}.cls-25{fill:url(#radial-gradient-22);}.cls-26{fill:url(#radial-gradient-23);}.cls-27{fill:url(#radial-gradient-24);}.cls-28{fill:url(#radial-gradient-25);}.cls-29{fill:url(#radial-gradient-26);}.cls-30{fill:url(#radial-gradient-27);}.cls-31{fill:url(#radial-gradient-28);}.cls-32{fill:url(#radial-gradient-29);}.cls-33{fill:url(#radial-gradient-30);}.cls-34{fill:url(#radial-gradient-31);}.cls-35{fill:url(#radial-gradient-32);}.cls-36{fill:url(#radial-gradient-33);}.cls-37{fill:url(#radial-gradient-34);}.cls-38{fill:url(#radial-gradient-35);}.cls-39{fill:url(#radial-gradient-36);}.cls-40{fill:url(#radial-gradient-37);}.cls-41{fill:url(#radial-gradient-38);}.cls-42{fill:url(#radial-gradient-39);}.cls-43{fill:url(#radial-gradient-40);}.cls-44{fill:url(#radial-gradient-41);}.cls-45,.cls-46,.cls-47{opacity:0.4;}.cls-45{fill:url(#radial-gradient-42);}.cls-46{fill:url(#radial-gradient-43);}.cls-47{fill:url(#radial-gradient-44);}.cls-48{fill:url(#radial-gradient-45);}.cls-49{fill:url(#radial-gradient-46);}.cls-50,.cls-51{mix-blend-mode:screen;}.cls-50{fill:url(#radial-gradient-47);}.cls-51{fill:url(#radial-gradient-48);}</style><clipPath id="clip-path"><rect class="cls-1" width="750" height="500"/></clipPath><radialGradient id="radial-gradient" cx="-844.77" cy="1653.66" r="26.34" gradientTransform="matrix(-0.02, -0.61, 0.57, -0.02, -707.09, -302.99)" gradientUnits="userSpaceOnUse"><stop offset="0" stop-color="#fff"/><stop offset="0.02" stop-color="#f4f4f4"/><stop offset="0.14" stop-color="#bbb"/><stop offset="0.25" stop-color="#898989"/><stop offset="0.37" stop-color="#5f5f5f"/><stop offset="0.49" stop-color="#3d3d3d"/><stop offset="0.61" stop-color="#222"/><stop offset="0.74" stop-color="#0f0f0f"/><stop offset="0.86" stop-color="#040404"/><stop offset="1"/></radialGradient><radialGradient id="radial-gradient-2" cx="-726.57" cy="2009.26" r="17.86" xlink:href="#radial-gradient"/><radialGradient id="radial-gradient-3" cx="-668.5" cy="1659.39" r="10.65" xlink:href="#radial-gradient"/><radialGradient id="radial-gradient-4" cx="-607.06" cy="1614.65" r="10.65" xlink:href="#radial-gradient"/><radialGradient id="radial-gradient-5" cx="-566.69" cy="1984.39" r="10.65" xlink:href="#radial-gradient"/><radialGradient id="radial-gradient-6" cx="-658.31" cy="2480.58" r="10.65" xlink:href="#radial-gradient"/><radialGradient id="radial-gradient-7" cx="-582.73" cy="2313.15" r="15.35" xlink:href="#radial-gradient"/><radialGradient id="radial-gradient-8" cx="-597.44" cy="2481.5" r="15.35" xlink:href="#radial-gradient"/><radialGradient id="radial-gradient-9" cx="-1175.33" cy="2359.81" r="15.35" xlink:href="#radial-gradient"/><radialGradient id="radial-gradient-10" cx="-595.14" cy="1317.74" r="15.62" xlink:href="#radial-gradient"/><radialGradient id="radial-gradient-11" cx="-568.98" cy="1549.72" r="17" xlink:href="#radial-gradient"/><radialGradient id="radial-gradient-12" cx="-938.59" cy="2337.14" r="17" xlink:href="#radial-gradient"/><radialGradient id="radial-gradient-13" cx="-847.16" cy="2312" r="17" xlink:href="#radial-gradient"/><radialGradient id="radial-gradient-14" cx="-776.88" cy="2364.48" r="17" xlink:href="#radial-gradient"/><radialGradient id="radial-gradient-15" cx="-739.9" cy="2243.34" r="12.92" gradientTransform="matrix(0, -0.61, 0.57, 0, -692.68, -346.44)" xlink:href="#radial-gradient"/><radialGradient id="radial-gradient-16" cx="-615.72" cy="2259.39" r="12.92" gradientTransform="matrix(0, -0.61, 0.57, 0, -695.23, -346.7)" xlink:href="#radial-gradient"/><radialGradient id="radial-gradient-17" cx="-600.02" cy="2172.09" r="33.95" gradientTransform="matrix(0, -0.61, 0.57, 0, -695.51, -345.05)" xlink:href="#radial-gradient"/><radialGradient id="radial-gradient-18" cx="-1075.84" cy="2182.9" r="8.68" xlink:href="#radial-gradient"/><radialGradient id="radial-gradient-19" cx="-1109.26" cy="1833.19" r="8.68" xlink:href="#radial-gradient"/><radialGradient id="radial-gradient-20" cx="-1108.49" cy="1718.19" r="8.68" xlink:href="#radial-gradient"/><radialGradient id="radial-gradient-21" cx="-993.85" cy="1759.75" r="8.68" gradientTransform="matrix(0, -0.61, 0.57, 0, -687.3, -337.27)" xlink:href="#radial-gradient"/><radialGradient id="radial-gradient-22" cx="-1099.01" cy="1473.12" r="6.38" xlink:href="#radial-gradient"/><radialGradient id="radial-gradient-23" cx="-595.04" cy="1720.64" r="18.1" gradientTransform="matrix(0, -0.61, 0.57, 0, -695.46, -336.37)" xlink:href="#radial-gradient"/><radialGradient id="radial-gradient-24" cx="-600.13" cy="1865.96" r="18.1" xlink:href="#radial-gradient"/><radialGradient id="radial-gradient-25" cx="-566.7" cy="2083.07" r="18.1" xlink:href="#radial-gradient"/><radialGradient id="radial-gradient-26" cx="-617.34" cy="2259.33" r="18.1" xlink:href="#radial-gradient"/><radialGradient id="radial-gradient-27" cx="-855.72" cy="1939.43" r="12.62" xlink:href="#radial-gradient"/><radialGradient id="radial-gradient-28" cx="-970.59" cy="1544.15" r="7.9" xlink:href="#radial-gradient"/><radialGradient id="radial-gradient-29" cx="-1040.72" cy="1410.4" r="7.9" xlink:href="#radial-gradient"/><radialGradient id="radial-gradient-30" cx="-1242.18" cy="1417.32" r="7.9" xlink:href="#radial-gradient"/><radialGradient id="radial-gradient-31" cx="-1266.58" cy="1369.35" r="4.64" xlink:href="#radial-gradient"/><radialGradient id="radial-gradient-32" cx="-1251.52" cy="1237.9" r="4.64" xlink:href="#radial-gradient"/><radialGradient id="radial-gradient-33" cx="-1323.86" cy="1436.06" r="4.64" xlink:href="#radial-gradient"/><radialGradient id="radial-gradient-34" cx="-930.98" cy="1524.1" r="4.64" xlink:href="#radial-gradient"/><radialGradient id="radial-gradient-35" cx="-750.91" cy="1234.09" r="20.61" gradientTransform="matrix(0, -0.61, 0.57, 0, -692.1, -327.05)" xlink:href="#radial-gradient"/><radialGradient id="radial-gradient-36" cx="-703.25" cy="1521.4" r="13.77" xlink:href="#radial-gradient"/><radialGradient id="radial-gradient-37" cx="-596.2" cy="1454.29" r="8.25" xlink:href="#radial-gradient"/><radialGradient id="radial-gradient-38" cx="-911.72" cy="1418.53" r="8.25" xlink:href="#radial-gradient"/><radialGradient id="radial-gradient-39" cx="-1071.87" cy="1292.25" r="12.18" gradientTransform="matrix(0, -0.61, 0.57, 0, -685.58, -328.24)" xlink:href="#radial-gradient"/><radialGradient id="radial-gradient-40" cx="-952.87" cy="1682.7" r="12.18" gradientTransform="matrix(0, -0.61, 0.57, 0, -688.17, -335.67)" xlink:href="#radial-gradient"/><radialGradient id="radial-gradient-41" cx="-853.48" cy="1792.76" r="12.18" gradientTransform="matrix(0, -0.61, 0.57, 0, -690.24, -337.75)" xlink:href="#radial-gradient"/><radialGradient id="radial-gradient-42" cx="-787.12" cy="1808.92" r="10.92" xlink:href="#radial-gradient"/><radialGradient id="radial-gradient-43" cx="-766.2" cy="1622.73" r="10.92" xlink:href="#radial-gradient"/><radialGradient id="radial-gradient-44" cx="-747.27" cy="1514.36" r="10.92" xlink:href="#radial-gradient"/><radialGradient id="radial-gradient-45" cx="-794.01" cy="2193" r="14.93" xlink:href="#radial-gradient"/><radialGradient id="radial-gradient-46" cx="-684.82" cy="1995.09" r="14.93" gradientTransform="matrix(0, -0.61, 0.57, 0, -693.72, -341.66)" xlink:href="#radial-gradient"/><radialGradient id="radial-gradient-47" cx="-733.98" cy="1910.23" r="14.93" gradientTransform="matrix(0, -0.61, 0.57, 0, -692.69, -340.04)" gradientUnits="userSpaceOnUse"><stop offset="0" stop-color="#fff"/><stop offset="0.01" stop-color="#f6f6f6"/><stop offset="0.05" stop-color="#c8c8c8"/><stop offset="0.09" stop-color="#9d9d9d"/><stop offset="0.14" stop-color="#777"/><stop offset="0.2" stop-color="#575757"/><stop offset="0.25" stop-color="#3b3b3b"/><stop offset="0.32" stop-color="#252525"/><stop offset="0.4" stop-color="#141414"/><stop offset="0.49" stop-color="#090909"/><stop offset="0.63" stop-color="#020202"/><stop offset="1"/></radialGradient><radialGradient id="radial-gradient-48" cx="-605.48" cy="1535.49" r="7.69" gradientTransform="matrix(0, -0.61, 0.57, 0, -695.21, -332.73)" xlink:href="#radial-gradient-47"/></defs><g class="cls-2"><g id="BACKGROUND_2" data-name="BACKGROUND 2"><g class="cls-3"><path class="cls-4" d="M254.92,162.3c8.31-.28,15.29,6.65,15.59,15.49S264.31,194,256,194.3s-15.3-6.66-15.6-15.5S246.6,162.58,254.92,162.3Z"/><path class="cls-5" d="M455.93,88.77c5.64-.19,10.37,4.52,10.57,10.51s-4.2,11-9.84,11.19S446.29,106,446.09,100,450.29,89,455.93,88.77Z"/><path class="cls-6" d="M254.9,64.63A6.49,6.49,0,1,1,249,71.31,6.29,6.29,0,0,1,254.9,64.63Z"/><path class="cls-7" d="M228.07,28.17a6.29,6.29,0,0,1,6.3,6.26,6.1,6.1,0,1,1-12.17.41A6.29,6.29,0,0,1,228.07,28.17Z"/><path class="cls-8" d="M438.58-3.49a6.3,6.3,0,0,1,6.31,6.26,6.1,6.1,0,1,1-12.18.41A6.29,6.29,0,0,1,438.58-3.49Z"/><path class="cls-9" d="M724.08,42.59a6.49,6.49,0,1,1-5.87,6.68A6.3,6.3,0,0,1,724.08,42.59Z"/><path class="cls-10" d="M626.74-2.95a9.06,9.06,0,0,1,9.08,9,8.79,8.79,0,1,1-17.54.59A9.06,9.06,0,0,1,626.74-2.95Z"/><path class="cls-11" d="M723.26,2.74a9.06,9.06,0,0,1,9.09,9,8.79,8.79,0,1,1-17.54.59A9.06,9.06,0,0,1,723.26,2.74Z"/><path class="cls-12" d="M665.56,356.15a9.35,9.35,0,1,1-8.46,9.62A9.06,9.06,0,0,1,665.56,356.15Z"/><path class="cls-13" d="M58,23.64c4.93-.17,9.07,3.95,9.25,9.19s-3.68,9.63-8.61,9.79-9.07-3.95-9.25-9.19S53.08,23.8,58,23.64Z"/><path class="cls-14" d="M190.05,2.42c5.36-.18,9.87,4.3,10.06,10s-4,10.47-9.37,10.65-9.87-4.29-10.06-10S184.68,2.61,190.05,2.42Z"/><path class="cls-15" d="M647.71,211.77c5.37-.18,9.88,4.3,10.07,10s-4,10.48-9.37,10.66-9.88-4.3-10.07-10S642.35,212,647.71,211.77Z"/><path class="cls-16" d="M631.46,156.71c5.37-.18,9.88,4.3,10.07,10s-4,10.48-9.37,10.66-9.88-4.3-10.07-10S626.1,156.89,631.46,156.71Z"/><path class="cls-17" d="M660,113c5.37-.18,9.88,4.3,10.07,10s-4,10.48-9.37,10.66-9.88-4.3-10.07-10S654.65,113.18,660,113Z"/><ellipse class="cls-18" cx="590.37" cy="103.21" rx="7.39" ry="7.85" transform="translate(-3.14 19.93) rotate(-1.93)"/><ellipse class="cls-19" cx="597" cy="27.46" rx="7.39" ry="7.85" transform="translate(-0.59 20.11) rotate(-1.93)"/><ellipse class="cls-20" cx="546.78" cy="19.6" rx="19.42" ry="20.64" transform="translate(-0.35 18.43) rotate(-1.93)"/><path class="cls-21" d="M562.53,303.18a5.29,5.29,0,1,1-4.79,5.44A5.13,5.13,0,0,1,562.53,303.18Z"/><path class="cls-22" d="M363.32,330.23a5.29,5.29,0,1,1-4.78,5.45A5.14,5.14,0,0,1,363.32,330.23Z"/><path class="cls-23" d="M297.57,332a5.29,5.29,0,1,1-4.78,5.45A5.14,5.14,0,0,1,297.57,332Z"/><ellipse class="cls-24" cx="319.16" cy="266.81" rx="4.97" ry="5.28" transform="translate(-8.81 10.91) rotate(-1.93)"/><path class="cls-25" d="M157.34,332.35a3.88,3.88,0,1,1-3.51,4A3.78,3.78,0,0,1,157.34,332.35Z"/><ellipse class="cls-26" cx="288.63" cy="25.29" rx="10.35" ry="11" transform="translate(-0.69 9.74) rotate(-1.93)"/><path class="cls-27" d="M371.42,14.58c5.72-.19,10.51,4.58,10.72,10.65s-4.26,11.15-10,11.35S361.65,32,361.44,25.93,365.71,14.77,371.42,14.58Z"/><path class="cls-28" d="M494.84-9.92c5.71-.19,10.51,4.58,10.72,10.65s-4.27,11.15-10,11.35S485.07,7.5,484.86,1.43,489.12-9.73,494.84-9.92Z"/><path class="cls-29" d="M596.62,17.44c5.72-.19,10.52,4.58,10.72,10.65s-4.26,11.15-10,11.35-10.52-4.58-10.72-10.65S590.91,17.63,596.62,17.44Z"/><path class="cls-30" d="M418.77,171.77a7.68,7.68,0,1,1-6.95,7.9A7.44,7.44,0,0,1,418.77,171.77Z"/><path class="cls-31" d="M195.28,252.05a4.81,4.81,0,1,1-4.35,4.95A4.66,4.66,0,0,1,195.28,252.05Z"/><path class="cls-32" d="M120.27,297.23a4.81,4.81,0,1,1-4.35,4.95A4.67,4.67,0,0,1,120.27,297.23Z"/><path class="cls-33" d="M128.35,419.48a4.81,4.81,0,1,1-4.35,4.95A4.68,4.68,0,0,1,128.35,419.48Z"/><path class="cls-34" d="M101.5,437.21a2.83,2.83,0,1,1-2.56,2.91A2.75,2.75,0,0,1,101.5,437.21Z"/><path class="cls-35" d="M26.05,430.6a2.83,2.83,0,1,1-2.55,2.91A2.74,2.74,0,0,1,26.05,430.6Z"/><path class="cls-36" d="M140.8,470.72a2.83,2.83,0,1,1-2.55,2.91A2.74,2.74,0,0,1,140.8,470.72Z"/><path class="cls-37" d="M183.07,230.35a2.83,2.83,0,1,1-2.56,2.91A2.74,2.74,0,0,1,183.07,230.35Z"/><ellipse class="cls-38" cx="13.71" cy="129.37" rx="11.79" ry="12.53" transform="translate(-4.36 0.54) rotate(-1.93)"/><path class="cls-39" d="M176.67,86.51a8.38,8.38,0,1,1-7.58,8.63A8.12,8.12,0,0,1,176.67,86.51Z"/><path class="cls-40" d="M136.23,26.12a5,5,0,1,1-4.55,5.18A4.88,4.88,0,0,1,136.23,26.12Z"/><path class="cls-41" d="M122.26,218.49a5,5,0,1,1-4.55,5.17A4.88,4.88,0,0,1,122.26,218.49Z"/><ellipse class="cls-42" cx="53.53" cy="323.23" rx="6.96" ry="7.4" transform="translate(-10.85 1.99) rotate(-1.93)"/><ellipse class="cls-43" cx="274.27" cy="243.4" rx="6.96" ry="7.4" transform="translate(-8.03 9.36) rotate(-1.93)"/><ellipse class="cls-44" cx="335.15" cy="180.9" rx="6.96" ry="7.4" transform="translate(-5.89 11.37) rotate(-1.93)"/><path class="cls-45" d="M342.8,133.65a6.65,6.65,0,1,1-6,6.84A6.44,6.44,0,0,1,342.8,133.65Z"/><path class="cls-46" d="M235.94,124.53a6.65,6.65,0,1,1-6,6.84A6.45,6.45,0,0,1,235.94,124.53Z"/><path class="cls-47" d="M173.61,115.12a6.65,6.65,0,1,1-6,6.84A6.44,6.44,0,0,1,173.61,115.12Z"/><path class="cls-48" d="M562.4,128a9.09,9.09,0,1,1-8.23,9.35A8.82,8.82,0,0,1,562.4,128Z"/><ellipse class="cls-49" cx="447.34" cy="74.54" rx="8.54" ry="9.08" transform="translate(-2.26 15.11) rotate(-1.93)"/><ellipse class="cls-50" cx="399.84" cy="106.04" rx="8.54" ry="9.08" transform="translate(-3.34 13.53) rotate(-1.93)"/><ellipse class="cls-51" cx="183.01" cy="35.21" rx="4.4" ry="4.67" transform="translate(-1.08 6.17) rotate(-1.93)"/></g></g></g></svg>