<svg xmlns="http://www.w3.org/2000/svg" xmlns:xlink="http://www.w3.org/1999/xlink" viewBox="0 0 368.38 371.4"><defs><style>.cls-1{isolation:isolate;}.cls-2{opacity:0.15;}.cls-2,.cls-206{mix-blend-mode:multiply;}.cls-3{fill:#fff;}.cls-4{fill:#fefefe;}.cls-5{fill:#fdfdfd;}.cls-6{fill:#fcfcfc;}.cls-7{fill:#fafafa;}.cls-8{fill:#f9f9f9;}.cls-9{fill:#f8f8f8;}.cls-10{fill:#f7f7f7;}.cls-11{fill:#f6f6f6;}.cls-12{fill:#f5f5f5;}.cls-13{fill:#f4f4f4;}.cls-14{fill:#f3f3f3;}.cls-15{fill:#f1f1f1;}.cls-16{fill:#f0f0f0;}.cls-17{fill:#efefef;}.cls-18{fill:#eee;}.cls-19{fill:#ededed;}.cls-20{fill:#ececec;}.cls-21{fill:#ebebeb;}.cls-22{fill:#eaeaea;}.cls-23{fill:#e8e8e8;}.cls-24{fill:#e7e7e7;}.cls-25{fill:#e6e6e6;}.cls-26{fill:#e5e5e5;}.cls-27{fill:#e4e4e4;}.cls-28{fill:#e3e3e3;}.cls-29{fill:#e2e2e2;}.cls-30{fill:#e1e1e1;}.cls-31{fill:#dfdfdf;}.cls-32{fill:#dedede;}.cls-33{fill:#ddd;}.cls-34{fill:#dcdcdc;}.cls-35{fill:#dbdbdb;}.cls-36{fill:#dadada;}.cls-37{fill:#d9d9d9;}.cls-38{fill:#d7d7d7;}.cls-39{fill:#d6d6d6;}.cls-40{fill:#d5d5d5;}.cls-41{fill:#d4d4d4;}.cls-42{fill:#d3d3d3;}.cls-43{fill:#d2d2d2;}.cls-44{fill:#d1d1d1;}.cls-45{fill:#d0d0d0;}.cls-46{fill:#cecece;}.cls-47{fill:#cdcdcd;}.cls-48{fill:#ccc;}.cls-49{fill:#cbcbcb;}.cls-50{fill:#cacaca;}.cls-51{fill:#c9c9c9;}.cls-52{fill:#c8c8c8;}.cls-53{fill:#c7c7c7;}.cls-54{fill:#c5c5c5;}.cls-55{fill:#c4c4c4;}.cls-56{fill:#c3c3c3;}.cls-57{fill:#c2c2c2;}.cls-58{fill:#c1c1c1;}.cls-59{fill:silver;}.cls-60{fill:#bfbfbf;}.cls-61{fill:#bdbdbd;}.cls-62{fill:#bcbcbc;}.cls-63{fill:#bbb;}.cls-64{fill:#bababa;}.cls-65{fill:#b9b9b9;}.cls-66{fill:#b8b8b8;}.cls-67{fill:#b7b7b7;}.cls-68{fill:#b6b6b6;}.cls-69{fill:#b4b4b4;}.cls-70{fill:#b3b3b3;}.cls-71{fill:#b2b2b2;}.cls-72{fill:#b1b1b1;}.cls-73{fill:#b0b0b0;}.cls-74{fill:#afafaf;}.cls-75{fill:#aeaeae;}.cls-76{fill:#adadad;}.cls-77{fill:#ababab;}.cls-78{fill:#aaa;}.cls-79{fill:#a9a9a9;}.cls-80{fill:#a8a8a8;}.cls-81{fill:#a7a7a7;}.cls-82{fill:#a6a6a6;}.cls-83{fill:#a5a5a5;}.cls-84{fill:#a4a4a4;}.cls-85{fill:#a2a2a2;}.cls-86{fill:#a1a1a1;}.cls-87{fill:#a0a0a0;}.cls-88{fill:#9f9f9f;}.cls-89{fill:#9e9e9e;}.cls-90{fill:#9d9d9d;}.cls-91{fill:#9c9c9c;}.cls-92{fill:#9a9a9a;}.cls-93{fill:#999;}.cls-94{fill:#989898;}.cls-95{fill:#979797;}.cls-96{fill:#969696;}.cls-97{fill:#959595;}.cls-98{fill:#949494;}.cls-99{fill:#939393;}.cls-100{fill:#919191;}.cls-101{fill:#909090;}.cls-102{fill:#8f8f8f;}.cls-103{fill:#8e8e8e;}.cls-104{fill:#8d8d8d;}.cls-105{fill:#8c8c8c;}.cls-106{fill:#8b8b8b;}.cls-107{fill:#8a8a8a;}.cls-108{fill:#888;}.cls-109{fill:#878787;}.cls-110{fill:#868686;}.cls-111{fill:#858585;}.cls-112{fill:#848484;}.cls-113{fill:#838383;}.cls-114{fill:#828282;}.cls-115{fill:#818181;}.cls-116{fill:#7f7f7f;}.cls-117{fill:#7e7e7e;}.cls-118{fill:#7d7d7d;}.cls-119{fill:#7c7c7c;}.cls-120{fill:#7b7b7b;}.cls-121{fill:#7a7a7a;}.cls-122{fill:#797979;}.cls-123{fill:#777;}.cls-124{fill:#767676;}.cls-125{fill:#757575;}.cls-126{fill:#747474;}.cls-127{fill:#737373;}.cls-128{fill:#727272;}.cls-129{fill:#717171;}.cls-130{fill:#707070;}.cls-131{fill:#6e6e6e;}.cls-132{fill:#6d6d6d;}.cls-133{fill:#6c6c6c;}.cls-134{fill:#6b6b6b;}.cls-135{fill:#6a6a6a;}.cls-136{fill:#696969;}.cls-137{fill:#686868;}.cls-138{fill:#676767;}.cls-139{fill:#656565;}.cls-140{fill:#646464;}.cls-141{fill:#636363;}.cls-142{fill:#626262;}.cls-143{fill:#616161;}.cls-144{fill:#606060;}.cls-145{fill:#5f5f5f;}.cls-146{fill:#5e5e5e;}.cls-147{fill:#5c5c5c;}.cls-148{fill:#5b5b5b;}.cls-149{fill:#5a5a5a;}.cls-150{fill:#595959;}.cls-151{fill:#585858;}.cls-152{fill:#575757;}.cls-153{fill:#565656;}.cls-154{fill:#545454;}.cls-155{fill:#535353;}.cls-156{fill:#525252;}.cls-157{fill:#515151;}.cls-158{fill:#505050;}.cls-159{fill:#4f4f4f;}.cls-160{fill:#4e4e4e;}.cls-161{fill:#4d4d4d;}.cls-162{fill:#4b4b4b;}.cls-163{fill:#4a4a4a;}.cls-164{fill:#494949;}.cls-165{fill:#484848;}.cls-166{fill:#474747;}.cls-167{fill:#464646;}.cls-168{fill:#454545;}.cls-169{fill:#444;}.cls-170{fill:#424242;}.cls-171{fill:#414141;}.cls-172{fill:#404040;}.cls-173{fill:#3f3f3f;}.cls-174{fill:#3e3e3e;}.cls-175{fill:#3d3d3d;}.cls-176{fill:#3c3c3c;}.cls-177{fill:#3a3a3a;}.cls-178{fill:#393939;}.cls-179{fill:#383838;}.cls-180{fill:#373737;}.cls-181{fill:#363636;}.cls-182{fill:#353535;}.cls-183{fill:#343434;}.cls-184{fill:#333;}.cls-185{fill:#313131;}.cls-186{fill:#303030;}.cls-187{fill:#2f2f2f;}.cls-188{fill:#2e2e2e;}.cls-189{fill:#2d2d2d;}.cls-190{fill:#2c2c2c;}.cls-191{fill:#2b2b2b;}.cls-192{fill:#2a2a2a;}.cls-193{fill:#282828;}.cls-194{fill:#272727;}.cls-195{fill:#262626;}.cls-196{fill:#252525;}.cls-197{fill:#242424;}.cls-198{fill:#232323;}.cls-199{fill:#222;}.cls-200{fill:#212121;}.cls-201{fill:#1f1f1f;}.cls-202{fill:#1e1e1e;}.cls-203{fill:#1d1d1d;}.cls-204{fill:#1c1c1c;}.cls-205{fill:#ffdf94;}.cls-206{opacity:0.1;fill:url(#radial-gradient);}</style><radialGradient id="radial-gradient" cx="206.61" cy="207.27" r="207.3" gradientUnits="userSpaceOnUse"><stop offset="0" stop-color="#fff" stop-opacity="0"/><stop offset="0.15" stop-color="#fefcfb" stop-opacity="0.02"/><stop offset="0.28" stop-color="#fcf3f0" stop-opacity="0.07"/><stop offset="0.4" stop-color="#f9e3dd" stop-opacity="0.15"/><stop offset="0.52" stop-color="#f5cdc3" stop-opacity="0.27"/><stop offset="0.64" stop-color="#efb0a1" stop-opacity="0.42"/><stop offset="0.75" stop-color="#e88d77" stop-opacity="0.61"/><stop offset="0.87" stop-color="#e06547" stop-opacity="0.83"/><stop offset="0.94" stop-color="#d94521"/></radialGradient></defs><g class="cls-1"><g id="Layer_2" data-name="Layer 2"><g id="Graphic_Elemnets" data-name="Graphic Elemnets"><g class="cls-2"><path class="cls-3" d="M339.59,92.71a180.81,180.81,0,1,0-152,278.69c99.84,0,180.79-80.95,180.79-180.8A180,180,0,0,0,339.59,92.71Z"/><path class="cls-4" d="M339.55,92.66a180.8,180.8,0,1,0-152,278.69c99.84,0,180.8-81,180.8-180.79A179.92,179.92,0,0,0,339.55,92.66Z"/><path class="cls-5" d="M339.52,92.61a180.8,180.8,0,1,0,28.79,97.9A180.6,180.6,0,0,0,339.52,92.61Z"/><path class="cls-6" d="M339.49,92.56a180.61,180.61,0,0,0-152-82.9c-99.86,0-180.79,81-180.79,180.8A180.75,180.75,0,0,0,187.48,371.25c99.85,0,180.8-80.95,180.8-180.79A180,180,0,0,0,339.49,92.56Z"/><path class="cls-7" d="M339.45,92.51a180.8,180.8,0,1,0-152,278.7c99.84,0,180.8-81,180.8-180.8A179.92,179.92,0,0,0,339.45,92.51Z"/><path class="cls-8" d="M339.42,92.46a180.81,180.81,0,1,0-152,278.7c99.84,0,180.79-81,180.79-180.8A179.91,179.91,0,0,0,339.42,92.46Z"/><path class="cls-9" d="M339.38,92.42a180.59,180.59,0,0,0-152-82.91c-99.86,0-180.79,81-180.79,180.8a180.75,180.75,0,0,0,180.79,180.8c99.84,0,180.8-81,180.8-180.8A179.86,179.86,0,0,0,339.38,92.42Z"/><path class="cls-10" d="M339.35,92.37a180.8,180.8,0,1,0-152,278.69c99.84,0,180.8-81,180.8-180.8A179.86,179.86,0,0,0,339.35,92.37Z"/><path class="cls-11" d="M339.32,92.32A180.81,180.81,0,1,0,187.32,371c99.84,0,180.79-80.95,180.79-180.8A180,180,0,0,0,339.32,92.32Z"/><path class="cls-12" d="M339.28,92.27A180.8,180.8,0,1,0,187.28,371c99.84,0,180.8-80.95,180.8-180.79A179.89,179.89,0,0,0,339.28,92.27Z"/><path class="cls-13" d="M339.25,92.22A180.8,180.8,0,1,0,368,190.12,180.6,180.6,0,0,0,339.25,92.22Z"/><path class="cls-14" d="M339.21,92.17a180.59,180.59,0,0,0-152-82.9c-99.86,0-180.79,81-180.79,180.8A180.75,180.75,0,0,0,187.21,370.86c99.85,0,180.8-80.95,180.8-180.79A179.92,179.92,0,0,0,339.21,92.17Z"/><path class="cls-15" d="M339.18,92.12a180.8,180.8,0,1,0-152,278.69C287,370.81,368,289.86,368,190A179.92,179.92,0,0,0,339.18,92.12Z"/><path class="cls-16" d="M339.15,92.07a180.81,180.81,0,1,0-152,278.7c99.84,0,180.79-81,180.79-180.8A180,180,0,0,0,339.15,92.07Z"/><path class="cls-17" d="M339.11,92a180.59,180.59,0,0,0-152-82.91c-99.86,0-180.79,81-180.79,180.8a180.75,180.75,0,0,0,180.79,180.8c99.84,0,180.8-81,180.8-180.8A179.86,179.86,0,0,0,339.11,92Z"/><path class="cls-18" d="M339.08,92a180.8,180.8,0,1,0-152,278.69c99.84,0,180.8-81,180.8-180.8A179.86,179.86,0,0,0,339.08,92Z"/><path class="cls-19" d="M339.05,91.93a180.8,180.8,0,1,0,28.79,97.89A180.61,180.61,0,0,0,339.05,91.93Z"/><path class="cls-20" d="M339,91.88A180.8,180.8,0,1,0,187,370.57c99.84,0,180.8-80.95,180.8-180.8A179.89,179.89,0,0,0,339,91.88Z"/><path class="cls-21" d="M339,91.83a180.8,180.8,0,1,0,28.79,97.9A180.6,180.6,0,0,0,339,91.83Z"/><path class="cls-22" d="M338.94,91.78a180.59,180.59,0,0,0-152-82.9c-99.86,0-180.79,81-180.79,180.8A180.75,180.75,0,0,0,186.94,370.47c99.84,0,180.8-81,180.8-180.79A179.92,179.92,0,0,0,338.94,91.78Z"/><path class="cls-23" d="M338.91,91.73a180.8,180.8,0,1,0-152,278.69c99.84,0,180.8-80.95,180.8-180.79A179.92,179.92,0,0,0,338.91,91.73Z"/><path class="cls-24" d="M338.88,91.68a180.81,180.81,0,1,0-152,278.7c99.84,0,180.79-81,180.79-180.8A180,180,0,0,0,338.88,91.68Z"/><path class="cls-25" d="M338.84,91.63a180.6,180.6,0,0,0-152-82.9C87,8.73,6.05,89.69,6.05,189.53a180.75,180.75,0,0,0,180.79,180.8c99.84,0,180.8-81,180.8-180.8A179.92,179.92,0,0,0,338.84,91.63Z"/><path class="cls-26" d="M338.81,91.59a180.8,180.8,0,1,0-152,278.69c99.84,0,180.79-81,180.79-180.8A179.85,179.85,0,0,0,338.81,91.59Z"/><path class="cls-27" d="M338.78,91.54a180.81,180.81,0,1,0-152,278.69c99.85,0,180.8-81,180.8-180.8A179.94,179.94,0,0,0,338.78,91.54Z"/><path class="cls-28" d="M338.74,91.49a180.8,180.8,0,1,0-152,278.69c99.84,0,180.8-80.95,180.8-180.8A179.89,179.89,0,0,0,338.74,91.49Z"/><path class="cls-29" d="M338.71,91.44a180.8,180.8,0,1,0,28.79,97.9A180.6,180.6,0,0,0,338.71,91.44Z"/><path class="cls-30" d="M338.67,91.39a180.59,180.59,0,0,0-152-82.9c-99.86,0-180.79,81-180.79,180.8A180.75,180.75,0,0,0,186.67,370.08c99.84,0,180.8-80.95,180.8-180.79A179.92,179.92,0,0,0,338.67,91.39Z"/><path class="cls-31" d="M338.64,91.34A180.8,180.8,0,1,0,186.64,370c99.84,0,180.8-80.95,180.8-180.79A179.92,179.92,0,0,0,338.64,91.34Z"/><path class="cls-32" d="M338.61,91.29a180.81,180.81,0,1,0-152,278.7c99.84,0,180.79-81,180.79-180.8A180,180,0,0,0,338.61,91.29Z"/><path class="cls-33" d="M338.57,91.24a180.6,180.6,0,0,0-152-82.9c-99.86,0-180.79,81-180.79,180.8a180.75,180.75,0,0,0,180.79,180.8c99.84,0,180.8-81,180.8-180.8A179.92,179.92,0,0,0,338.57,91.24Z"/><path class="cls-34" d="M338.54,91.2a180.8,180.8,0,1,0-152,278.69c99.84,0,180.79-81,180.79-180.8A179.85,179.85,0,0,0,338.54,91.2Z"/><path class="cls-35" d="M338.51,91.15a180.81,180.81,0,1,0-152,278.69c99.85,0,180.8-81,180.8-180.8A179.94,179.94,0,0,0,338.51,91.15Z"/><path class="cls-36" d="M338.47,91.1a180.8,180.8,0,1,0-152,278.69c99.84,0,180.8-81,180.8-180.8A179.89,179.89,0,0,0,338.47,91.1Z"/><path class="cls-37" d="M338.44,91.05A180.8,180.8,0,1,0,367.23,189,180.6,180.6,0,0,0,338.44,91.05Z"/><path class="cls-38" d="M338.4,91a180.59,180.59,0,0,0-152-82.9C86.54,8.1,5.61,89.06,5.61,188.9A180.75,180.75,0,0,0,186.4,369.69c99.84,0,180.8-80.95,180.8-180.79A179.92,179.92,0,0,0,338.4,91Z"/><path class="cls-39" d="M338.37,91a180.8,180.8,0,1,0-152,278.69c99.84,0,180.8-80.95,180.8-180.79A179.92,179.92,0,0,0,338.37,91Z"/><path class="cls-40" d="M338.34,90.9a180.8,180.8,0,1,0,28.79,97.9A180.6,180.6,0,0,0,338.34,90.9Z"/><path class="cls-41" d="M338.3,90.85A180.6,180.6,0,0,0,186.3,8C86.44,8,5.51,88.91,5.51,188.75A180.75,180.75,0,0,0,186.3,369.55c99.84,0,180.8-81,180.8-180.8A179.92,179.92,0,0,0,338.3,90.85Z"/><path class="cls-42" d="M338.27,90.81a180.8,180.8,0,1,0-152,278.69c99.84,0,180.79-81,180.79-180.8A179.85,179.85,0,0,0,338.27,90.81Z"/><path class="cls-43" d="M338.24,90.76a180.81,180.81,0,1,0-152,278.69c99.85,0,180.8-81,180.8-180.8A179.94,179.94,0,0,0,338.24,90.76Z"/><path class="cls-44" d="M338.2,90.71a180.8,180.8,0,1,0-152,278.69C286,369.4,367,288.45,367,188.6A179.89,179.89,0,0,0,338.2,90.71Z"/><path class="cls-45" d="M338.17,90.66a180.81,180.81,0,1,0-152,278.69c99.84,0,180.79-81,180.79-180.8A179.88,179.88,0,0,0,338.17,90.66Z"/><path class="cls-46" d="M338.13,90.61a180.59,180.59,0,0,0-152-82.9c-99.86,0-180.79,81-180.79,180.8A180.75,180.75,0,0,0,186.13,369.3c99.84,0,180.8-80.95,180.8-180.79A179.92,179.92,0,0,0,338.13,90.61Z"/><path class="cls-47" d="M338.1,90.56a180.8,180.8,0,1,0-152,278.69c99.84,0,180.8-80.95,180.8-180.79A179.92,179.92,0,0,0,338.1,90.56Z"/><path class="cls-48" d="M338.07,90.51a180.8,180.8,0,1,0,28.79,97.9A180.6,180.6,0,0,0,338.07,90.51Z"/><path class="cls-49" d="M338,90.46a180.8,180.8,0,1,0-152,278.7c99.84,0,180.8-81,180.8-180.8A179.92,179.92,0,0,0,338,90.46Z"/><path class="cls-50" d="M338,90.41a180.81,180.81,0,1,0-152,278.7c99.84,0,180.79-81,180.79-180.8A179.91,179.91,0,0,0,338,90.41Z"/><path class="cls-51" d="M338,90.37A180.81,180.81,0,1,0,186,369.06c99.85,0,180.8-81,180.8-180.8A179.94,179.94,0,0,0,338,90.37Z"/><path class="cls-52" d="M337.93,90.32A180.8,180.8,0,1,0,185.93,369c99.84,0,180.8-81,180.8-180.8A179.89,179.89,0,0,0,337.93,90.32Z"/><path class="cls-53" d="M337.9,90.27A180.81,180.81,0,1,0,185.9,369c99.84,0,180.79-80.95,180.79-180.8A179.88,179.88,0,0,0,337.9,90.27Z"/><path class="cls-54" d="M337.86,90.22a180.8,180.8,0,1,0-152,278.69c99.84,0,180.8-81,180.8-180.79A179.92,179.92,0,0,0,337.86,90.22Z"/><path class="cls-55" d="M337.83,90.17a180.8,180.8,0,1,0-152,278.69c99.84,0,180.8-80.95,180.8-180.79A179.92,179.92,0,0,0,337.83,90.17Z"/><path class="cls-56" d="M337.8,90.12A180.8,180.8,0,1,0,366.59,188,180.6,180.6,0,0,0,337.8,90.12Z"/><path class="cls-57" d="M337.76,90.07a180.8,180.8,0,1,0-152,278.7c99.84,0,180.8-81,180.8-180.8A179.92,179.92,0,0,0,337.76,90.07Z"/><path class="cls-58" d="M337.73,90a180.81,180.81,0,1,0-152,278.7c99.84,0,180.79-81,180.79-180.8A179.91,179.91,0,0,0,337.73,90Z"/><path class="cls-59" d="M337.7,90a180.81,180.81,0,1,0-152,278.69c99.85,0,180.8-81,180.8-180.8A179.94,179.94,0,0,0,337.7,90Z"/><path class="cls-60" d="M337.66,89.93a180.8,180.8,0,1,0-152,278.69c99.84,0,180.8-81,180.8-180.8A179.86,179.86,0,0,0,337.66,89.93Z"/><path class="cls-61" d="M337.63,89.88a180.81,180.81,0,1,0-152,278.69c99.84,0,180.79-80.95,180.79-180.8A179.88,179.88,0,0,0,337.63,89.88Z"/><path class="cls-62" d="M337.59,89.83a180.8,180.8,0,1,0-152,278.69c99.84,0,180.8-80.95,180.8-180.79A179.92,179.92,0,0,0,337.59,89.83Z"/><path class="cls-63" d="M337.56,89.78a180.8,180.8,0,1,0-152,278.69c99.84,0,180.8-81,180.8-180.79A179.92,179.92,0,0,0,337.56,89.78Z"/><path class="cls-64" d="M337.53,89.73a180.8,180.8,0,1,0,28.79,97.9A180.6,180.6,0,0,0,337.53,89.73Z"/><path class="cls-65" d="M337.49,89.68a180.8,180.8,0,1,0-152,278.7c99.84,0,180.8-81,180.8-180.8A179.92,179.92,0,0,0,337.49,89.68Z"/><path class="cls-66" d="M337.46,89.63a180.81,180.81,0,1,0-152,278.7c99.84,0,180.79-81,180.79-180.8A179.91,179.91,0,0,0,337.46,89.63Z"/><path class="cls-67" d="M337.42,89.59a180.57,180.57,0,0,0-152-82.91c-99.86,0-180.79,81-180.79,180.8a180.75,180.75,0,0,0,180.79,180.8c99.85,0,180.8-81,180.8-180.8A179.86,179.86,0,0,0,337.42,89.59Z"/><path class="cls-68" d="M337.39,89.54a180.8,180.8,0,1,0-152,278.69c99.84,0,180.8-81,180.8-180.8A179.86,179.86,0,0,0,337.39,89.54Z"/><path class="cls-69" d="M337.36,89.49a180.81,180.81,0,1,0-152,278.69c99.84,0,180.79-80.95,180.79-180.8A180,180,0,0,0,337.36,89.49Z"/><path class="cls-70" d="M337.32,89.44a180.8,180.8,0,1,0-152,278.69c99.84,0,180.8-80.95,180.8-180.79A179.89,179.89,0,0,0,337.32,89.44Z"/><path class="cls-71" d="M337.29,89.39a180.8,180.8,0,1,0-152,278.69c99.84,0,180.8-80.95,180.8-180.79A179.92,179.92,0,0,0,337.29,89.39Z"/><path class="cls-72" d="M337.26,89.34a180.61,180.61,0,0,0-152-82.9c-99.86,0-180.79,81-180.79,180.8A180.75,180.75,0,0,0,185.25,368c99.85,0,180.8-80.95,180.8-180.79A180,180,0,0,0,337.26,89.34Z"/><path class="cls-73" d="M337.22,89.29A180.8,180.8,0,1,0,185.22,368C285.06,368,366,287,366,187.19A179.92,179.92,0,0,0,337.22,89.29Z"/><path class="cls-74" d="M337.19,89.24a180.81,180.81,0,1,0-152,278.7C285,367.94,366,287,366,187.14A179.91,179.91,0,0,0,337.19,89.24Z"/><path class="cls-75" d="M337.15,89.2a180.57,180.57,0,0,0-152-82.91c-99.86,0-180.79,81-180.79,180.8a180.75,180.75,0,0,0,180.79,180.8c99.84,0,180.8-81,180.8-180.8A179.86,179.86,0,0,0,337.15,89.2Z"/><path class="cls-76" d="M337.12,89.15a180.8,180.8,0,1,0-152,278.69c99.84,0,180.8-81,180.8-180.8A179.86,179.86,0,0,0,337.12,89.15Z"/><path class="cls-77" d="M337.09,89.1a180.81,180.81,0,1,0-152,278.69c99.84,0,180.79-81,180.79-180.8A180,180,0,0,0,337.09,89.1Z"/><path class="cls-78" d="M337.05,89.05a180.8,180.8,0,1,0-152,278.69c99.84,0,180.8-80.95,180.8-180.8A179.89,179.89,0,0,0,337.05,89.05Z"/><path class="cls-79" d="M337,89a180.8,180.8,0,1,0,28.79,97.9A180.6,180.6,0,0,0,337,89Z"/><path class="cls-80" d="M337,89A180.61,180.61,0,0,0,185,6.05C85.12,6.05,4.19,87,4.19,186.85A180.75,180.75,0,0,0,185,367.64c99.85,0,180.8-80.95,180.8-180.79A180,180,0,0,0,337,89Z"/><path class="cls-81" d="M337,88.9A180.8,180.8,0,1,0,185,367.59c99.84,0,180.8-80.95,180.8-180.79A179.92,179.92,0,0,0,337,88.9Z"/><path class="cls-82" d="M336.92,88.85a180.81,180.81,0,1,0-152,278.7c99.84,0,180.79-81,180.79-180.8A179.91,179.91,0,0,0,336.92,88.85Z"/><path class="cls-83" d="M336.88,88.8a180.59,180.59,0,0,0-152-82.9C85,5.9,4.09,86.86,4.09,186.7A180.75,180.75,0,0,0,184.88,367.5c99.84,0,180.8-81,180.8-180.8A179.92,179.92,0,0,0,336.88,88.8Z"/><path class="cls-84" d="M336.85,88.76a180.8,180.8,0,1,0-152,278.69c99.84,0,180.8-81,180.8-180.8A179.86,179.86,0,0,0,336.85,88.76Z"/><path class="cls-85" d="M336.82,88.71a180.81,180.81,0,1,0-152,278.69c99.84,0,180.79-81,180.79-180.8A179.94,179.94,0,0,0,336.82,88.71Z"/><path class="cls-86" d="M336.78,88.66a180.8,180.8,0,1,0-152,278.69c99.84,0,180.8-81,180.8-180.8A179.89,179.89,0,0,0,336.78,88.66Z"/><path class="cls-87" d="M336.75,88.61a180.8,180.8,0,1,0,28.79,97.9A180.6,180.6,0,0,0,336.75,88.61Z"/><path class="cls-88" d="M336.72,88.56a180.61,180.61,0,0,0-152-82.9c-99.86,0-180.79,81-180.79,180.8A180.75,180.75,0,0,0,184.71,367.25c99.85,0,180.8-80.95,180.8-180.79A180,180,0,0,0,336.72,88.56Z"/><path class="cls-89" d="M336.68,88.51a180.8,180.8,0,1,0-152,278.69c99.84,0,180.8-80.95,180.8-180.79A179.92,179.92,0,0,0,336.68,88.51Z"/><path class="cls-90" d="M336.65,88.46a180.81,180.81,0,1,0-152,278.7c99.84,0,180.79-81,180.79-180.8A179.91,179.91,0,0,0,336.65,88.46Z"/><path class="cls-91" d="M336.61,88.41a180.59,180.59,0,0,0-152-82.9c-99.86,0-180.79,81-180.79,180.8a180.75,180.75,0,0,0,180.79,180.8c99.84,0,180.8-81,180.8-180.8A179.92,179.92,0,0,0,336.61,88.41Z"/><path class="cls-92" d="M336.58,88.37a180.8,180.8,0,1,0-152,278.69c99.84,0,180.8-81,180.8-180.8A179.86,179.86,0,0,0,336.58,88.37Z"/><path class="cls-93" d="M336.55,88.32A180.81,180.81,0,1,0,184.55,367c99.84,0,180.79-81,180.79-180.8A179.94,179.94,0,0,0,336.55,88.32Z"/><path class="cls-94" d="M336.51,88.27A180.8,180.8,0,1,0,184.51,367c99.84,0,180.8-80.95,180.8-180.8A179.89,179.89,0,0,0,336.51,88.27Z"/><path class="cls-95" d="M336.48,88.22a180.8,180.8,0,1,0,28.79,97.9A180.6,180.6,0,0,0,336.48,88.22Z"/><path class="cls-96" d="M336.45,88.17a180.61,180.61,0,0,0-152-82.9c-99.86,0-180.79,81-180.79,180.8A180.75,180.75,0,0,0,184.44,366.86c99.85,0,180.8-80.95,180.8-180.79A180,180,0,0,0,336.45,88.17Z"/><path class="cls-97" d="M336.41,88.12a180.8,180.8,0,1,0-152,278.69c99.84,0,180.8-80.95,180.8-180.79A179.92,179.92,0,0,0,336.41,88.12Z"/><path class="cls-98" d="M336.38,88.07A180.8,180.8,0,1,0,365.17,186,180.6,180.6,0,0,0,336.38,88.07Z"/><path class="cls-99" d="M336.34,88a180.59,180.59,0,0,0-152-82.9c-99.86,0-180.79,81-180.79,180.8a180.75,180.75,0,0,0,180.79,180.8c99.84,0,180.8-81,180.8-180.8A179.92,179.92,0,0,0,336.34,88Z"/><path class="cls-100" d="M336.31,88a180.8,180.8,0,1,0-152,278.69c99.84,0,180.8-81,180.8-180.8A179.86,179.86,0,0,0,336.31,88Z"/><path class="cls-101" d="M336.28,87.93a180.81,180.81,0,1,0-152,278.69c99.84,0,180.79-81,180.79-180.8A179.94,179.94,0,0,0,336.28,87.93Z"/><path class="cls-102" d="M336.24,87.88a180.8,180.8,0,1,0-152,278.69c99.84,0,180.8-80.95,180.8-180.8A179.89,179.89,0,0,0,336.24,87.88Z"/><path class="cls-103" d="M336.21,87.83a180.8,180.8,0,1,0-152,278.69c99.84,0,180.79-80.95,180.79-180.8A179.88,179.88,0,0,0,336.21,87.83Z"/><path class="cls-104" d="M336.18,87.78a180.61,180.61,0,0,0-152-82.9c-99.86,0-180.79,81-180.79,180.8A180.75,180.75,0,0,0,184.17,366.47c99.85,0,180.8-81,180.8-180.79A180,180,0,0,0,336.18,87.78Z"/><path class="cls-105" d="M336.14,87.73a180.8,180.8,0,1,0-152,278.69c99.84,0,180.8-80.95,180.8-180.79A179.92,179.92,0,0,0,336.14,87.73Z"/><path class="cls-106" d="M336.11,87.68a180.8,180.8,0,1,0,28.79,97.9A180.6,180.6,0,0,0,336.11,87.68Z"/><path class="cls-107" d="M336.07,87.63a180.6,180.6,0,0,0-152-82.9c-99.86,0-180.79,81-180.79,180.8a180.76,180.76,0,0,0,180.79,180.8c99.84,0,180.8-81,180.8-180.8A179.92,179.92,0,0,0,336.07,87.63Z"/><path class="cls-108" d="M336,87.58a180.81,180.81,0,1,0-152,278.7c99.84,0,180.8-81,180.8-180.8A179.92,179.92,0,0,0,336,87.58Z"/><path class="cls-109" d="M336,87.54A180.81,180.81,0,1,0,184,366.23c99.84,0,180.79-81,180.79-180.8A179.94,179.94,0,0,0,336,87.54Z"/><path class="cls-110" d="M336,87.49A180.8,180.8,0,1,0,184,366.18c99.84,0,180.8-81,180.8-180.8A179.86,179.86,0,0,0,336,87.49Z"/><path class="cls-111" d="M335.94,87.44a180.8,180.8,0,1,0-152,278.69c99.84,0,180.79-80.95,180.79-180.8A179.88,179.88,0,0,0,335.94,87.44Z"/><path class="cls-112" d="M335.91,87.39a180.81,180.81,0,1,0-152,278.69c99.85,0,180.8-80.95,180.8-180.79A180,180,0,0,0,335.91,87.39Z"/><path class="cls-113" d="M335.87,87.34A180.8,180.8,0,1,0,183.87,366c99.84,0,180.8-80.95,180.8-180.79A179.92,179.92,0,0,0,335.87,87.34Z"/><path class="cls-114" d="M335.84,87.29a180.8,180.8,0,1,0,28.79,97.9A180.6,180.6,0,0,0,335.84,87.29Z"/><path class="cls-115" d="M335.8,87.24a180.6,180.6,0,0,0-152-82.9C83.94,4.34,3,85.3,3,185.14A180.76,180.76,0,0,0,183.8,365.94c99.84,0,180.8-81,180.8-180.8A179.92,179.92,0,0,0,335.8,87.24Z"/><path class="cls-116" d="M335.77,87.19a180.81,180.81,0,1,0-152,278.7c99.84,0,180.8-81,180.8-180.8A179.92,179.92,0,0,0,335.77,87.19Z"/><path class="cls-117" d="M335.74,87.15a180.81,180.81,0,1,0-152,278.69c99.84,0,180.79-81,180.79-180.8A179.94,179.94,0,0,0,335.74,87.15Z"/><path class="cls-118" d="M335.7,87.1a180.8,180.8,0,1,0-152,278.69c99.84,0,180.8-81,180.8-180.8A179.86,179.86,0,0,0,335.7,87.1Z"/><path class="cls-119" d="M335.67,87.05a180.8,180.8,0,1,0-152,278.69c99.84,0,180.79-80.95,180.79-180.8A179.88,179.88,0,0,0,335.67,87.05Z"/><path class="cls-120" d="M335.63,87a180.8,180.8,0,1,0-152,278.69c99.85,0,180.8-80.95,180.8-180.79A179.92,179.92,0,0,0,335.63,87Z"/><path class="cls-121" d="M335.6,87a180.8,180.8,0,1,0-152,278.69c99.84,0,180.8-80.95,180.8-180.79A179.92,179.92,0,0,0,335.6,87Z"/><path class="cls-122" d="M335.57,86.9a180.8,180.8,0,1,0,28.79,97.9A180.6,180.6,0,0,0,335.57,86.9Z"/><path class="cls-123" d="M335.53,86.85A180.6,180.6,0,0,0,183.53,4C83.67,4,2.74,84.91,2.74,184.75a180.76,180.76,0,0,0,180.79,180.8c99.84,0,180.8-81,180.8-180.8A179.92,179.92,0,0,0,335.53,86.85Z"/><path class="cls-124" d="M335.5,86.8a180.81,180.81,0,1,0-152,278.7c99.84,0,180.8-81,180.8-180.8A179.92,179.92,0,0,0,335.5,86.8Z"/><path class="cls-125" d="M335.47,86.76a180.59,180.59,0,0,0-152-82.91c-99.86,0-180.79,81-180.79,180.8a180.75,180.75,0,0,0,180.79,180.8c99.85,0,180.8-81,180.8-180.8A179.94,179.94,0,0,0,335.47,86.76Z"/><path class="cls-126" d="M335.43,86.71a180.8,180.8,0,1,0-152,278.69c99.84,0,180.8-81,180.8-180.8A179.86,179.86,0,0,0,335.43,86.71Z"/><path class="cls-127" d="M335.4,86.66a180.8,180.8,0,1,0-152,278.69c99.84,0,180.79-81,180.79-180.8A179.88,179.88,0,0,0,335.4,86.66Z"/><path class="cls-128" d="M335.36,86.61a180.8,180.8,0,1,0-152,278.69c99.84,0,180.8-80.95,180.8-180.79A179.89,179.89,0,0,0,335.36,86.61Z"/><path class="cls-129" d="M335.33,86.56a180.8,180.8,0,1,0-152,278.69c99.84,0,180.8-80.95,180.8-180.79A179.92,179.92,0,0,0,335.33,86.56Z"/><path class="cls-130" d="M335.3,86.51a180.8,180.8,0,1,0,28.79,97.9A180.6,180.6,0,0,0,335.3,86.51Z"/><path class="cls-131" d="M335.26,86.46a180.6,180.6,0,0,0-152-82.9c-99.86,0-180.79,81-180.79,180.8A180.75,180.75,0,0,0,183.26,365.15c99.84,0,180.8-80.95,180.8-180.79A179.92,179.92,0,0,0,335.26,86.46Z"/><path class="cls-132" d="M335.23,86.41a180.81,180.81,0,1,0-152,278.7c99.84,0,180.79-81,180.79-180.8A179.91,179.91,0,0,0,335.23,86.41Z"/><path class="cls-133" d="M335.2,86.37a180.59,180.59,0,0,0-152-82.91C83.33,3.46,2.4,84.42,2.4,184.26a180.75,180.75,0,0,0,180.79,180.8c99.85,0,180.8-81,180.8-180.8A179.94,179.94,0,0,0,335.2,86.37Z"/><path class="cls-134" d="M335.16,86.32A180.8,180.8,0,1,0,183.16,365c99.84,0,180.8-81,180.8-180.8A179.86,179.86,0,0,0,335.16,86.32Z"/><path class="cls-135" d="M335.13,86.27A180.81,180.81,0,1,0,183.13,365C283,365,363.92,284,363.92,184.16A179.88,179.88,0,0,0,335.13,86.27Z"/><path class="cls-136" d="M335.09,86.22a180.8,180.8,0,1,0-152,278.69c99.84,0,180.8-81,180.8-180.8A179.89,179.89,0,0,0,335.09,86.22Z"/><path class="cls-137" d="M335.06,86.17a180.8,180.8,0,1,0-152,278.69c99.84,0,180.8-80.95,180.8-180.79A179.92,179.92,0,0,0,335.06,86.17Z"/><path class="cls-138" d="M335,86.12A180.8,180.8,0,1,0,363.82,184,180.6,180.6,0,0,0,335,86.12Z"/><path class="cls-139" d="M335,86.07A180.6,180.6,0,0,0,183,3.17C83.13,3.17,2.2,84.13,2.2,184A180.75,180.75,0,0,0,183,364.76c99.84,0,180.8-80.95,180.8-180.79A179.92,179.92,0,0,0,335,86.07Z"/><path class="cls-140" d="M335,86a180.8,180.8,0,1,0-152,278.7c99.84,0,180.79-81,180.79-180.8A179.91,179.91,0,0,0,335,86Z"/><path class="cls-141" d="M334.93,86a180.61,180.61,0,0,0-152-82.9C83.06,3.07,2.13,84,2.13,183.87a180.75,180.75,0,0,0,180.79,180.8c99.85,0,180.8-81,180.8-180.8A180,180,0,0,0,334.93,86Z"/><path class="cls-142" d="M334.89,85.93a180.8,180.8,0,1,0-152,278.69c99.84,0,180.8-81,180.8-180.8A179.86,179.86,0,0,0,334.89,85.93Z"/><path class="cls-143" d="M334.86,85.88a180.81,180.81,0,1,0-152,278.69c99.84,0,180.79-81,180.79-180.8A179.85,179.85,0,0,0,334.86,85.88Z"/><path class="cls-144" d="M334.82,85.83a180.8,180.8,0,1,0-152,278.69c99.84,0,180.8-80.95,180.8-180.8A179.89,179.89,0,0,0,334.82,85.83Z"/><path class="cls-145" d="M334.79,85.78a180.8,180.8,0,1,0-152,278.69c99.84,0,180.8-81,180.8-180.79A179.92,179.92,0,0,0,334.79,85.78Z"/><path class="cls-146" d="M334.76,85.73a180.8,180.8,0,1,0,28.79,97.9A180.6,180.6,0,0,0,334.76,85.73Z"/><path class="cls-147" d="M334.72,85.68a180.6,180.6,0,0,0-152-82.9c-99.86,0-180.79,81-180.79,180.8A180.75,180.75,0,0,0,182.72,364.37c99.84,0,180.8-80.95,180.8-180.79A179.92,179.92,0,0,0,334.72,85.68Z"/><path class="cls-148" d="M334.69,85.63a180.8,180.8,0,1,0-152,278.7c99.84,0,180.79-81,180.79-180.8A179.91,179.91,0,0,0,334.69,85.63Z"/><path class="cls-149" d="M334.66,85.58a180.61,180.61,0,0,0-152-82.9c-99.86,0-180.79,81-180.79,180.8a180.75,180.75,0,0,0,180.79,180.8c99.85,0,180.8-81,180.8-180.8A180,180,0,0,0,334.66,85.58Z"/><path class="cls-150" d="M334.62,85.54a180.8,180.8,0,1,0-152,278.69c99.84,0,180.8-81,180.8-180.8A179.86,179.86,0,0,0,334.62,85.54Z"/><path class="cls-151" d="M334.59,85.49a180.81,180.81,0,1,0-152,278.69c99.84,0,180.79-81,180.79-180.8A179.85,179.85,0,0,0,334.59,85.49Z"/><path class="cls-152" d="M334.55,85.44a180.8,180.8,0,1,0-152,278.69c99.84,0,180.8-80.95,180.8-180.8A179.89,179.89,0,0,0,334.55,85.44Z"/><path class="cls-153" d="M334.52,85.39a180.8,180.8,0,1,0-152,278.69c99.84,0,180.8-80.95,180.8-180.79A179.89,179.89,0,0,0,334.52,85.39Z"/><path class="cls-154" d="M334.49,85.34a180.8,180.8,0,1,0,28.79,97.9A180.6,180.6,0,0,0,334.49,85.34Z"/><path class="cls-155" d="M334.45,85.29A180.8,180.8,0,1,0,182.45,364c99.84,0,180.8-81,180.8-180.79A179.92,179.92,0,0,0,334.45,85.29Z"/><path class="cls-156" d="M334.42,85.24a180.8,180.8,0,1,0,28.79,97.9A180.6,180.6,0,0,0,334.42,85.24Z"/><path class="cls-157" d="M334.39,85.19a180.61,180.61,0,0,0-152-82.9c-99.86,0-180.79,81-180.79,180.8a180.75,180.75,0,0,0,180.79,180.8c99.85,0,180.8-81,180.8-180.8A180,180,0,0,0,334.39,85.19Z"/><path class="cls-158" d="M334.35,85.15a180.8,180.8,0,1,0-152,278.69c99.84,0,180.8-81,180.8-180.8A179.86,179.86,0,0,0,334.35,85.15Z"/><path class="cls-159" d="M334.32,85.1a180.81,180.81,0,1,0-152,278.69c99.84,0,180.79-81,180.79-180.8A179.85,179.85,0,0,0,334.32,85.1Z"/><path class="cls-160" d="M334.28,85.05a180.8,180.8,0,1,0-152,278.69c99.84,0,180.8-80.95,180.8-180.8A179.89,179.89,0,0,0,334.28,85.05Z"/><path class="cls-161" d="M334.25,85a180.8,180.8,0,1,0-152,278.69c99.84,0,180.8-80.95,180.8-180.8A179.89,179.89,0,0,0,334.25,85Z"/><path class="cls-162" d="M334.22,85A180.8,180.8,0,1,0,363,182.85,180.6,180.6,0,0,0,334.22,85Z"/><path class="cls-163" d="M334.18,84.9a180.8,180.8,0,1,0-152,278.69C282,363.59,363,282.64,363,182.8A179.92,179.92,0,0,0,334.18,84.9Z"/><path class="cls-164" d="M334.15,84.85a180.8,180.8,0,1,0,28.79,97.9A180.6,180.6,0,0,0,334.15,84.85Z"/><path class="cls-165" d="M334.12,84.8a180.62,180.62,0,0,0-152-82.9C82.25,1.9,1.32,82.86,1.32,182.7A180.76,180.76,0,0,0,182.11,363.5c99.85,0,180.8-81,180.8-180.8A180,180,0,0,0,334.12,84.8Z"/><path class="cls-166" d="M334.08,84.75a180.81,180.81,0,1,0-152,278.7c99.84,0,180.8-81,180.8-180.8A179.92,179.92,0,0,0,334.08,84.75Z"/><path class="cls-167" d="M334.05,84.71a180.81,180.81,0,1,0-152,278.69c99.84,0,180.79-81,180.79-180.8A179.85,179.85,0,0,0,334.05,84.71Z"/><path class="cls-168" d="M334,84.66A180.8,180.8,0,1,0,182,363.35c99.84,0,180.8-81,180.8-180.8A179.86,179.86,0,0,0,334,84.66Z"/><path class="cls-169" d="M334,84.61A180.8,180.8,0,1,0,182,363.3c99.84,0,180.8-80.95,180.8-180.8A179.89,179.89,0,0,0,334,84.61Z"/><path class="cls-170" d="M334,84.56a180.8,180.8,0,1,0,28.79,97.9A180.6,180.6,0,0,0,334,84.56Z"/><path class="cls-171" d="M333.91,84.51a180.8,180.8,0,1,0-152,278.69c99.84,0,180.8-80.95,180.8-180.79A179.92,179.92,0,0,0,333.91,84.51Z"/><path class="cls-172" d="M333.88,84.46a180.8,180.8,0,1,0,28.79,97.9A180.6,180.6,0,0,0,333.88,84.46Z"/><path class="cls-173" d="M333.84,84.41a180.59,180.59,0,0,0-152-82.9C82,1.51,1.05,82.47,1.05,182.31a180.76,180.76,0,0,0,180.79,180.8c99.84,0,180.8-81,180.8-180.8A179.92,179.92,0,0,0,333.84,84.41Z"/><path class="cls-174" d="M333.81,84.36a180.81,180.81,0,1,0-152,278.7c99.84,0,180.8-81,180.8-180.8A179.92,179.92,0,0,0,333.81,84.36Z"/><path class="cls-175" d="M333.78,84.32A180.81,180.81,0,1,0,181.78,363c99.84,0,180.79-81,180.79-180.8A179.94,179.94,0,0,0,333.78,84.32Z"/><path class="cls-176" d="M333.74,84.27A180.8,180.8,0,1,0,181.74,363c99.84,0,180.8-81,180.8-180.8A179.86,179.86,0,0,0,333.74,84.27Z"/><path class="cls-177" d="M333.71,84.22a180.8,180.8,0,1,0-152,278.69c99.84,0,180.8-81,180.8-180.8A179.89,179.89,0,0,0,333.71,84.22Z"/><path class="cls-178" d="M333.68,84.17a180.81,180.81,0,1,0-152,278.69c99.85,0,180.8-80.95,180.8-180.79A180,180,0,0,0,333.68,84.17Z"/><path class="cls-179" d="M333.64,84.12a180.8,180.8,0,1,0-152,278.69c99.84,0,180.8-80.95,180.8-180.79A179.92,179.92,0,0,0,333.64,84.12Z"/><path class="cls-180" d="M333.61,84.07A180.8,180.8,0,1,0,362.4,182,180.6,180.6,0,0,0,333.61,84.07Z"/><path class="cls-181" d="M333.57,84a180.59,180.59,0,0,0-152-82.9C81.71,1.12.78,82.08.78,181.92a180.76,180.76,0,0,0,180.79,180.8c99.84,0,180.8-81,180.8-180.8A179.92,179.92,0,0,0,333.57,84Z"/><path class="cls-182" d="M333.54,84a180.81,180.81,0,1,0-152,278.7c99.84,0,180.8-81,180.8-180.8A179.92,179.92,0,0,0,333.54,84Z"/><path class="cls-183" d="M333.51,83.93a180.81,180.81,0,1,0-152,278.69c99.84,0,180.79-81,180.79-180.8A179.94,179.94,0,0,0,333.51,83.93Z"/><path class="cls-184" d="M333.47,83.88a180.8,180.8,0,1,0-152,278.69c99.84,0,180.8-81,180.8-180.8A179.86,179.86,0,0,0,333.47,83.88Z"/><path class="cls-185" d="M333.44,83.83a180.8,180.8,0,1,0-152,278.69c99.84,0,180.79-80.95,180.79-180.8A179.88,179.88,0,0,0,333.44,83.83Z"/><path class="cls-186" d="M333.41,83.78a180.8,180.8,0,1,0,28.79,97.89A180.61,180.61,0,0,0,333.41,83.78Z"/><path class="cls-187" d="M333.37,83.73a180.8,180.8,0,1,0-152,278.69c99.84,0,180.8-80.95,180.8-180.79A179.92,179.92,0,0,0,333.37,83.73Z"/><path class="cls-188" d="M333.34,83.68a180.8,180.8,0,1,0,28.79,97.9A180.6,180.6,0,0,0,333.34,83.68Z"/><path class="cls-189" d="M333.3,83.63A180.59,180.59,0,0,0,181.3.73C81.44.73.51,81.69.51,181.53A180.75,180.75,0,0,0,181.3,362.32c99.84,0,180.8-80.95,180.8-180.79A179.92,179.92,0,0,0,333.3,83.63Z"/><path class="cls-190" d="M333.27,83.58a180.81,180.81,0,1,0-152,278.7c99.84,0,180.8-81,180.8-180.8A179.92,179.92,0,0,0,333.27,83.58Z"/><path class="cls-191" d="M333.24,83.54a180.81,180.81,0,1,0-152,278.69c99.84,0,180.79-81,180.79-180.8A179.94,179.94,0,0,0,333.24,83.54Z"/><path class="cls-192" d="M333.2,83.49a180.8,180.8,0,1,0-152,278.69c99.84,0,180.8-81,180.8-180.8A179.86,179.86,0,0,0,333.2,83.49Z"/><path class="cls-193" d="M333.17,83.44a180.8,180.8,0,1,0-152,278.69C281,362.13,362,281.18,362,181.33A179.88,179.88,0,0,0,333.17,83.44Z"/><path class="cls-194" d="M333.14,83.39a180.8,180.8,0,1,0,28.79,97.89A180.61,180.61,0,0,0,333.14,83.39Z"/><path class="cls-195" d="M333.1,83.34A180.8,180.8,0,1,0,181.1,362c99.84,0,180.8-80.95,180.8-180.79A179.92,179.92,0,0,0,333.1,83.34Z"/><path class="cls-196" d="M333.07,83.29a180.8,180.8,0,1,0,28.79,97.9A180.6,180.6,0,0,0,333.07,83.29Z"/><path class="cls-197" d="M333,83.24A180.59,180.59,0,0,0,181,.34C81.17.34.24,81.3.24,181.14A180.75,180.75,0,0,0,181,361.93c99.84,0,180.8-80.95,180.8-180.79A179.92,179.92,0,0,0,333,83.24Z"/><path class="cls-198" d="M333,83.19a180.8,180.8,0,1,0-152,278.7c99.84,0,180.8-81,180.8-180.8A179.92,179.92,0,0,0,333,83.19Z"/><path class="cls-199" d="M333,83.14a180.81,180.81,0,1,0-152,278.7c99.84,0,180.79-81,180.79-180.8A180,180,0,0,0,333,83.14Z"/><path class="cls-200" d="M332.93,83.1a180.8,180.8,0,1,0-152,278.69c99.84,0,180.8-81,180.8-180.8A179.86,179.86,0,0,0,332.93,83.1Z"/><path class="cls-201" d="M332.9,83.05a180.8,180.8,0,1,0-152,278.69c99.84,0,180.79-81,180.79-180.8A179.85,179.85,0,0,0,332.9,83.05Z"/><path class="cls-202" d="M332.87,83a180.8,180.8,0,1,0,28.79,97.89A180.61,180.61,0,0,0,332.87,83Z"/><path class="cls-203" d="M332.83,83a180.8,180.8,0,1,0-152,278.69c99.84,0,180.8-80.95,180.8-180.79A179.92,179.92,0,0,0,332.83,83Z"/><path class="cls-204" d="M332.8,82.9a180.8,180.8,0,1,0,28.79,97.9A180.6,180.6,0,0,0,332.8,82.9Z"/></g><path class="cls-205" d="M361.59,180.8A180.78,180.78,0,1,1,332.8,82.9,180.8,180.8,0,0,1,361.59,180.8Z"/><path class="cls-206" d="M361.59,180.8a180.81,180.81,0,0,1-326,107.78A180.8,180.8,0,0,1,332.8,82.9,179.91,179.91,0,0,1,361.59,180.8Z"/></g></g></g></svg>