<svg xmlns="http://www.w3.org/2000/svg" xmlns:xlink="http://www.w3.org/1999/xlink" viewBox="0 0 1200 478.35"><defs><style>.cls-1{fill:url(#linear-gradient);}.cls-2{fill:url(#linear-gradient-2);}.cls-3{fill:url(#linear-gradient-3);}.cls-4{fill:url(#linear-gradient-4);}.cls-5{fill:url(#linear-gradient-5);}.cls-6{fill:url(#linear-gradient-6);}.cls-7{fill:url(#linear-gradient-7);}</style><linearGradient id="linear-gradient" x1="600.99" y1="19.65" x2="597.75" y2="178.61" gradientUnits="userSpaceOnUse"><stop offset="0" stop-color="#2057a7"/><stop offset="1" stop-color="#1f3868"/></linearGradient><linearGradient id="linear-gradient-2" x1="600" y1="97.24" x2="600" y2="178.72" gradientUnits="userSpaceOnUse"><stop offset="0" stop-color="#3367b2"/><stop offset="1" stop-color="#2057a7"/></linearGradient><linearGradient id="linear-gradient-3" x1="600" y1="108" x2="600" y2="192.93" gradientUnits="userSpaceOnUse"><stop offset="0" stop-color="#477dc0"/><stop offset="1" stop-color="#3367b2"/></linearGradient><linearGradient id="linear-gradient-4" x1="600" y1="268.98" x2="600" y2="171.66" gradientUnits="userSpaceOnUse"><stop offset="0" stop-color="#477dc0"/><stop offset="1" stop-color="#589bd4"/></linearGradient><linearGradient id="linear-gradient-5" x1="600" y1="230.78" x2="600" y2="341.38" gradientUnits="userSpaceOnUse"><stop offset="0" stop-color="#64b6e6"/><stop offset="1" stop-color="#589bd4"/></linearGradient><linearGradient id="linear-gradient-6" x1="600" y1="320.44" x2="600" y2="389.95" gradientUnits="userSpaceOnUse"><stop offset="0" stop-color="#8ed7f1"/><stop offset="1" stop-color="#6fd0f6"/></linearGradient><linearGradient id="linear-gradient-7" x1="600" y1="516.85" x2="600" y2="401.94" gradientUnits="userSpaceOnUse"><stop offset="0" stop-color="#a9dfed"/><stop offset="1" stop-color="#c3e7ef"/></linearGradient></defs><g id="Layer_2" data-name="Layer 2"><g id="Layer_1-2" data-name="Layer 1"><path class="cls-1" d="M1000,55.58C900,55.58,900,0,800,0S700,55.58,600,55.58,500,0,400,0,300,55.58,200,55.58,100,0,0,0V136.37H1200V0C1100,0,1100,55.58,1000,55.58Z"/><path class="cls-2" d="M1080,110.54c-60,0-60-46.88-120-46.88s-60,46.88-120,46.88S780,63.66,720,63.66s-60,46.88-120,46.88S540,63.66,480,63.66s-60,46.88-120,46.88S300,63.66,240,63.66s-60,46.88-120,46.88S60,63.66,0,63.66V211.94H1200V63.66C1140,63.66,1140,110.54,1080,110.54Z"/><path class="cls-3" d="M1000,90.76c-100,0-100,55.59-200,55.59S700,90.76,600,90.76s-100,55.59-200,55.59S300,90.76,200,90.76,100,146.35,0,146.35v80.78H1200V146.35C1100,146.35,1100,90.76,1000,90.76Z"/><path class="cls-4" d="M1080,202.29c-60,0-60-43.35-120-43.35s-60,43.35-120,43.35-60-43.35-120-43.35-60,43.35-120,43.35-60-43.35-120-43.35-60,43.35-120,43.35-60-43.35-120-43.35-60,43.35-120,43.35S60,158.94,0,158.94V474.88H1200V158.94C1140,158.94,1140,202.29,1080,202.29Z"/><path class="cls-5" d="M900,217.23c-150,0-150,63.23-300,63.23s-150-63.23-300-63.23S150,280.46,0,280.46V425.25H1200V280.46C1050,280.46,1050,217.23,900,217.23Z"/><path class="cls-6" d="M1080,286.82c-60,0-60,46.88-120,46.88s-60-46.88-120-46.88S780,333.7,720,333.7s-60-46.88-120-46.88S540,333.7,480,333.7s-60-46.88-120-46.88S300,333.7,240,333.7s-60-46.88-120-46.88S60,333.7,0,333.7V435.1H1200V333.7C1140,333.7,1140,286.82,1080,286.82Z"/><path class="cls-7" d="M1000,416.45c-100,0-100-42.6-200-42.6s-100,42.6-200,42.6-100-42.6-200-42.6-100,42.6-200,42.6-100-42.6-200-42.6v104.5H1200V373.85C1100,373.85,1100,416.45,1000,416.45Z"/></g></g></svg>