<svg xmlns="http://www.w3.org/2000/svg" xmlns:xlink="http://www.w3.org/1999/xlink" viewBox="0 0 180.88 68.52"><defs><style>.cls-1{fill:none;}.cls-2{clip-path:url(#clip-path);}.cls-3{fill:#253649;}.cls-4{clip-path:url(#clip-path-2);}.cls-5{clip-path:url(#clip-path-3);}</style><clipPath id="clip-path" transform="translate(0 0.01)"><rect class="cls-1" x="1.53" width="179.34" height="49.84"/></clipPath><clipPath id="clip-path-2" transform="translate(0 0.01)"><rect class="cls-1" x="68.83" y="50.85" width="26" height="17.66"/></clipPath><clipPath id="clip-path-3" transform="translate(0 0.01)"><rect class="cls-1" y="15.44" width="70.2" height="46.67"/></clipPath></defs><g id="Layer_2" data-name="Layer 2"><g id="Layer_1-2" data-name="Layer 1"><g class="cls-2"><path class="cls-3" d="M1.77,15s16.87-9.43,36-2.78S60.17,28.12,73,28.68s25.77-9.8,34.67-16.83,22.25-17.2,38.75-8.51c0,0,21.7.37,31,9.81,0,0,4.45,2.58,3.34,9.43,0,0-2.79-4.62-5.94-4.81S157.7,16.11,148.24,5c0,0,6.68,9.06.94,16.09s-8.35,2-9.65,10.54c0,0-4.82-7.58-1.29-13.13S149,11.67,146.58,5.93s-17.8,6.29-21.14,11.66-17.25,22-27.25,26.25-27.82,9.62-38.76,1.3c0,0,3-2.4,1.67-5.18s-3.33,3.7-3.33,3.7-6.5-.37-12.06-7.77S24,11.11,1.77,15" transform="translate(0 0.01)"/></g><path class="cls-3" d="M121.73,24.75s-8.57,24.55-49,26.77c0,0,1,1.08,6.36,3.51.42.19,2.82.91,3.26,1a3.5,3.5,0,0,1,2.22,1.84S112.09,56,121.73,24.75" transform="translate(0 0.01)"/><g class="cls-4"><path class="cls-3" d="M68.87,50.88s4.64,3.86,8.85,5.24,7.19,5,8.74,6.62,5.48,4.86,8.18,5.13c0,0-5.08,2.54-14.87-2.42s-11-9.44-10.9-14.57" transform="translate(0 0.01)"/></g><g class="cls-5"><path class="cls-3" d="M66.82,51.48S57.69,49.94,51.06,44,37.61,30.08,32,26.55s-14.44-8.23-20.13-9A30,30,0,0,0,0,18.71s3.53,15.88,30,30.8,40,11,40,11-2.93-2-3.24-9.07" transform="translate(0 0.01)"/></g></g></g></svg>