<svg xmlns="http://www.w3.org/2000/svg" viewBox="0 0 880.24 522.01"><defs><style>.cls-1{opacity:0.5;}.cls-2{fill:#f2f2f2;}</style></defs><g id="Layer_2" data-name="Layer 2"><g id="Object"><g class="cls-1"><path class="cls-2" d="M374.91,365.59a11.32,11.32,0,0,0-.73-2.44q-4.05,4.53-8.13,9.05c.05.4-.77,1.13-1.11,1.27-9.45,10.84-18.81,21.45-29.86,30.73a.91.91,0,0,1-.57.48l-6.75,5.67c-.19.59-.59,1.84-1.51,1.26-9,7.3-17.48,15.16-26.58,22.33a7.08,7.08,0,0,1,1.78,1.8,6.44,6.44,0,0,0,5.68,2.62,4.28,4.28,0,0,1,1.74-4.26c1.52.76,2,2.13,1.38,4.09,24.8-20.25,46-41.95,67.09-65.76a13.28,13.28,0,0,1-3.55-1.38C373.84,369.17,373.8,367.26,374.91,365.59Zm-37.3,37.46c-.05-.12-.11-.23-.17-.35.12-.06.26-.18.35-.15C338.05,402.83,338,403,337.61,403.05Z"/><path class="cls-2" d="M301.47,439.08a5.42,5.42,0,0,1-2.16,4.16,5.42,5.42,0,0,0,2.16-4.16,9.72,9.72,0,0,1-5-2.6C283,447,269.23,457.2,255.35,467.1c3.65,1.33,7.27,2.83,10.84,4.46.64-.45,1.29-.87,1.92-1.32,4.22-2.9,8.24-6,12.34-9-.47-.32.6-1.55.77-.56,1.71-1.23,3.41-2.48,5.1-3.73-.38-1.37-.51-2.83-1.52-3.94-1.21-3.07-.54-5.18,2-6.33,1.39,3.16,1.39,3.16,4.57,3l1.55,1.35a2.62,2.62,0,0,1-3,.71c-.61.69-1.94,2.18-.61,3,4.62-3.48,10.71-8.2,17.93-14a3.71,3.71,0,0,0-.26-.53Zm-33,27.34c-.27-.76.13-1.11.79-1.31Zm3.23-4.4c-.24-.39-.17-.75.27-.84s.63.14,1,.22C272.94,462.32,272.53,462.52,271.75,462Z"/><path class="cls-2" d="M383.07,219.67C336.41,158.53,367.62,79.29,402.24,21c.13-1.82,1.53-18.56,6.49-17.42a4.07,4.07,0,0,1,1.71,3.27c.44-.88,3-5.47,1.69-6.44C403.5-6,366.83,73.51,364.36,81.17c-10.53,32.65-14.51,65.7-6,99.26,4.49,17.72,12.82,33.06,24,47.46,10.24,13.19,20.72,24.57,23.85,41.59,5.54,30.16-9.58,68.24-29.45,90.78l2.57,2h0c.37-2.22,6.28-6.78,8-4.18,2.06,3.19-8.24,4.32-8,4.19h0a4.27,4.27,0,0,0,0,3.2l1.07.12c.13,1,.28,2,.39,3,10.1-11.72,17.1-25.31,23-39.56l-.95.44.95-.44A151.42,151.42,0,0,0,412,303.23c-2.06,1-.84-3.67.34-1.61.09-.42.17-.86.25-1.28-1.07.41-2.14.83-3.23,1.19,1.09-.36,2.16-.78,3.23-1.19,6.45-31.95-8.3-54.14-27.48-78C384.81,225.9,381.72,221.84,383.07,219.67ZM399.87,327a.83.83,0,0,1,1.18-.7C401.88,326.66,400.89,328.7,399.87,327Zm10.33-29.66c.92-1,1.8-1.09,2.63-.31.1,1.1-.5,1.69-1.82,1.79C410,298.72,409.72,298.23,410.2,297.38Z"/><path class="cls-2" d="M486.9,169.88a10.62,10.62,0,0,1,2.74.16c-6.7-15.5-13.73-29.63-25.26-42.25-10.94-12-23.59-21.83-33.41-34.87a2,2,0,0,1-1.14-1.49c-12-15.3-16.56-33-19.34-51.73-.85.08-.13-.62-.09-.6-1.38-10.82.84-21.56,0-32.3C408,11.68,405,16.27,402.24,21c-.82,11.94,3,21.88,4.28,33.38a5.16,5.16,0,0,1,1.59-.4c0,1.34,0,2.68,0,4a3.53,3.53,0,0,1-1.16-.29c4.54,31.55,35,54.06,53.33,77.29A121.06,121.06,0,0,1,484.32,188c.56,3.06,1.58,37.39,1.72,37.43,15.13,3.86,7.12-45.9,5.31-51C489.38,175.3,487.83,171.08,486.9,169.88Zm-56.1-69.7c-.55-.29-.64-.6-.25-.92s.58-.06.71.3Zm47.08,51.25a1.14,1.14,0,0,1,.83-.49C481.54,152.24,476.82,154.65,477.88,151.43Zm5.59,13.47c-.38-.06-.45-.24-.19-.53C483.67,164.43,483.73,164.61,483.47,164.9Z"/><path class="cls-2" d="M408.73,3.53c-4.92-1.13-6.34,15.3-6.49,17.42,2.78-4.68,5.76-9.27,8.2-14.15A4.07,4.07,0,0,0,408.73,3.53Z"/><path class="cls-2" d="M713.25,187.46c-.69,2.68-1.74,2-2.9,0h0c-24.89.31-50.38.78-75.11-2.58-21.1-2.87-42.59-7-64-5.43-19.06,1.41-37.77,6.28-53.89,16.81-1.19.78-28.95,23.08-23.66,26.21C496,224,522.81,204,526.75,202.06A124.45,124.45,0,0,1,584,188.74c44.45.43,87.52,6.93,132.3,4.5a1.87,1.87,0,0,1,2.33-1.28l.18-.12a4.78,4.78,0,0,1,1.72,1.15c49.63-3.2,101.42-10.06,147.75-29.11q3-4.09,6.34-8c-25.24,3.31-48.79,16.21-73.83,20.63C771.72,181.68,742.92,186.61,713.25,187.46Zm40.43,2c.73-.11,1.08-.67,2-2.11C754.76,188.84,754.41,189.4,753.68,189.51Zm1.9-2.12a.41.41,0,0,0,0-.11c-.27-.15-.27-.24,0-.27l0,.27.11.06Zm92.89-19.48c-.36.2-.57.09-.61-.32C848.17,167.07,848.38,167.18,848.47,167.91Z"/><path class="cls-2" d="M718.67,192a2.93,2.93,0,0,1-1,1.2l2.91-.17a4.78,4.78,0,0,0-1.72-1.15Z"/><path class="cls-2" d="M878.08,158.92c1.51-.93,1.89-1.77,1.15-2.51C878.88,157.26,878.5,158.1,878.08,158.92Z"/><path class="cls-2" d="M840.24,198.34a9.56,9.56,0,0,1,.24,1.23l-2,1.11c0,1,0,2-.05,3a2.83,2.83,0,0,1-1.62-1.6c-3.22,3.44-6.49,7.14-10.15,10.7,0,2.61-3.08,7.6-3.49,3.37-26.85,25.95-58.64,48.66-93.27,63.13h0c-.42.59-.75.89-1.24,1,.49-.07.82-.37,1.24-1-11.06,4.62-22.24,9.37-33.76,12.72a4.08,4.08,0,0,1,1.91,2.53c-1.32,2.3-2.67-.46-3.86-2a349.17,349.17,0,0,1-47.92,10c2.25,7.32-9,6.23-7.29,1.28,0-.16-.06-.32-.1-.47-14.84.8-29.58,2-44.45,2.36.17.32.35.63.53.94-.78,8.82-3.56,5.11-5.9-.8-14.72.45-29.37,1.61-43.67,5.31,2.08,3.09-3.69,6.21-4.93,1.39-48.43,15-60.24,55.64-74.55,99.63-12.39,38.1-32.57,69.51-51.32,104.23,1.56,0,3.1-.07,4.65-.12,15.62-14.38,27.36-32.5,36.64-51.52-6.11-.45-4.48-5.69.53-4.56a2.49,2.49,0,0,0-.72-.47l-.59-.69c1.65-.59,1.92-.18,3.26.42a391.67,391.67,0,0,0,15.6-39.77c-1.07-.56-.1-1.56.62-1.9l.91-2.85a7.4,7.4,0,0,1-2,.39l2-.44q2.16-6.75,4-13.6a2.07,2.07,0,0,1,.8-2.95,182,182,0,0,1,11.07-31.09,1.57,1.57,0,0,1-.47-.62c.32-.4.67-.68,1-.5,18.3-38,50.09-49.87,90.69-52.61,33.65-2.27,66.51-3.46,99.39-11.73a3.81,3.81,0,0,1-2-3.59,3.56,3.56,0,0,1,3.66,3.19c55.62-14.59,105.85-44,147.76-82.84,0-.57.69-2.93,1.69-1.59,17.2-16.78,34.38-36.4,45.06-58.08-2.72,2.2-6.62,3.67-9.76,5A386.84,386.84,0,0,1,840.24,198.34ZM554.13,312.66c-2,.16-2.38-.41-1-1.7Q556.19,310.9,554.13,312.66Zm6.68-1.24a1.33,1.33,0,0,1-.49,0C560.77,310.85,560.94,310.84,560.81,311.42Zm9,.71c-.44.85-3.44-1.16-3.38-1.81C567,309.91,570.21,311.28,569.79,312.13Zm31.7-4.56.13-.39.29.32ZM840.77,205.75c-.5-.2-.6-.58-.3-1.13a9.4,9.4,0,0,1,1.06,0C841.27,205.05,841,205.79,840.77,205.75Z"/><path class="cls-2" d="M728.63,280.22c.49-.07.82-.37,1.24-1h0C729.45,279.85,729.12,280.15,728.63,280.22Z"/><path class="cls-2" d="M874.66,155.91a8.12,8.12,0,0,1,4.57.5,4.79,4.79,0,0,0,.71-4.57C878.6,151,875.29,155.19,874.66,155.91Z"/><path class="cls-2" d="M874.66,155.91q-3.31,3.87-6.34,8c3.14-1.29,7-2.76,9.76-5,.42-.82.8-1.66,1.15-2.51A8.12,8.12,0,0,0,874.66,155.91Z"/><path class="cls-2" d="M539.19,490.4c-28,10.2-55.73,16.92-85,22.63l-.53.69a1.37,1.37,0,0,1,.46,0c1.27,1.68-1.28,1.88-1.11.75-1,.95-4.29,1.95-3.7-.58a257.28,257.28,0,0,1-30.13,2.46c-.67.63-1.37,1.23-2.08,1.8L413.8,518c.2-.45.46-1,.76-1.53q-6.27.12-12.53,0l-.64.86q-5.46-.3-10.91-.69l.64-.68c-1.8-.12-3.6-.26-5.4-.4q-.33.31-.66.66c-4.8-.41-9.6-.89-14.37-1.5.25-.34.51-.66.75-1-1.66-.29-3.33-.57-5-.87-.27.39-.53.77-.78,1.17a205.58,205.58,0,0,1-22.25-4.45l2.24-1.6-1.76-.55c-.67.6-1.36,1.17-2.07,1.73a182.18,182.18,0,0,1-20-6.78c.79-.63,1.54-1.32,2.28-2-.45-.2-.91-.39-1.37-.57-3.31.92-6.54,2.17-10.07,2.06l-.45-.57-4-.33c43,19.28,89.45,24.08,136.05,19.34.22-1.57,5.75-3.19,6.41-.74,49.77-7.14,96.94-22.53,143.07-42.29.55-1.83,1.83-3.42,4.26-3.27.41.3,1,.54,1.33.86,2.35-1,23.58-9,22.29-12.5C619.81,457.41,544.73,488.38,539.19,490.4Zm-47.55,18c-1.12.55-4.78,2.83-5.36.09a2.08,2.08,0,0,1,2.2-1.95,31.26,31.26,0,0,1,3.23-.32,10.58,10.58,0,0,1-.07,2.18,8.15,8.15,0,0,1,2.58.74A8.15,8.15,0,0,0,491.64,508.43Z"/><path class="cls-2" d="M115.59,467.88c4.86-1.51,10-2.68,11.6-3.47C123.2,465.4,119.35,466.58,115.59,467.88Z"/><path class="cls-2" d="M109.74,470c1.93-.74,3.87-1.46,5.85-2.14A50.29,50.29,0,0,0,109.74,470Z"/><path class="cls-2" d="M304.51,491.52c-1.33-.64-2.63-1.32-3.91-2a13.06,13.06,0,0,1-2.38,2.32c-4.78-2.32-9.54-4.68-14.3-7,1.23-.75,2.43-1.53,3.62-2.35l-4.22-2.28c-1,.95-2,1.94-3,2.84-4-2-7.92-3.88-11.91-5.76l4.33-2.57c-2.14-1.09-4.32-2.11-6.52-3.08-1.35.93-2.69,1.88-4,2.78q-5.25-2.37-10.59-4.55c1.27-.89,2.52-1.78,3.79-2.69-6.08-2.21-12.29-3.81-18.48-5.68-1.59.36-9.85,2.55-5.64-1.48a138.06,138.06,0,0,0-13.49-3c-2,1.56-10.68,5.62-12.34,3.44-.88-1.15,2.95-3.71,3.75-4.35a170.52,170.52,0,0,0-20,.09c-2.2,1.08-11.72,7.27-13.42,5.23-.84-1,3.2-4,3.77-4.58-4.91.32-9.83.61-14.74,1-.89.65-7.23,5.2-8.41,4a5.53,5.53,0,0,1,2-3.37c-4.23.43-8.47,1.07-12.65,1.84q-3.81,3.36-7.83,6.46c.9,2.28,3.48.44,5.3,1.09l-.6.69a4.35,4.35,0,0,0-1.51,1.25c-1,.21-5.2-.7-5.73-1.34-4.46,2.88-22.79,13-28.89,6.93-2-2-.07-3.78,3.3-5.33C96.08,475.27,83.31,481.8,69,486.63l0,0c-11.75,0-23.59,8-35.9,5.68C28.94,493.79-1,502.49,0,505.23c3,8.53,93.33-21.5,102.07-24,35.55-10,77.93-22,115.37-15.65l-.93-.95a1.15,1.15,0,0,1,1.22,1c27.25,4.81,51,15.21,75.41,28l.3-.25c.34-.27.81-.58,1.42-1a8,8,0,0,0,.74.44l.22.13h0l2.24-1.06,3.56,1.07c0,.76-.1,1.51-.16,2.26L295.85,493h0l-.22-.13-.74-.44c-.61.41-1.08.72-1.42,1l-.3.25c4.92,2.57,9.87,5,14.94,7.27,0-.43.06-.86.08-1.3l1.09-.29c.61-.53,1.25-1,1.91-1.5q-4.8-2.15-9.55-4.39ZM14.24,501.74l-.08,0a1.27,1.27,0,0,1-.56.3h0a1.22,1.22,0,0,1-.87-.63,1.22,1.22,0,0,0,.87.63h0c.17-.11.39-.19.56-.3a1.31,1.31,0,0,0,.21-.2A.48.48,0,0,1,14.24,501.74Zm144-37.41c-1.43-.86-1.23-1.54.61-2.06Q161,463.56,158.29,464.33Zm63.82-1a2.83,2.83,0,0,1-1.88,2.24c-.07-2.18-.14-4.61,2.62-5.23C222.6,461.31,222.29,462.29,222.11,463.3Z"/><path class="cls-2" d="M295.85,493l-.22-.13.22.13Z"/><path class="cls-2" d="M14.16,501.78c-.17.11-.39.19-.56.3A1.27,1.27,0,0,0,14.16,501.78Z"/><path class="cls-2" d="M314.67,499.62l.48-.08-.91-.39Z"/><path class="cls-2" d="M64.6,483.37a3.17,3.17,0,0,1-1.3-.94c-3.72,1.2-7.28,2.31-11,3.49q3.66-.46,7.27-1.22c11.31-2.67,24.9-5.83,34.83-11.8-10,2.77-19.87,5.89-29.74,9.1C64.64,482.45,64.62,482.91,64.6,483.37Z"/><path class="cls-2" d="M251.56,469.79q5.34,2.18,10.59,4.55c1.35-.9,2.69-1.85,4-2.78-3.57-1.63-7.19-3.13-10.84-4.46C254.08,468,252.83,468.9,251.56,469.79Z"/><path class="cls-2" d="M413.8,518l3.33.15c.71-.57,1.41-1.17,2.08-1.8-1.55,0-3.09.09-4.65.12C414.26,517,414,517.52,413.8,518Z"/><path class="cls-2" d="M197.53,419.1a3.63,3.63,0,0,0-.28.27l4-1.73A13.52,13.52,0,0,0,197.53,419.1Z"/><path class="cls-2" d="M225,407.2a5.23,5.23,0,0,1,1.9,4.57c-1.74,2.43-7.9-1.35-9.47-2l-.44.16c-.14.89-8,4.4-15.68,7.72,4.31-1.23,10.76-2.36,11.17-.79,1.15,4.42-19,6.58-15.18,2.52-4.57,2-8.54,3.68-10,4.45,2.57,1.42-3.62,2.06-3.57,2.05-3.76,2.1-34.68,25.94-35.39,25.5-7.36,3.93-13.6,9.33-21.08,13,5.47-1.36,11.62-2.89,18.51-4.14,32.25-23.38,62.66-47.3,105-48.36a7,7,0,0,1-1.55-2.61c1.9-.27,3.57-1.5,5.58-1.31a7.6,7.6,0,0,1-2.53,3.89c4,0,58.81-.46,58.91-.94C315.16,392,230.09,405.73,225,407.2Z"/><path class="cls-2" d="M107.76,475.75c6.71,4.66,22.56-4.09,27.57-7.33a2.09,2.09,0,0,1-1.39-1.85c3.49,1.24.72-1.29,2.17-1.59a1.91,1.91,0,0,1,1.76,1.75q4-3.11,7.83-6.46a142.57,142.57,0,0,0-25.45,7.14C115.8,468.74,100,470.35,107.76,475.75Z"/><path class="cls-2" d="M598.61,418.72a4.84,4.84,0,0,1,3.29,3.6c.25,7.25-18.75-1.47-22.26-2.64-18.1,3.19-34.92,9.6-51.76,16.7-1,1.49-9.53,4.57-10.68,5.11a130.6,130.6,0,0,0-26.13,16.11c8.59.95,1.74,3.15-3.55,2.92-2.36,2-18.29,15.25-11.95,17,5.56,1.56,17.11-11.49,20.9-14.72a146.6,146.6,0,0,1,37.88-23.31c33.58-14.06,65.32-12,100.69-9.12a2.92,2.92,0,0,1,2.46-2c-.19.72-.38,1.45-.55,2.17,1.11.11,24.26,4.73,24.76,3.31C667.09,418.81,605.55,417.58,598.61,418.72Zm-27,2.81,2.52-.57A7.57,7.57,0,0,1,571.6,421.53Z"/><path class="cls-2" d="M115.45,413.13c-19.43,7.81-37.9,14.45-58.54,18-5.22.9-56.06.86-55.4-.57-6.93,14.89,46.67,12.26,51.6,11.06-.46-3.64,1.74-8.82,3.22-.72,6.33-1.28,12.34-1.94,18.39-4.46-1.42.18-2.19-.41-2.32-1.77.31-1.2,6.59.12,6.62.12,9.58-3.31,18.45-5.85,27.83-10.07-6,2.54.58-8.57,1.14-1.78a2,2,0,0,1-.84,1.64c9.33-4.2,18.31-8.74,27.91-12.35a3,3,0,0,0-1.7-.38,3,3,0,0,1,1.7.38c24.07-9,55.44-15.34,80.11-3.83a4.18,4.18,0,0,1,1.64,1.11l.57.24c2.51-.89,5-1.74,7.57-2.56C200.41,380.14,142.78,402.14,115.45,413.13ZM20.44,440c-2.39-1.55-2.87-3.12-1.45-4.69a5,5,0,0,1,4.26,2.83A2.55,2.55,0,0,1,20.44,440Zm107.74-29-.44-.31.52-.16ZM149,406.56c-.39.13-3.16,1.44-3.16-.17,0-3.13,3.12-.11,3.2.12h0l.68.41Zm4.38-3.32a6.2,6.2,0,0,1,3.33,1.15A3.42,3.42,0,0,1,153.37,403.24Zm62.11-.37c.24-.18.47-.51.72-.53C218.74,402.14,215.62,405.36,215.48,402.87Z"/><path class="cls-2" d="M225,407.2c-2.53.82-5.06,1.67-7.57,2.56,1.57.66,7.73,4.44,9.47,2A5.23,5.23,0,0,0,225,407.2Z"/><path class="cls-2" d="M560.16,410.36c7.1,2.17,12.86,7.13,19.48,9.32,6.41-1.13,12.65.07,19-1-11.45-6.05-26.21-10.66-38.65-14.16A17.36,17.36,0,0,1,560.16,410.36Z"/><path class="cls-2" d="M480.25,398.38c-.27,1-.54,2-.8,2.95a7.3,7.3,0,0,0,1.16,1.05c10.61,7.68,30,.11,42.18,1.41a244.24,244.24,0,0,1,33.14,5.41v-.08c-2.83-.77-2.83-.77-1.12-3.27,1.45-.23,1.48-1.24,1.29-2.36a.91.91,0,0,0,.13-.08C534.12,395.42,502.5,387.75,480.25,398.38Z"/><path class="cls-2" d="M478.93,400.36a2.1,2.1,0,0,0,.52,1c.26-1,.53-2,.8-2.95A2.07,2.07,0,0,0,478.93,400.36Z"/><path class="cls-2" d="M598.61,418.72a23.79,23.79,0,0,1-10,0c-3-.31-6,.44-9,1,4.73,1.57,9.53,4.95,14.53,4.89C598.17,424.52,606.38,422.83,598.61,418.72Z"/><path class="cls-2" d="M375.11,401.52c-2.7,2.91-5.17,7.36-7.69,12l-.21,1C370.32,410.59,371.77,405.16,375.11,401.52Z"/><path class="cls-2" d="M398.13,111.43c.24.82.43,1.5.56,2A6,6,0,0,0,398.13,111.43Z"/><path class="cls-2" d="M452.68,220.05c-.1.13-.18.28-.28.41A3.27,3.27,0,0,0,452.68,220.05Z"/><path class="cls-2" d="M461.7,358.9l-.34-.09C461.17,359.31,461.34,359.25,461.7,358.9Z"/><path class="cls-2" d="M432.38,179.62c-.13.17-.26.34-.4.49A5,5,0,0,0,432.38,179.62Z"/><path class="cls-2" d="M766.2,205.14c-7.31,1.84-16.35,4-23.39,6.49s-13.84,10.28-20.14,9.06c5.73,1.11,21.76-14,27.76-16.24l2-.75c-.78-.64-6-4.18-4.77-5.88,2-2.61,8.26,3.52,5.9,5.45,10.16-3.83,20.16-7.55,30.32-11.84-24,4-48.7,7.94-73.12,8.44C700.91,204,690,206.64,680,211.48c-8.22,4-17.46,15.39-25,16.2,6.67-.74,12.54-11.78,17.38-15.82a75.22,75.22,0,0,1,20.34-11.94c-18.17-.2-40-1-58-2.21-9.38,6-20,10-29.11,16.19-8,5.43-14.3,15.87-22.33,18.15,7.43-2.12,14-13.72,19.27-18.84,6.32-6.08,13.82-12.15,21.58-16.28-19.82-1.63-38.87-4.43-58.69-.78-7.69,7.52-17.72,13.67-23.8,22.5a13.76,13.76,0,0,1,1.89.2c.39-.91,9.35,1.05,9.53,1.59l-12.8,2.39-1.07,3h0a16.8,16.8,0,0,0,1.07-4.79c-.73,1.5-1.46,3-2.22,4.41a2.23,2.23,0,0,1,.36.05,2.23,2.23,0,0,0-.36-.05c-2.74,5.2-5.71,9.73-9.45,12.25-.27.19-.55.37-.85.54.29-.16.57-.35.85-.54,3.91-2.72,5-7.1,8.35-12,1.16-1.69,2.26-3.42,3.38-5.13,0,.17,0,.32-.06.47,4-8.29,7.87-17.26,13.43-22.23-23.89,6.4-41.41,24.53-63.31,35-11.16,5.34-15.78,5.76-15.48-7.63.42-18.5,3.44-31.27-2.48-49.59-5.39,7.18-13.17,13.52-16.56,22.6-2.42,6.45,0,16.36-3.07,20.85a3.27,3.27,0,0,1-.28.41c.1-.13.18-.28.28-.41,2.49-4.33.19-21.53,1-26.49-.93.26-3.34-.22-.55-1a2.23,2.23,0,0,0,.69.22c1.4-8,10.63-19.74,15.32-26.35-3.62-12-7.74-21.72-15.45-31.85a1.26,1.26,0,0,1-.63.42c-4.7,6.91-11.06,13.36-14.77,21.52-3.15,6.93-2.09,18.45-5.87,23.07a5,5,0,0,1-.4.49c.14-.15.27-.32.4-.49,3.17-4.39.77-17.92,1.57-22.13,1.56-8.23,7.3-13.63,9.48-21.22a9.15,9.15,0,0,1,.36-5.93,2.24,2.24,0,0,0,1.46,1.35c.62-1.1,1.26-2.18,1.88-3.27a1.6,1.6,0,0,1-.3-2.25c-6.58-7.77-13.9-15.6-20.79-23.15a7.3,7.3,0,0,0-3.79,6s4.46-2,4.68-.06a6.76,6.76,0,0,1-5.22,3.36q.69,4.48-2.38,6.13c-2.22,7-4.37,12.31-3.93,19.9.33,5.85,2.53,9.35.05,13.35,2.95-4.78-2.95-20.8-2.58-26.58.6-9.72,4-19.69,7-28.94-7.56-8.55-14.94-17.43-19.08-28.2-2.79,8.18-7.09,15.36-7.33,24.78-.08,3.09,3.16,13.48,4.66,18.66a6,6,0,0,1,.56,2c.16.62.23,1,.18,1a4.6,4.6,0,0,1,1.52,4.08,8.85,8.85,0,0,0-8.2-3.4c-1,3.56-4.08-.14-.5-1.17,2.33-2,4.72-1.57,7,.32a2.8,2.8,0,0,0,0-.82c-.13-.51-.32-1.19-.56-2-1.17-2.64-3.78-5.59-4.6-7.54-3-7.18-4.65-12.14-4.32-20,.45-11,4.93-20.7,8.05-31a36.2,36.2,0,0,1,.34-10c-19.35,19.16-27.15,49.8-28.87,76.09-1.66,25.18-4,51.47,7.76,74.52a1.62,1.62,0,0,1,1.67-1l.27,2a9,9,0,0,0-1,.33l-.3-.07a271.44,271.44,0,0,0,14.15,23.94c1.82-1.19,1.18-3,.8-4.71,1.3-1.75,3-2,5.2-.7a44.9,44.9,0,0,1,0,11,3.86,3.86,0,0,1-1.28,1.21C410.28,244.84,423.66,259,422.23,285l.29-.15-.29.17a14.74,14.74,0,0,0-.18,5.61c.54,0,1.1,0,1.64.07-.54-.05-1.1-.05-1.65-.07a4,4,0,0,1-.31.54c-1.16,10.72-2.14,22.75-6.54,32.68a6.61,6.61,0,0,1,1.17-.16c1.11,1.69,1.1,3.6,1.07,5.51-1.21,1.43-3.67,5-6.19,2.81-17.29,33.48-39,72.57-69,96.2l1,.3a12.21,12.21,0,0,1-6.71,4.06C328,439,318,446,309,452c1.07.58.81.39,1,1.46-1.23.67-.89.78-2.75-.32-6.3,4.21-11.95,7.86-16,10.37,1,3.79-2.4,7.26-4.28,2.59-3.51,2.1-8.5,5.07-14.32,8.52,3.56,1.76,7.09,3.61,10.61,5.49a19.76,19.76,0,0,1,2.35-1.95c26.38-18.07,58.77-34.89,78.95-60.38a6.31,6.31,0,0,1-3.41-1.82c.59-2.18,3.53-7.57,6.35-3.19-.05.23-.09.45-.14.68,2.52-4.59,5-9,7.69-12-3.34,3.64-4.79,9.07-7.9,13l.21-1c-2.47,4.49-5,9.12-7.86,12.53-11.92,14.24-28,25.65-43,36.3-.48.78-1.18,1.95-2.37,1.74-8.7,6.61-17.68,12.11-26.62,18.37q6.52,3.55,13.06,7.07c19.46-22.2,55.08-31.11,68.2-59.68-1.51-1.5.35-5.77,1.79-3.65l2.13-2.26c1.12.81.55,1.79-1.69,2.93.84,1.38.55,4.11-1.68,3.28-14,26.68-40.94,44.32-64.84,61.42,4.79,2.4,9.62,4.7,14.57,6.77a11.32,11.32,0,0,1,1.26-.49c22-24.7,55.75-42.63,70.22-73.75a6,6,0,0,1-.09-.84.45.45,0,0,0,0-.54,8.29,8.29,0,0,0-2.37.4c-2.35-3.08-2.05-4.88.83-5.75.29,1,.57,2,.86,3.06a2.31,2.31,0,0,1,2.15.89,11.68,11.68,0,0,1,3-3.76c1.53,1.25.67,2.75-2.57,4.53.51,1.64-.33,6.36-1.55,3-12,22.41-29.32,39.17-46.81,57.26,3.67-.05,6.21-.37,5.93,4.12l-4.84.28c.15,1.47.31,2.94.46,4.41l-2.69,0-.27-4.07a6.23,6.23,0,0,1-2.24-.78c-4.5,5.73-10.91,9.21-16.19,14.11a201.4,201.4,0,0,0,19.78,7.06c23.31-20.78,44.47-51.16,61.39-77.44-1.29-.43-2.56-1-4-.6.68-3.21,2.9-3.43,3.29-6.65l-2.22,0,2.22,0a3.62,3.62,0,0,1,2.18,1.07c0,1.28,0,2.56,0,3.85,6.25-10.34,10.34-28.22,18.36-36.4-5.1,5.21-7.4,20.76-10.8,28.09-5.56,12-13.51,22.94-20.94,33.81-13.27,19.41-28.7,40.8-47.73,54.82a189.51,189.51,0,0,0,20.79,4.88C388.16,481,414.63,451.73,434,418.24c-3.41-1.43-.57-3.74,1.27-4.25-.14.88,1.39-7.57,2.14-2.34,3.19-6.75,4.05-14.15,6-21.1,0-.16.09-.31.13-.47.11-.35.21-.7.32-1s.25-.79.38-1.18l.12-.34c.36-1,.74-2.06,1.18-3-.44,1-.83,2-1.18,3l-.12.34c-.14.39-.26.78-.38,1.18s-.21.69-.32,1c0,.16-.09.31-.13.47-2.47,8.94-3.19,19.46-7.92,28.11,3.93,1.33,4.06,1.76,2.2,6-1-.12-3.32-2.57-3.55-3.61-18.73,32.37-40.45,62.76-62.7,92.67,4.71.82,9.52,1.43,14.28,1.83,4.49-4.42,7.3-9.7,11.06-14.7a7.87,7.87,0,0,0-3.88-2.94,3.35,3.35,0,0,1,2-2l2.07.61a25.2,25.2,0,0,0,.87,3c10-12,19.17-25.25,27.71-38.27,4.42-6.74,9.31-13.68,13.12-20.76,4.07-7.56,5.3-20.64,11.16-26.82-3.67,3.86-5.5,16.8-7.66,22.21C437.82,446.8,432,456.06,425.8,466c-10.47,16.86-21.12,35.28-34.68,49.93,3.19.21,6.37.37,9.55.46a1.21,1.21,0,0,0,0-.38c.46-.86,2.36-2.51,2.19-.72,33.93-46.63,54.32-99.57,72.84-153.63,5.57-16.26,4.36-32.05,7.54-48.89,1.91-10.1,4.18-19.78,5.5-30.4,1-8-4.13-19.89-2-25.25-1.25,3,3.29,10.56,4.4,12.83a9.06,9.06,0,0,1,1.24,1.08l-.52.3c2,3.79,1.46,7.93,2.23,12l1.13-.56c.51,2,.17,3.32-1,4.08-1.77,11.7-4.05,23.82-4.26,35.74,5.41,1.8,4.5-4.62,8.33-3.82,2.41.5-2.21,4.71,3.61,2.64.45,2.95-9.14,5.87-11,5.5a7.8,7.8,0,0,1-.55,5.25c19.8-18.23,53.15-29.84,79.27-32.37a1.27,1.27,0,0,1,1.95-.18c22.29-2,44.49.61,66.71-.65-.12-2.1.49-4.72,1.89-1.74a3.35,3.35,0,0,1,2.55,1.39c83.56-8.22,160.65-60.33,211.15-125.67,0,0-23.27,7.3-41,12.15C803.75,196.78,779.27,201.84,766.2,205.14ZM758,198.62c.86.06-.14,2.62-1.43,1.13A1.22,1.22,0,0,1,758,198.62Zm-13.26,3.79c.47,0,.57.22.27.61l-.46-.17C744.62,202.69,744.64,202.46,744.75,202.41Zm-211.92,9.7a2.41,2.41,0,0,1,2.06-2.22c1.77,3.08,3.33,4.4.24,6.77A4.39,4.39,0,0,1,532.83,212.11Zm-73.68-51.94q3.11,1.19-.21,2.81Q456.3,161.92,459.15,160.17ZM454,167.64q3.19-2.34,5.21.1C460.35,170.17,450.51,170.66,454,167.64ZM435,145.8a4,4,0,0,1,1,2.45C434.07,147.55,434,147.49,435,145.8Zm5.8-23.08a7.39,7.39,0,0,1-2.53-.57Zm-1.95,8.8c1.84.52,2,1.2.61,2.06Q436.78,132.82,438.87,131.52Zm-4.57,7.63q2.7-1.64,4,.66C438.43,142.29,433.27,140.17,434.3,139.15Zm-43.17-31.48.18.27-.29,0Zm-15.05,26.9c-.92,7.27-13.29-9.55-1.2-7.95C384.57,127.91,376,135.09,376.08,134.57Zm6,15.38c-5.25,3.28-5.51-3.49-3-4.16a5,5,0,0,1,2.81,2.26C384,148.49,384.1,149.13,382.05,150ZM385.62,69c-.85-.21-1-.64-.37-1.3h0C386.1,68.2,386.08,67.9,385.62,69Zm2.76,104.29c-1.21.08-1.83-.72-2.38-1.62a2.26,2.26,0,0,1,2.67-.3C388.57,172,388.48,172.65,388.38,173.29Zm20.06-19.49c.65-.46,1.17-.21,1.54.73l-1,1.52C407.79,155.35,407.6,154.6,408.44,153.8Zm-.86,85,.79-.85C408.59,238.72,408.3,239,407.58,238.84Zm1-2.2c0-1,.05-2,.07-3.08,2.15.23,3.14,1.49,3.19,3.59Zm2.12-54.9c.3-3.36-4-5.48-3.94-7.36a.56.56,0,0,1,0-.25,1.06,1.06,0,0,0,0,.25c.19,1.69,9.09-5.41,7.92-5.68h0c2.64.26,3,14.41-.61,17C413.47,184,413.46,181.68,410.71,181.74Zm4.37,56.1c-.08-.28-.53-.45-.81-.67,3.88-.78,4.1-.68,5.49,2.52C417.72,240.3,415.85,240.51,415.08,237.84Zm5.23-16.43c-.9,0-1-.85-1.06-1.58l2,0C421.26,220.54,421.26,221.41,420.31,221.41ZM337.26,456.54a1,1,0,0,1-1,.4C334.6,456.06,338.26,454.93,337.26,456.54Zm27.54-29.61c-.74.43-1.06-2.46-.34-2.74A2,2,0,0,1,364.8,426.93Zm23.4-3.2A2.78,2.78,0,0,1,388,425,2.78,2.78,0,0,0,388.2,423.73Zm-4.77-35.86c2.36-2-.56,7-.64,1.06A3.64,3.64,0,0,1,383.43,387.87Zm-3,2.86c.67,1.83.67,1.84-1.15,2.56A3.12,3.12,0,0,1,380.39,390.73Zm-.23,41.93a24,24,0,0,1-.14-4.06c1.17-.84,2-.6,2.58.71C382.57,432.19,382.57,432.19,380.16,432.66Zm1.26-14.21c-1.7,1-3.76-3.24-4.54-3.46l0,.07-.12-.12.11.12-.12-.1c-1.82,6-5.22,2.58-5.11-2.11l3.12.53,2,1.58v0l.15.05C378.27,411.29,387.34,415,381.42,418.45Zm6.9-11.48c-1.31.94-2.16-1.14-2.63-1.87a9.69,9.69,0,0,1-3.09,0h0c-.53,2.88-1.81,2-2.93,0a4.82,4.82,0,0,1-2.59,1.3,11.48,11.48,0,0,1-1.48,4.59,11.47,11.47,0,0,0,1.48-4.6l-.1-.11c-1.21-.61-1.25-1.38-.13-2.32.83,0,1.65,0,2.47.06l.12-.12a9.78,9.78,0,0,0,3.2,1.18l3.09,0L387,403C387.81,403.65,390.06,405.72,388.32,407Zm-.26-8.52,1.11-3.22c.25-2,2.07-2.17,1.12,0,.36,1.08.72,2.16,1.07,3.24C390.93,401,389.09,399.83,388.06,398.45Zm4.49-15.33-.6-.57h0C392.9,381.81,393,382.16,392.55,383.12ZM367.94,468.2c-1.27,1.79-5-.69-3-2.92Q368.61,465.7,367.94,468.2Zm2.11-7q4.27-.33,4,3.19C372.41,466.76,365.82,462.59,370.05,461.16Zm27.78-98.05.34.25-.37.17Zm1.28,49.7c-1.08,1.62-1.19,1.62-2.31,0Zm-2.24,8.84a4,4,0,0,1-1.1-2.27,3,3,0,0,1,.74.34A1.34,1.34,0,0,1,396.87,421.65Zm3.51,10.85a4.71,4.71,0,0,1-.53,0q-3.54-1.61-2.34-4.13C398.66,427.48,404.23,431.79,400.38,432.5Zm18.18-103.26a3.36,3.36,0,0,1,3.26,2.17C419.27,331.82,419.27,331.82,418.56,329.24Zm4.37,7.7c0,.73,0,1.45,0,2.18C421.35,338.09,421.35,338,422.93,336.94ZM369.51,501.71c-3.27,3.17-4.34-4.1-3.36-3C365.78,498.27,374.21,497.16,369.51,501.71Zm23.74-33.58c-.44.19-8.28,2.59-4.93-.8a5.73,5.73,0,0,0,4.43-.64C393.43,467,394.17,467.74,393.25,468.13Zm6.16-1.1c-1.21,1.66-2.44-.83-.08-1.58.11.37.22.75.34,1.12C399.58,466.72,399.51,466.89,399.41,467Zm23.68-259c-1.3.3-1.42-.62-1-1.64a11.54,11.54,0,0,1,3.74-2.74C425.8,206,425.09,207.6,423.09,208.07Zm1,55.16,0,0h0l0,0c.94-2,.65-.29.82-.42A4.52,4.52,0,0,1,424.07,263.23Zm.68-50.26,1.41-1.05a2,2,0,0,1,1.38,2C427.31,217.88,424.84,213.46,424.75,213Zm1.69-15.25a1.61,1.61,0,0,1,.57.1,1.34,1.34,0,0,1,.75,1.24ZM428.08,122c-1.84-.86-1.73-1.76.34-2.72Q430.54,120.48,428.08,122Zm4.61,76.94.11.1c-.56.46-1.14.91-1.74,1.33-.07-2.18-.14-4.61,2.62-5.22A27.42,27.42,0,0,1,432.69,198.9Zm3.5,122.64-1.18,0a1.82,1.82,0,0,1,.69-2.6C436.74,319.74,436.9,320.62,436.19,321.54ZM403.51,476.48c-1.3.31-1.42-.62-1-1.64a11.77,11.77,0,0,1,3.74-2.73C406.22,474.42,405.52,476,403.51,476.48Zm9.07-8.54c.11,0-1-1.83.65-.53ZM405,509.6c-.18,1.6-1,2.24-2.4,1.93-.17-1.38.53-2.12,2.09-2.24h0l.43-.14Zm3.07-2.07c-.6.17-.92-.24-1-.81C408.16,504.83,408.72,507.35,408.09,507.53Zm16.4-27.8c-.1.23-.52.33-.78.49-.76-.11-4-4.64-1.52-5C424.32,475,425,478.43,424.49,479.73Zm9.91-18c-.09.21-4.63.22-.88-.78C433.87,461.28,434.69,461,434.4,461.78Zm19.36-233.21c2.47-3.61,10.65,6.84,10.92,8.29a37,37,0,0,1-5.21,1.84C459.13,235.2,451.41,232,453.76,228.57Zm-4.36,77-3.45.18C447.56,303.79,447.88,303.77,449.4,305.61Zm-3.56,9.16h0s0,0,0-.06c-1,.16-1.91.34-2.86.53.21-1.51,0-3.23,1.62-4.07,0,0,0,0,0-.07-.05-2.85,3.48,1.63.64.85.2.92.41,1.84.61,2.76h0l.07.05-.08,0ZM444.11,323l-3.31,0C442.1,321.5,442.78,321.08,444.11,323Zm-3.29-4.47a3.39,3.39,0,0,1,2.15-3.24A3.31,3.31,0,0,1,440.82,318.49Zm5.21-3.12a3.18,3.18,0,0,1,1.19,3.16A2.55,2.55,0,0,1,446,315.37Zm-.42-122.18c.91.11.18,1.89-1.08.75A.89.89,0,0,1,445.61,193.19ZM439.44,213c3.81-4.29,2.36,1.15,4.65,2.19C443.85,215.07,435.7,217.19,439.44,213Zm2.21,11.63c.47-.21,1-.35,1.23-.45,1.77.19.37,4.91-2.72,2.54C440.66,226,441.16,225.32,441.65,224.62Zm-.87,183h0l.13.52C440.87,407.92,440.82,407.75,440.78,407.58Zm4.85,1.75c-.24.19-.51.56-.72.53C442.63,409.52,445.91,406.6,445.63,409.33ZM443,370.72c-4.74-1.38-2.07-5.47,3.24-3.84.9-1.59,1.87-2,2.93-1.09-.15,2.73-1.32,3.48-3.49,2.23Q446,371.41,443,370.72Zm4.81,44.93c-.33,3.35-2.37-.83-.51-2.34A2.46,2.46,0,0,1,447.82,415.65Zm-.44-14.94c-2.14-.5.58-2.55,1-2.86l3,.13a2,2,0,0,0,.37.7A3.51,3.51,0,0,1,447.38,400.71Zm3.29-146.54c2,0,3.1-2,5-2.21.34-.56.67-1.13,1-1.7-.27-1.46-.3-2.83,1.36-3.56-.15,1.88-1.43,3.68-2.37,5.26C455.42,255,452.37,257.4,450.67,254.17Zm3.87,68c-2-.08,14.78-24.71,3-3.35C457.3,321.09,456.28,322.2,454.54,322.18Zm13.27,34.42c-.36,1.78-1.42,2.06-3.16.84a2.48,2.48,0,0,1-2.95,1.46c-.36.35-.53.41-.34-.09l.34.09a24,24,0,0,0,2.71-3.61,2.37,2.37,0,0,1-.45-.15h0l0,.07-.09,0,.06-.05h0c.82-.75.82-.5.45.15a12.06,12.06,0,0,0,2.06.36l0,0H468C467.94,355.94,467.88,356.27,467.81,356.6ZM506,278.09l-.73-.53.79-.38Zm5.46-40.66c-1.52,1.65-2,.14-2.46-.6a1.88,1.88,0,0,0,.16-.23C509.42,236.19,512.46,236.33,511.44,237.43Zm4.32,2.36a4,4,0,0,1,1.43-.51l0,0c.81.11,1.65.12,2.46.22-.81-.1-1.65-.11-2.46-.22C516.49,243.23,516,239.55,515.76,239.79Zm4.77,10.92c-4.62-1.68.22-7.11.83-4.13C521.36,246.6,522.3,251.36,520.53,250.71Zm4.22-.12c.06.24.47.38.72.57C525.21,251,524.81,250.83,524.75,250.59Zm.37,27.08.64-.57.14.84Zm9.43,23a2.19,2.19,0,0,1-.55-3.08,2.54,2.54,0,0,1-.71-.37,2.66,2.66,0,0,0-.35-.88,2,2,0,0,1,1-2.12,3.23,3.23,0,0,1,1.31,3.6C535.77,298.56,536.37,300.94,534.55,300.65Zm34.38-50.78-.06.91-.72-.53Zm-15.68-6.76c.77-.79,1.46-.58,2,.65l-1.47.85C553,244.19,552.82,243.69,553.25,243.11Zm-6.15-20.29a5.72,5.72,0,0,1,.5-.48h0C549.44,223.79,546.65,223.44,547.1,222.82Zm4.86,44q2.85,1.74.21,2.81C550,268.57,549.89,267.64,552,266.85Zm-.08,7.57c1.34-1.63,3.08-1.66,5.21-.11C560.6,277.33,550.76,276.84,551.88,274.42Zm10,16.81c-1.52,1.65-2,.13-2.46-.61l.15-.22C559.86,290,562.89,290.13,561.88,291.23Zm1-9.23c.06-.1.26-.13.41-.19C563.93,282.58,562.58,282.45,562.84,282Zm4.83,11.1c-.58,3.07-2.62.82,0,0l0,0c.8.11,1.64.13,2.46.22C569.31,293.23,568.47,293.21,567.67,293.1Zm.8-12.11c0,.21-.07.43-.09.64-.57,0-4.53-1.88-3.44-3.28,1.53-1.94,3.26,1.8,3.53,2.64l2.43.36Zm7.68-60.24a5.76,5.76,0,0,1-1-3.34q.25-.25.51-.48a3.18,3.18,0,0,1,1.88-.78,5.26,5.26,0,0,1,3.46-1.82,5.26,5.26,0,0,0-3.46,1.82c0,.83,0,1.66,0,2.49l1.66.66-1.66-.66Zm9,62.46c-3.56-3.78-10.93-5.8-1-7.7C585.28,279.18,585.15,279.41,585.15,283.21ZM588,250.36l.64-.57.14.84Zm2,23.51a2.87,2.87,0,0,0-.17-1.37l.06.16A1.41,1.41,0,0,1,590,273.87Zm16.25,23.25c.37-.09-6.94.29-5.42-1.81C602.8,292.53,609,296.45,606.21,297.12Zm-4.1-18.23.63.89C602.16,279.74,601.8,279.55,602.11,278.89Zm4.8-2.06c-2.38.75-2.88-1.2-5.63-1.31-.43-.66-1-6.71-1.83-8.77a22.16,22.16,0,0,1,2.71.12C605.11,267.37,613.14,274.87,606.91,276.83Zm11.34-53c.39-1,1.41-.89,2.21-1.16,1.33,0,1.42-4.38,2.13-5l.15,0,0-.13c1.38.54-2.18.46,4.33.88,0,0,0,0,0-.09l2.69,0-.33,1.69q-.95,4.59-5.44,1.45C622.65,223.79,620.69,224.68,618.25,223.82Zm3.31,15.72c1.79-2.18,2.62.46,3.07,2C623.34,241.27,622.13,240.91,621.56,239.54Zm9.52,7.29c-1.33,2.94-6.17-1.29-6.2-3.28,2-1.39,4-3.26,6.55-.91A8.49,8.49,0,0,1,631.08,246.83Zm2.19,39.5v-4.4C635.69,283.91,635.69,284.35,633.27,286.33Zm2.16-61.8a3.7,3.7,0,0,1-.76-2.9l2.17,1.08A1.48,1.48,0,0,1,635.43,224.53Zm2.94,64.22c-1.77-.85-1.78-1.73,0-2.66C639.74,286.82,639.76,287.7,638.37,288.75Zm-.36-42.7a1.12,1.12,0,0,1,1.53.66Zm5.5-15.79c-3.56,1.28-3.76-.52-4.39-4.22-.5-.78-.84-1.6.16-2.22q2.94-.57,1.77,2.08C641.49,226.78,649,228.28,643.51,230.26Zm49.87-15.62c.26.29.2.46-.19.52C692.93,214.87,693,214.7,693.38,214.64Zm-5.76,65.29c-1.29.28-2.06-.3-2.31-1.71l.28-1.86C685.85,274.66,689.79,275.26,687.62,279.93Zm3.3-57.86c.25-1.7,4.2-1.1,2,3.57-1.29.27-2.06-.3-2.32-1.71C690.75,223.13,690.84,222.6,690.92,222.07Zm2.89,60.49-.18.12a3.09,3.09,0,0,1-2.53,1.76c.43-1.18,1-2.1,2.53-1.76l.18-.13a5.77,5.77,0,0,1,.56.27,5.85,5.85,0,0,1,1.41,1.12,5.85,5.85,0,0,0-1.41-1.12A4,4,0,0,0,693.81,282.56ZM699,228.39a3.07,3.07,0,0,1-2.53,1.76c.44-1.18,1.05-2.1,2.53-1.76l.18-.13a4.83,4.83,0,0,1,.56.27,5.49,5.49,0,0,1,1.42,1.12,5.49,5.49,0,0,0-1.42-1.12,3.57,3.57,0,0,0-.56-.26Zm1,27c-.89,0-1.26-1.83-.17-2.05S701.19,255.33,700,255.34Zm-.39-18.19a4.13,4.13,0,0,1,3.77,3.07C701.65,243.18,698.2,237.25,699.58,237.15Zm15.06-2c.36.19.39.43.1.71l-.32-.29Zm2.2,24.51a5.93,5.93,0,0,1,.42-.54A5.93,5.93,0,0,0,716.84,259.66Zm-2.62-2c.3-2.1,2.68-3.27,2.45-5.7-.17-1.72,3.17.24,3.12.21C721.79,255.86,716.14,257.06,714.22,257.68Zm1.9-26.07c0-3.13,3.12-.11,3.2.12l.68.41-.72-.36C718.89,231.91,716.12,233.22,716.12,231.61Zm4.62-12.28a5.06,5.06,0,0,0-2.52,2,3.46,3.46,0,0,0,1.09,2.81,3,3,0,0,1-1.33,3q-2.62-1.14-2-4.21l2.23-1.6a5.06,5.06,0,0,1,2.52-2,2.86,2.86,0,0,1,1-.08A2.86,2.86,0,0,0,720.74,219.33Zm-1.44-18.61a4.13,4.13,0,0,1,3.77,3.08C721.37,206.75,717.93,200.82,719.3,200.72Zm19,34.32c.86.07-.14,2.62-1.43,1.14A1.23,1.23,0,0,1,738.29,235Zm-10.35-.79c2.18-2.89,9.69,5,4.81,5.92C732.12,239.62,726.64,236,727.94,234.25Zm5.2,15.88c-.5.24-.67-.13-.17-.37C733,249.89,733.08,250,733.14,250.13Zm-4.08-3.78a4.88,4.88,0,0,1-.49.7l-.6-.59C728.41,245.91,728.77,245.88,729.06,246.35Zm-5.13,12.19,1.3-2.43h0Zm1.37-19.09-.46-.17C725.08,238.64,725.54,238.81,725.3,239.45Zm-1.64-11a6,6,0,0,1,3.33,1.15h0Zm8.21,26.38-2.45,2.06c-.32-.08-.63-.16-.94-.27L727.42,255h0c2-1.52,2.54-2.73,4.45-.11l3.32.78ZM734,225.93c.73-.11,1.08-.66,2-2.1C735,225.27,734.69,225.82,734,225.93Zm1.9-2.11a.45.45,0,0,0,0-.11c-.27-.15-.27-.24,0-.27l0,.27.11.06Zm.41,30.87c1.62-3.39,4.4-4.69,8-4.45C740.51,255.17,741.17,253.55,736.27,254.69Zm32.35-25.38h0c0,.18.08.35.13.52C768.71,229.65,768.66,229.48,768.62,229.31Zm3.42,1.18q1-1.31,1.44.57C772.8,231.93,772.32,231.73,772,230.49Zm15.68-3.1c-.06-.34-.13-.67-.2-1h0a6.43,6.43,0,0,0-3.18-.45l-.21.05-.11,0a4.38,4.38,0,0,0-1,.5,2.85,2.85,0,0,1,1-.5l.11,0,.15,0h.06a4.51,4.51,0,0,1,3.18.45h0s2-2.27,2.2-.79A2.52,2.52,0,0,1,787.72,227.39Zm56.52-45-1,.72c-.08-.39-.15-.78-.23-1.17Z"/><path class="cls-2" d="M536.83,225.72a2.27,2.27,0,0,1,1.1-.25c.76-1.43,1.49-2.91,2.22-4.41,0-.15,0-.3.06-.47C539.09,222.3,538,224,536.83,225.72Z"/><path class="cls-2" d="M443.41,390.55c0-.16.09-.31.13-.47C443.5,390.24,443.45,390.39,443.41,390.55Z"/><path class="cls-2" d="M752.47,203.74a2.45,2.45,0,0,0,1.09-.47l-1.13.43Z"/><path class="cls-2" d="M536.83,225.72c-3.38,4.9-4.44,9.28-8.35,12,3.74-2.52,6.71-7.05,9.45-12.25A2.27,2.27,0,0,0,536.83,225.72Z"/><path class="cls-2" d="M536.83,225.72a2.27,2.27,0,0,1,1.1-.25h0A2.27,2.27,0,0,0,536.83,225.72Z"/><path class="cls-2" d="M699.69,228.53a5.49,5.49,0,0,1,1.42,1.12A5.49,5.49,0,0,0,699.69,228.53Z"/><path class="cls-2" d="M524.75,250.59c.06.24.46.38.72.57C525.22,251,524.81,250.83,524.75,250.59Z"/><polygon class="cls-2" points="404.71 509.3 405.02 509.6 404.71 509.3 404.71 509.3"/><path class="cls-2" d="M385.69,405.1l-3.09,0A9.69,9.69,0,0,0,385.69,405.1Z"/><path class="cls-2" d="M694.37,282.82a5.85,5.85,0,0,1,1.41,1.12A5.85,5.85,0,0,0,694.37,282.82Z"/><path class="cls-2" d="M464,355.22l0-.07-.06.05Z"/><path class="cls-2" d="M406.77,174.38a1.06,1.06,0,0,1,0-.25A.56.56,0,0,0,406.77,174.38Z"/><path class="cls-2" d="M414.48,168.7h0Z"/><path class="cls-2" d="M784.11,226l-.11,0Z"/><path class="cls-2" d="M443.86,389c.12-.4.24-.79.38-1.18C444.11,388.25,444,388.64,443.86,389Z"/><path class="cls-2" d="M784.32,225.92a6.43,6.43,0,0,1,3.18.45A4.51,4.51,0,0,0,784.32,225.92Z"/><path class="cls-2" d="M444.36,387.52c.35-1,.74-2,1.18-3C445.1,385.46,444.72,386.48,444.36,387.52Z"/><path class="cls-2" d="M464,355.14a2.37,2.37,0,0,0,.45.15C464.78,354.64,464.78,354.39,464,355.14Z"/><path class="cls-2" d="M401.68,516.47H402a2.43,2.43,0,0,1,.14-.2,1.94,1.94,0,0,1-.42.17Z"/><path class="cls-2" d="M400.67,516.43c-3.18-.09-6.36-.25-9.55-.46l-.64.68q5.44.39,10.91.69l.64-.86a3.91,3.91,0,0,0-1.36.13A.54.54,0,0,0,400.67,516.43Z"/><path class="cls-2" d="M268.38,477.21c4,1.88,7.95,3.81,11.91,5.76,1-.9,2-1.89,3-2.84-3.52-1.88-7.05-3.73-10.61-5.49Z"/><path class="cls-2" d="M283.92,484.76c4.76,2.36,9.52,4.72,14.3,7a13.06,13.06,0,0,0,2.38-2.32q-6.54-3.53-13.06-7.07C286.35,483.23,285.15,484,283.92,484.76Z"/><path class="cls-2" d="M324.12,500.38c-.74.69-1.49,1.38-2.28,2a182.18,182.18,0,0,0,20,6.78c.71-.56,1.4-1.13,2.07-1.73-4.9-1.5-9.76-3.1-14.54-5Q326.7,501.54,324.12,500.38Z"/><path class="cls-2" d="M304.51,491.52l-2.87,1.91q4.75,2.25,9.55,4.39a3.11,3.11,0,0,1,3.05,1.33l.91.39a13.66,13.66,0,0,0,3.93-1.25c-2-.85-4-1.7-6-2.62C310.21,494.34,307.35,492.94,304.51,491.52Z"/><path class="cls-2" d="M370.69,514.73c4.77.61,9.57,1.09,14.37,1.5q.33-.35.66-.66c-4.76-.4-9.57-1-14.28-1.83C371.2,514.07,370.94,514.39,370.69,514.73Z"/><path class="cls-2" d="M345.66,508l-2.24,1.6A205.58,205.58,0,0,0,365.67,514c.25-.4.51-.78.78-1.17-3.07-.53-6.12-1.16-9.14-1.87C353.43,510.23,349.46,509.12,345.66,508Z"/><path class="cls-2" d="M231.55,419.5a7.73,7.73,0,0,1,.27,3.17c10.41-3.37,21.3-3.87,32.18-4.71a3.79,3.79,0,0,1,1.85-.46,3,3,0,0,0,.24.32c3.23-.14,35,2,35.24-1.55C301.75,411.14,238.79,417.22,231.55,419.5Z"/><path class="cls-2" d="M158.35,458.43c2.12-.22,4.25-.41,6.38-.61,19.62-14.33,39.83-28.14,63.69-34.23a12,12,0,0,1,1.07-3.55C203.57,425.43,176.74,439,158.35,458.43Zm61.23-35.65a5.69,5.69,0,0,1,.72.4c-.18.21-.34.43-.52.64h0C219.24,423.46,219.18,423.11,219.58,422.78Zm-41.42,23.6c0,.41,0,.83,0,1.24C177.41,447.29,177.85,446.73,178.16,446.38Zm-5.71,3.32c.08,0,.26.08.4.13q-.06.63-.57.27C172.33,450,172.35,449.76,172.45,449.7Z"/><path class="cls-2" d="M156.32,461.8c1.18,1.22,7.52-3.33,8.41-4-2.13.2-4.26.39-6.38.61A5.53,5.53,0,0,0,156.32,461.8Z"/><path class="cls-2" d="M263.79,422.27c-27.93,2.8-64.17,14.4-84.32,34.53,3.21-.22,6.43-.48,9.65-.65,14.84-7.3,27.44-18.49,43.49-24,4.85-1.67,45.89-7.07,46-8.74C278.79,420.41,265.51,422.5,263.79,422.27Z"/><path class="cls-2" d="M175.7,461.38c1.7,2,11.22-4.15,13.42-5.23-3.22.17-6.44.43-9.65.65C178.9,457.36,174.86,460.39,175.7,461.38Z"/><path class="cls-2" d="M209.15,456.06a85.06,85.06,0,0,1,8.59.91A114.26,114.26,0,0,1,247,440.16c3.21-1.23,29-5.2,28.86-8C275.36,423.57,212.44,453.41,209.15,456.06Z"/><path class="cls-2" d="M207.28,457.72a2.64,2.64,0,0,0-1.88,2.69c1.67,2.19,10.42-1.91,12.34-3.44a85.06,85.06,0,0,0-8.59-.91A16.32,16.32,0,0,0,207.28,457.72Z"/><path class="cls-2" d="M128.2,426.83c-31,16.92-62.79,32.91-99.38,29.7l.09.07c-.09.12-.18.23-.26.35a6.55,6.55,0,0,1-.56-.49c-2.21-.19-22.29-1.41-22.48-.28-.47,2.83,11.6,2.91,12.91,4.18a140.37,140.37,0,0,0,54-3.46C96.92,450.63,116,435.63,138.21,425a7,7,0,0,1-2.36-.64l-.73.36.68-.41c.74-2.19,3.7-.69,3.08.37,13.27-6.32,28.75-11.91,43.24-14,10.5-1.5,25.25,2.5,34.82-.82a.61.61,0,0,0-.13-.4C189,398.1,152.81,413.4,128.2,426.83Zm-19.21,13-.57.66.57-.66.39.28Zm99.8-32.31-.17-.37.42,0Z"/><path class="cls-2" d="M215.29,410.51c.94,0,1.52-.15,1.65-.51,0,0,0-.05,0-.08Z"/><path class="cls-2" d="M209.15,406.72c2.57.91,5.14,1.76,7.66,2.8C215.51,407.7,211.11,407.12,209.15,406.72Z"/><path class="cls-2" d="M15.65,473.76a9.59,9.59,0,0,0,4.83,2.38,7.82,7.82,0,0,1,2.24-3.34C19.4,472.76,15.75,472.87,15.65,473.76Z"/><path class="cls-2" d="M129.59,438c-.14.53-.69.94-1.2.52-33.28,14.16-60.22,32.53-97.79,34.25.49.53.92,1.12,1.41,1.66-.08,4.13-4.71.91-4.17-1.54-.55,0-2,0-3.63-.06,1.25.94,2,4,2.31,4.35,26.69,2.79,51.77-8,74.94-20.18,27.72-14.58,50.35-27.9,82.2-31.13l3.57-2.05C171,415,142.88,432,129.59,438Z"/><path class="cls-2" d="M22.72,472.8l1.49,0A1.18,1.18,0,0,0,22.72,472.8Z"/><path class="cls-2" d="M187.23,423.82l-3.57,2.05a6.44,6.44,0,0,0,4.23-1.22C187.94,424.36,187.69,424.08,187.23,423.82Z"/><path class="cls-2" d="M120.65,457.16c-8.64,5.68-17.46,10.42-26.27,15.74,3.27-.91,8.43-1.57,11.5-3.25,12.38-6.57,23.36-13.83,36.5-18.89a1.25,1.25,0,0,0-.12-.08l-.59-.69c.91-.33,2-.73,2.78.08.79-.25,1.55-.47,2.26-.66,1.73-2.91,1.07-1.92,2.09-.53a6.12,6.12,0,0,0,4.37-2.09C153.38,440.48,121.78,456.42,120.65,457.16Z"/><path class="cls-2" d="M16.58,487c-.68,3.49,13.92,4.9,16.5,5.39Q42.52,489,52,486l.24-.08C49.71,486.21,16.42,487.78,16.58,487Z"/><path class="cls-2" d="M68.3,482.51,67,483.85a1.32,1.32,0,0,1,.73-1.22c-11.61,3.45-23.11,5.68-34.63,9.71a12.55,12.55,0,0,0,3,.36,115.86,115.86,0,0,0,32.74-6h-.92c.06-.37.11-.74.17-1.11l.89,1.06c13-4.37,24.51-10.17,36.48-16.73-12.84,3.4-24.84,8.87-37.56,12.69A1.37,1.37,0,0,1,68.3,482.51Z"/><path class="cls-2" d="M523.28,411.79c-15.07-1.58-34.61-.63-48.73,6l-.62,1.9a8.58,8.58,0,0,0,3.55.81c11.33.38,22.57-4.67,33.87-5.63.18-1,1.42-1.31,1.64-.07,5.55.05,46.47,7.09,46.45,7.13C561.82,417.23,526.88,412.16,523.28,411.79Z"/><path class="cls-2" d="M473.93,419.73l.62-1.9a3.85,3.85,0,0,0-.54.29C473.14,418.78,473.11,419.32,473.93,419.73Z"/><path class="cls-2" d="M487.81,432.59c-3.17.32-19.92,6-19.92,6,2.76,1,8,1.4,11,.48a3.54,3.54,0,0,1,.44-.65l.26.46a142.86,142.86,0,0,1,30-3.76,2.81,2.81,0,0,1,1.29-2.84C503.08,432.55,495.75,431.79,487.81,432.59Z"/><path class="cls-2" d="M512.58,432.24a3.34,3.34,0,0,1,1.25,3c4.85.32,9.27,3.16,14,1.15a1.17,1.17,0,0,0-.08-1.52C525.21,431.9,515.72,432,512.58,432.24Z"/><path class="cls-2" d="M527.88,436.38c-.7.31-1.4.61-2.11.89A2.36,2.36,0,0,0,527.88,436.38Z"/><path class="cls-2" d="M463.29,459.28c-1,.89-4.48,2.06-5.69,1.83-.56,1.23-1.15,2.47-1.75,3.69,10.32.83,20.92-4.74,31.67-4.28,1.12-.95,2.31-1.94,3.55-2.92l-.84-.1C482,456.65,471.62,458.32,463.29,459.28Zm22.79,0c-.09.05-.26-.07-.4-.12q0-.65.57-.27C486.19,459.05,486.18,459.25,486.08,459.3Z"/><path class="cls-2" d="M456.38,460.24c-5.15-1.16-6.41,4.13-.53,4.56.6-1.22,1.19-2.46,1.75-3.69l-.42-.09A6.54,6.54,0,0,0,456.38,460.24Z"/><path class="cls-2" d="M491.07,457.6c-1.24,1-2.43,2-3.55,2.92a6.26,6.26,0,0,1,1.73.56C494.77,462.92,498.45,458.42,491.07,457.6Z"/><path class="cls-2" d="M636.3,432.47a3,3,0,0,1-1.42,1.13c0-.45,0-.9,0-1.35-30.41-4.71-66,.91-94.05,14.08-.07.27-.14.54-.2.82l-2.45,1.9a8.44,8.44,0,0,0-6.09,1.78c-2.86,5.11-4.67,1.79-7.84,6h0V457a.81.81,0,0,1,0-.15s0-.08,0-.11a1.16,1.16,0,0,1-1-.84c-2.45,1.52-55.54,41.95-49.34,46.78,1.88,1.48,32.83-29.33,35.87-31.82,18.4-15.08,41.32-27.46,64.66-32.81a2.57,2.57,0,0,1,2.83-.62c14.87-3.18,31.6-4.55,46.67-3,3.73.37,32,6.82,33,4.14S638,432.71,636.3,432.47ZM490.82,485.6l-1-1.52C490.1,483,493.11,482.71,490.82,485.6Zm140.37-52.86c.75,0,1.19.43,1.31,1.34C632.06,433.63,631.63,433.18,631.19,432.74Z"/><path class="cls-2" d="M573,457.23c-19.53,6.08-38.17,13.29-55.49,24.44-3.31,2.14-30.17,19.85-27.79,22.55s32.5-19.86,35.58-21.77c17.56-10.94,38.32-21,58.54-25.83,5.77-1.49,70.39-9.38,70.44-11.5C654.46,439.16,581.49,454.6,573,457.23Z"/><path class="cls-2" d="M468.79,478.8c-7.94,2.84-17.74,27.8-19.45,35.06,1.64-.2,3.27-.48,4.88-.83,3.63-5.64,4.47-13.16,7.58-19.21C463.18,491.12,475.74,476.31,468.79,478.8Z"/><path class="cls-2" d="M449.89,515.49a4.43,4.43,0,0,0,3.15-1,.85.85,0,0,1,.65-.72l.53-.69c-1.61.35-3.24.63-4.88.83A1.14,1.14,0,0,0,449.89,515.49Z"/><path class="cls-2" d="M268.63,442.57c.74.73-1.78,2.15-2.46,1.05-11.9,4.67-25.25,7.16-34.94,16.32,1.65.43,3.31.85,5,1.29l.68.19c9.55-2.12,18.53-11.51,28.49-14.51,1.72-.52,17.37-2.66,16.85-5.48C281.63,438.27,270,442,268.63,442.57Z"/><path class="cls-2" d="M230.14,461.14c-1.64,3.14,6,.44,6.73.28-1.85-.56-3.76-1-5.64-1.48A5.66,5.66,0,0,0,230.14,461.14Z"/></g></g></g></svg>