<svg xmlns="http://www.w3.org/2000/svg" xmlns:xlink="http://www.w3.org/1999/xlink" viewBox="0 0 348.41 64.98"><defs><style>.cls-1{fill:none;}.cls-2{clip-path:url(#clip-path);}.cls-3{fill:#253649;}.cls-4{clip-path:url(#clip-path-2);}.cls-5{clip-path:url(#clip-path-3);}</style><clipPath id="clip-path" transform="translate(0 0)"><rect class="cls-1" x="1.45" width="170.55" height="47.12"/></clipPath><clipPath id="clip-path-2" transform="translate(0 0)"><rect class="cls-1" x="65.46" y="48.23" width="24.73" height="16.75"/></clipPath><clipPath id="clip-path-3" transform="translate(0 0)"><rect class="cls-1" y="15.12" width="67.3" height="44"/></clipPath></defs><g id="Layer_2" data-name="Layer 2"><g id="Layer_1-2" data-name="Layer 1"><g class="cls-2"><path class="cls-3" d="M1.68,14.22s16.05-8.94,34.21-2.63S57.23,26.68,69.4,27.2s24.51-9.29,33-16,21.16-16.31,36.85-8.06c0,0,20.63.35,29.45,9.29,0,0,4.23,2.46,3.17,8.94,0,0-2.65-4.38-5.64-4.56S150,15.28,141,4.76c0,0,6.35,8.59.88,15.25s-7.93,1.93-9.16,10c0,0-4.59-7.19-1.24-12.45s10.23-6.49,7.94-11.93-16.93,6-20.11,11.05S102.9,37.55,93.38,41.58,66.93,50.7,56.52,42.81c0,0,2.82-2.28,1.59-4.91s-3.18,3.51-3.18,3.51S48.77,41.06,43.47,34,22.84,10.54,1.68,14.22" transform="translate(0 0)"/></g><path class="cls-3" d="M115.77,23.48s-8.16,23.28-46.59,25.38c0,0,.91,1,6,3.33.4.18,2.69.87,3.11,1a3.3,3.3,0,0,1,2.1,1.74s26.17-1.84,35.34-31.43" transform="translate(0 0)"/><g class="cls-4"><path class="cls-3" d="M65.49,48.25s4.42,3.66,8.42,5,6.84,4.71,8.31,6.28,5.21,4.6,7.79,4.86c0,0-4.84,2.41-14.16-2.3s-10.46-9-10.36-13.81" transform="translate(0 0)"/></g><g class="cls-5"><path class="cls-3" d="M63.55,48.82s-8.69-1.46-15-7.06S35.77,28.53,30.41,25.18s-13.73-7.8-19.15-8.58A28.31,28.31,0,0,0,0,17.75S3.36,32.81,28.57,47,66.63,57.43,66.63,57.43s-2.79-1.88-3.08-8.61" transform="translate(0 0)"/></g><path class="cls-3" d="M123.94,62.5h4.67V41.2H134V36.53H118.63V41.2h5.31Zm1.86-1.85V39.35h-5.31v-1H132.1v1h-5.34v21.3Z" transform="translate(0 0)"/><path class="cls-3" d="M138.4,62.5h4.68V50.63h5.52V62.5h4.68v-26H148.6V46h-5.52V36.53H138.4Zm1.86-1.85V38.39h1v9.42h9.24V38.39h1V60.65h-1V48.78h-9.24V60.65Z" transform="translate(0 0)"/><path class="cls-3" d="M157.72,62.5H171.3V57.83h-8.9v-7.2h6.9V46h-6.9V41.2h8.9V36.53H157.72Zm1.86-1.85V38.39h9.87v1h-8.9v8.46h6.9v1h-6.9v10.9h8.9v1Z" transform="translate(0 0)"/><path class="cls-3" d="M190.58,62.5h8.61a7.52,7.52,0,0,0,3.12-.67A8,8,0,0,0,204.79,60a8.55,8.55,0,0,0,2.27-5.83,8.46,8.46,0,0,0-2.27-5.79,7.14,7.14,0,0,0-1.26-1.07,7.33,7.33,0,0,0,1-3.79,7.17,7.17,0,0,0-1.89-4.89,6.42,6.42,0,0,0-4.78-2.12h-7.32Zm1.86-1.85V38.39h5.46a5,5,0,0,1,4.82,5.15A5.36,5.36,0,0,1,200.49,48a6.07,6.07,0,0,1,3,1.7,6.74,6.74,0,0,1,1.74,4.53,6.26,6.26,0,0,1-6,6.46Zm1-12.84h4.52a4.25,4.25,0,0,0,0-8.46h-4.49ZM195.26,46V41.2h2.64a2.19,2.19,0,0,1,2,2.34,2.68,2.68,0,0,1-.67,1.78,1.68,1.68,0,0,1-1.3.63Zm-1.85,13.73h5.78a5.28,5.28,0,0,0,5.05-5.49,5.67,5.67,0,0,0-1.48-3.86,4.94,4.94,0,0,0-3.57-1.55h-5.78Zm1.85-1.85v-7.2h3.93a3,3,0,0,1,2.19,1,3.73,3.73,0,0,1,1,2.6,3.45,3.45,0,0,1-3.19,3.64Z" transform="translate(0 0)"/><path class="cls-3" d="M210.94,62.5h14.51V57.83h-9.83V36.53h-4.68Zm1.86-1.85V38.39h1V59.68h9.83v1Z" transform="translate(0 0)"/><path class="cls-3" d="M238.06,62.69a8.36,8.36,0,0,0,8.16-8.5V36.53h-4.67V54.19a3.5,3.5,0,1,1-7,0V36.53H229.9V54.19A8.33,8.33,0,0,0,238.06,62.69Zm0-1.86a6.07,6.07,0,0,1-4.45-1.93,7,7,0,0,1-1.85-4.71V38.39h1v15.8a5.75,5.75,0,0,0,1.52,4,5.3,5.3,0,0,0,3.82,1.71,5.53,5.53,0,0,0,3.82-1.71,6,6,0,0,0,1.52-4V38.39h1v15.8a6.86,6.86,0,0,1-1.89,4.71A6,6,0,0,1,238.06,60.83Z" transform="translate(0 0)"/><path class="cls-3" d="M250.66,62.5h13.58V57.83h-8.9v-7.2h6.9V46h-6.9V41.2h8.9V36.53H250.66Zm1.86-1.85V38.39h9.87v1h-8.9v8.46h6.9v1h-6.9v10.9h8.9v1Z" transform="translate(0 0)"/><path class="cls-3" d="M290.32,62.69a8.74,8.74,0,0,0,5.26-1.86,6.86,6.86,0,0,0,1.64-9,10.47,10.47,0,0,0-4.05-3.63l-2.67-1.48c-2-1.23-2.71-2.12-2.67-3.2,0-1.29,1.52-2.52,3.19-2.52a2.66,2.66,0,0,1,2.26,1.07,2.51,2.51,0,0,1,.45.82l4.49-1.33a7.52,7.52,0,0,0-7.17-5.24,8.81,8.81,0,0,0-5.26,1.86,6.81,6.81,0,0,0-2.64,5.31,6.73,6.73,0,0,0,1,3.67,12,12,0,0,0,4,3.6l2.78,1.52c2,1.15,2.67,2.08,2.63,3.19,0,1.3-1.52,2.52-3.19,2.52a2.57,2.57,0,0,1-2.15-.93,2.69,2.69,0,0,1-.59-1l-4.46,1.37A8.26,8.26,0,0,0,284.57,60,7.42,7.42,0,0,0,290.32,62.69Zm0-1.86a5.67,5.67,0,0,1-2.49-.55,5.77,5.77,0,0,1-2-1.71l1-.3a3.94,3.94,0,0,0,1.59,1.23,4.68,4.68,0,0,0,2,.37,5.68,5.68,0,0,0,3.38-1.19,4.08,4.08,0,0,0,1.67-3.15,4.13,4.13,0,0,0-1-2.78,8.66,8.66,0,0,0-2.63-2.08l-2.75-1.49a10.69,10.69,0,0,1-3.33-3,4.79,4.79,0,0,1-.71-2.67v0a5,5,0,0,1,1.93-3.86A6.94,6.94,0,0,1,291,38.2a5.63,5.63,0,0,1,2.26.45,6.12,6.12,0,0,1,2.3,1.78l-1,.29a5.2,5.2,0,0,0-1.22-1,5,5,0,0,0-2.34-.55,5.79,5.79,0,0,0-3.38,1.18A4.13,4.13,0,0,0,286,43.51a4,4,0,0,0,1,2.74,10.23,10.23,0,0,0,2.59,2.08l2.75,1.52a8.47,8.47,0,0,1,3.34,3,4.6,4.6,0,0,1,.74,2.67v0a5,5,0,0,1-1.93,3.86A7,7,0,0,1,290.32,60.83Z" transform="translate(0 0)"/><path class="cls-3" d="M307,36.53h-4.68v26H307Zm-1.86,1.86V60.65h-1V38.39Z" transform="translate(0 0)"/><path class="cls-3" d="M311.41,62.5h6.09A11.31,11.31,0,0,0,326,58.6a14.16,14.16,0,0,0,0-18.17,11.45,11.45,0,0,0-8.53-3.9h-6.09Zm1.86-1.85V38.39h4.23a9.47,9.47,0,0,1,7.12,3.26,12.24,12.24,0,0,1,0,15.73,9.44,9.44,0,0,1-7.12,3.27Zm1-1h3.26a8.55,8.55,0,0,0,6.45-3,11.39,11.39,0,0,0,0-14.39,8.55,8.55,0,0,0-6.45-3h-3.26Zm1.85-1.85V41.2h1.41a6.55,6.55,0,0,1,5,2.34,9.48,9.48,0,0,1,0,12,6.55,6.55,0,0,1-5,2.34Z" transform="translate(0 0)"/><path class="cls-3" d="M333.41,62.5H347V57.83h-8.9v-7.2H345V46h-6.9V41.2H347V36.53H333.41Zm1.85-1.85V38.39h9.87v1h-8.9v8.46h6.9v1h-6.9v10.9h8.9v1Z" transform="translate(0 0)"/><path class="cls-3" d="M182.32,21.41h2.24l.61-1.9h3.67l.61,1.9h2.24L187.84,9.55h-1.67Zm1.17-.85,3.29-10.16h.45l3.29,10.16h-.46l-.61-1.9h-4.89l-.61,1.9Zm1.22-2.34h4.61L187,11.13Zm1.17-.84L187,13.87l1.13,3.51Z" transform="translate(0 0)"/><path class="cls-3" d="M193.38,21.41h2.14V14.49l3.3,6.92H201V9.55h-2.14v6.91l-3.3-6.91h-2.14Zm.85-.85V10.4H195l4.64,9.72h0V10.4h.44V20.56h-.75l-4.65-9.72h0v9.72Z" transform="translate(0 0)"/><path class="cls-3" d="M214.22,21.49a4.31,4.31,0,0,0,3.37-1.9,7.09,7.09,0,0,0,1.25-4.11,7.1,7.1,0,0,0-1.25-4.12,4.31,4.31,0,0,0-3.37-1.9,4.26,4.26,0,0,0-3.39,1.9,7.09,7.09,0,0,0-1.23,4.12,7.08,7.08,0,0,0,1.23,4.11A4.26,4.26,0,0,0,214.22,21.49Zm0-.84a3.43,3.43,0,0,1-2.71-1.55,6.32,6.32,0,0,1-1.07-3.62,6.37,6.37,0,0,1,1.07-3.63,3.46,3.46,0,0,1,2.71-1.54,3.5,3.5,0,0,1,2.67,1.54,6.47,6.47,0,0,1,0,7.25A3.49,3.49,0,0,1,214.22,20.65Zm0-.45a3.13,3.13,0,0,0,2.56-1.67,6.32,6.32,0,0,0,0-6.12,3.1,3.1,0,0,0-2.54-1.66,3,3,0,0,0-2.31,1.31,6.22,6.22,0,0,0-.15,6.62A3,3,0,0,0,214.22,20.2Zm0-.85a2.2,2.2,0,0,1-1.75-1.13,5.16,5.16,0,0,1-.74-2.74,5.08,5.08,0,0,1,.86-2.92,2.11,2.11,0,0,1,1.63-1A2.25,2.25,0,0,1,216,12.83a5.31,5.31,0,0,1,.68,2.65,5.2,5.2,0,0,1-.66,2.61A2.3,2.3,0,0,1,214.22,19.35Z" transform="translate(0 0)"/><path class="cls-3" d="M225.16,9.46a4.21,4.21,0,0,0-3.37,1.9,7.3,7.3,0,0,0-1.25,4.12,7.09,7.09,0,0,0,1.25,4.11,4.29,4.29,0,0,0,3.37,1.9,3.85,3.85,0,0,0,2.22-.73A5.44,5.44,0,0,0,228.92,19l-1.86-1a3.08,3.08,0,0,1-.92,1.05,1.53,1.53,0,0,1-1,.33,2.14,2.14,0,0,1-1.68-1,5.06,5.06,0,0,1-.81-2.83,4.91,4.91,0,0,1,.86-2.9,2.09,2.09,0,0,1,1.63-1,1.54,1.54,0,0,1,1,.34,3.08,3.08,0,0,1,.92,1.05l1.86-1a5.44,5.44,0,0,0-1.54-1.76A3.85,3.85,0,0,0,225.16,9.46Zm0,.85a3.38,3.38,0,0,1,2.56,1.36l-.39.2a3,3,0,0,0-2.17-1.12,2.93,2.93,0,0,0-2.3,1.32,5.72,5.72,0,0,0-1,3.41,6.12,6.12,0,0,0,1,3.3,3,3,0,0,0,2.37,1.42,2.92,2.92,0,0,0,2.17-1.12l.39.21a3.29,3.29,0,0,1-2.56,1.36,3.48,3.48,0,0,1-2.67-1.55,6.26,6.26,0,0,1-1.11-3.62,6.52,6.52,0,0,1,1.12-3.63A3.38,3.38,0,0,1,225.16,10.31Z" transform="translate(0 0)"/><path class="cls-3" d="M230.78,21.41H237V19.27h-4.06V16h3.15V13.85h-3.15V11.68H237V9.55h-6.2Zm.85-.85V10.4h4.51v.44h-4.07V14.7h3.15v.44h-3.15v5h4.07v.44Z" transform="translate(0 0)"/><path class="cls-3" d="M238.68,21.41h2.23l.61-1.9h3.68l.61,1.9h2.24L244.2,9.55h-1.68Zm1.16-.85,3.29-10.16h.46l3.29,10.16h-.46l-.61-1.9h-4.9l-.61,1.9Zm1.23-2.34h4.6l-2.3-7.09Zm1.17-.84,1.13-3.51,1.14,3.51Z" transform="translate(0 0)"/><path class="cls-3" d="M249.74,21.41h2.13V14.49l3.31,6.92h2.13V9.55h-2.13v6.91l-3.31-6.91h-2.13Zm.85-.85V10.4h.74L256,20.12H256V10.4h.43V20.56h-.74l-4.66-9.72h0v9.72Z" transform="translate(0 0)"/><path class="cls-3" d="M270.57,21.49a4.32,4.32,0,0,0,3.38-1.9,7.4,7.4,0,0,0,0-8.23,4.32,4.32,0,0,0-3.38-1.9,4.24,4.24,0,0,0-3.38,1.9A7.09,7.09,0,0,0,266,15.48a7.08,7.08,0,0,0,1.24,4.11A4.24,4.24,0,0,0,270.57,21.49Zm0-.84a3.44,3.44,0,0,1-2.71-1.55,6.39,6.39,0,0,1-1.06-3.62,6.44,6.44,0,0,1,1.06-3.63,3.47,3.47,0,0,1,2.71-1.54,3.51,3.51,0,0,1,2.68,1.54,6.52,6.52,0,0,1,0,7.25A3.51,3.51,0,0,1,270.57,20.65Zm0-.45a3.13,3.13,0,0,0,2.56-1.67,6.1,6.1,0,0,0,.78-3.05,6.18,6.18,0,0,0-.8-3.07,3.1,3.1,0,0,0-2.54-1.66,3,3,0,0,0-2.3,1.31,5.92,5.92,0,0,0-1,3.42,5.86,5.86,0,0,0,.88,3.2A2.94,2.94,0,0,0,270.57,20.2Zm0-.85a2.2,2.2,0,0,1-1.74-1.13,5.08,5.08,0,0,1-.75-2.74,5,5,0,0,1,.87-2.92,2.09,2.09,0,0,1,1.62-1,2.24,2.24,0,0,1,1.81,1.23,5.21,5.21,0,0,1,.69,2.65,5.31,5.31,0,0,1-.66,2.61A2.31,2.31,0,0,1,270.57,19.35Z" transform="translate(0 0)"/><path class="cls-3" d="M277.06,21.41h2.14V16h3.15V13.85H279.2V11.68h4.06V9.55h-6.2Zm.85-.85V10.4h4.51v.44h-4.07V14.7h3.15v.44h-3.15v5.42Z" transform="translate(0 0)"/><path class="cls-3" d="M295.17,21.49a4,4,0,0,0,2.4-.84,3.14,3.14,0,0,0,1.21-2.43,3,3,0,0,0-.46-1.67,4.79,4.79,0,0,0-1.84-1.66l-1.22-.68c-.94-.56-1.24-1-1.23-1.46a1.4,1.4,0,0,1,1.46-1.15,1.19,1.19,0,0,1,1,.49,1.1,1.1,0,0,1,.21.37l2-.61a3.56,3.56,0,0,0-.83-1.37,3.45,3.45,0,0,0-2.44-1,4,4,0,0,0-2.4.85,3.09,3.09,0,0,0-1.21,2.42,3,3,0,0,0,.46,1.68,5.34,5.34,0,0,0,1.81,1.64l1.27.7c.92.52,1.22.95,1.2,1.45a1.38,1.38,0,0,1-1.45,1.15,1.18,1.18,0,0,1-1-.42,1.46,1.46,0,0,1-.27-.46l-2,.63a3.84,3.84,0,0,0,.64,1.17A3.4,3.4,0,0,0,295.17,21.49Zm0-.84a2.61,2.61,0,0,1-1.14-.26,2.55,2.55,0,0,1-.92-.78l.45-.14a1.76,1.76,0,0,0,.73.57,2.23,2.23,0,0,0,.9.16,2.58,2.58,0,0,0,1.54-.54,1.87,1.87,0,0,0,.32-2.71,4.09,4.09,0,0,0-1.21-.94l-1.25-.69A4.8,4.8,0,0,1,293.07,14a2.21,2.21,0,0,1-.32-1.22v0a2.3,2.3,0,0,1,.88-1.76,3.2,3.2,0,0,1,1.86-.66,2.5,2.5,0,0,1,1,.21,2.79,2.79,0,0,1,1.05.81l-.45.13a2.64,2.64,0,0,0-.56-.45,2.26,2.26,0,0,0-1.07-.26,2.61,2.61,0,0,0-1.54.54,1.89,1.89,0,0,0-.76,1.44,1.82,1.82,0,0,0,.44,1.26,4.57,4.57,0,0,0,1.18.95l1.26.69A3.88,3.88,0,0,1,297.59,17a2.1,2.1,0,0,1,.34,1.22v0a2.28,2.28,0,0,1-.88,1.76A3.19,3.19,0,0,1,295.17,20.65Z" transform="translate(0 0)"/><path class="cls-3" d="M303.06,21.41h2.14V11.68h2.43V9.55h-7v2.13h2.42Zm.85-.85V10.84h-2.42V10.4h5.3v.44h-2.44v9.72Z" transform="translate(0 0)"/><path class="cls-3" d="M314.12,21.49a4.32,4.32,0,0,0,3.38-1.9,7.4,7.4,0,0,0,0-8.23,4.32,4.32,0,0,0-3.38-1.9,4.24,4.24,0,0,0-3.38,1.9,7.09,7.09,0,0,0-1.24,4.12,7.08,7.08,0,0,0,1.24,4.11A4.24,4.24,0,0,0,314.12,21.49Zm0-.84a3.44,3.44,0,0,1-2.71-1.55,6.39,6.39,0,0,1-1.06-3.62,6.44,6.44,0,0,1,1.06-3.63,3.47,3.47,0,0,1,2.71-1.54,3.51,3.51,0,0,1,2.68,1.54,6.52,6.52,0,0,1,0,7.25A3.51,3.51,0,0,1,314.12,20.65Zm0-.45a3.13,3.13,0,0,0,2.56-1.67,6.1,6.1,0,0,0,.78-3.05,6.18,6.18,0,0,0-.8-3.07,3.1,3.1,0,0,0-2.54-1.66,3,3,0,0,0-2.3,1.31,5.92,5.92,0,0,0-1,3.42,5.86,5.86,0,0,0,.88,3.2A2.94,2.94,0,0,0,314.12,20.2Zm0-.85a2.18,2.18,0,0,1-1.74-1.13,5.08,5.08,0,0,1-.75-2.74,5,5,0,0,1,.87-2.92,2.09,2.09,0,0,1,1.62-1,2.24,2.24,0,0,1,1.81,1.23,5.43,5.43,0,0,1,0,5.26A2.28,2.28,0,0,1,314.12,19.35Z" transform="translate(0 0)"/><path class="cls-3" d="M320.61,21.41h2.14V17.09h0l2.73,4.32H328l-2.95-4.66a4.47,4.47,0,0,0,1.16-.73,3.61,3.61,0,0,0,1.21-2.71,3.66,3.66,0,0,0-1.21-2.7,4.32,4.32,0,0,0-2.82-1.06h-2.81Zm.85-.85V10.4h2a3.47,3.47,0,0,1,2.26.84,2.83,2.83,0,0,1,.93,2.07,2.65,2.65,0,0,1-.63,1.74,3.34,3.34,0,0,1-2.23,1.17l2.74,4.34H326l-2.72-4.32H321.9v4.32Zm.44-4.76h1.52a2.91,2.91,0,0,0,2.26-1.07,2.29,2.29,0,0,0,.49-1.42,2.38,2.38,0,0,0-.85-1.78,2.8,2.8,0,0,0-1.9-.69H321.9Zm.85-.85V11.68h.67a1.79,1.79,0,0,1,1.9,1.63,1.78,1.78,0,0,1-1.9,1.64Z" transform="translate(0 0)"/><path class="cls-3" d="M331.44,9.55H329.3V21.41h2.14Zm-.85.85V20.56h-.44V10.4Z" transform="translate(0 0)"/><path class="cls-3" d="M333.47,21.41h6.2V19.27H335.6V16h3.15V13.85H335.6V11.68h4.07V9.55h-6.2Zm.85-.85V10.4h4.5v.44h-4.07V14.7h3.15v.44h-3.15v5h4.07v.44Z" transform="translate(0 0)"/><path class="cls-3" d="M344.8,21.49a4,4,0,0,0,2.4-.84,3.14,3.14,0,0,0,1.21-2.43,3,3,0,0,0-.46-1.67,4.79,4.79,0,0,0-1.84-1.66l-1.22-.68c-.94-.56-1.24-1-1.23-1.46a1.4,1.4,0,0,1,1.46-1.15,1.19,1.19,0,0,1,1,.49,1.1,1.1,0,0,1,.21.37l2.05-.61a3.56,3.56,0,0,0-.83-1.37,3.45,3.45,0,0,0-2.44-1,4,4,0,0,0-2.4.85,3.09,3.09,0,0,0-1.21,2.42,3,3,0,0,0,.46,1.68,5.44,5.44,0,0,0,1.81,1.64l1.27.7c.92.52,1.22.95,1.2,1.45a1.38,1.38,0,0,1-1.45,1.15,1.18,1.18,0,0,1-1-.42,1.46,1.46,0,0,1-.27-.46l-2,.63a3.84,3.84,0,0,0,.64,1.17A3.4,3.4,0,0,0,344.8,21.49Zm0-.84a2.61,2.61,0,0,1-1.14-.26,2.55,2.55,0,0,1-.92-.78l.45-.14a1.76,1.76,0,0,0,.73.57,2.26,2.26,0,0,0,.9.16,2.58,2.58,0,0,0,1.54-.54,1.87,1.87,0,0,0,.32-2.71,4.17,4.17,0,0,0-1.2-.94l-1.25-.69A4.74,4.74,0,0,1,342.7,14a2.21,2.21,0,0,1-.32-1.22v0a2.3,2.3,0,0,1,.88-1.76,3.2,3.2,0,0,1,1.86-.66,2.5,2.5,0,0,1,1,.21,2.71,2.71,0,0,1,1.05.81l-.45.13a2.64,2.64,0,0,0-.56-.45,2.26,2.26,0,0,0-1.07-.26,2.64,2.64,0,0,0-1.54.54,1.89,1.89,0,0,0-.76,1.44,1.82,1.82,0,0,0,.44,1.26,4.57,4.57,0,0,0,1.18.95l1.26.69A3.88,3.88,0,0,1,347.22,17a2.1,2.1,0,0,1,.34,1.22v0a2.28,2.28,0,0,1-.88,1.76A3.19,3.19,0,0,1,344.8,20.65Z" transform="translate(0 0)"/></g></g></svg>